STARTFONT 2.1
COMMENT
COMMENT Converted from OpenType font "arialbd.ttf" by "otf2bdf 3.0".
COMMENT
FONT -FreeType-Arial-Bold-R-Normal--42-300-100-100-P-214-ISO10646-1
SIZE 30 100 100
FONTBOUNDINGBOX 75 60 -20 -17
STARTPROPERTIES 19
FOUNDRY "FreeType"
FAMILY_NAME "Arial"
WEIGHT_NAME "Bold"
SLANT "R"
SETWIDTH_NAME "Normal"
ADD_STYLE_NAME ""
PIXEL_SIZE 42
POINT_SIZE 300
RESOLUTION_X 100
RESOLUTION_Y 100
SPACING "P"
AVERAGE_WIDTH 214
CHARSET_REGISTRY "ISO10646"
CHARSET_ENCODING "1"
FONT_ASCENT 38
FONT_DESCENT 8
COPYRIGHT "© 2010 The Monotype Corporation. All Rights Reserved."
_OTF_FONTFILE "arialbd.ttf"
_OTF_PSNAME "Arial-BoldMT"
ENDPROPERTIES
CHARS 2815
STARTCHAR 0020
ENCODING 32
SWIDTH 288 0
DWIDTH 12 0
BBX 0 0 0 0
BITMAP
ENDCHAR
STARTCHAR 0021
ENCODING 33
SWIDTH 336 0
DWIDTH 14 0
BBX 6 30 4 0
BITMAP
FC
FC
FC
FC
FC
FC
FC
FC
FC
FC
FC
FC
F8
F8
78
78
78
78
78
78
78
78
00
00
FC
FC
FC
FC
FC
FC
ENDCHAR
STARTCHAR 0022
ENCODING 34
SWIDTH 480 0
DWIDTH 20 0
BBX 16 11 2 19
BITMAP
FE3F
FE3F
FE3F
FE3F
FE3F
FE3F
7C3F
7C3E
7C3E
7C3E
7C1E
ENDCHAR
STARTCHAR 0023
ENCODING 35
SWIDTH 552 0
DWIDTH 23 0
BBX 23 30 0 0
BITMAP
00F07C
00F078
01F0F8
01F0F8
01E0F8
01E0F8
03E0F0
03E1F0
FFFFFE
FFFFFE
FFFFFE
FFFFFE
07C3E0
07C3E0
0783E0
0783C0
0F83C0
0F87C0
FFFFFE
FFFFFE
FFFFFE
FFFFFE
1F0F80
1F0F80
1E0F80
3E0F00
3E1F00
3E1F00
3C1F00
3C1E00
ENDCHAR
STARTCHAR 0024
ENCODING 36
SWIDTH 552 0
DWIDTH 23 0
BBX 20 36 1 -4
BITMAP
007000
007000
01FC00
07FF00
1FFF80
1FFFC0
3FFFE0
3F77E0
7E73F0
7C7380
7C7000
7E7000
3E7000
3FF000
3FF000
1FFE00
0FFF80
07FFC0
01FFE0
007FF0
0073F0
0071F0
1C71F0
FC71F0
7E71F0
7E71F0
7F73F0
3FFFE0
1FFFE0
1FFFC0
07FF00
01FC00
007000
007000
007000
007000
ENDCHAR
STARTCHAR 0025
ENCODING 37
SWIDTH 888 0
DWIDTH 37 0
BBX 33 31 2 -1
BITMAP
0F8003C000
3FE003C000
7FF0078000
78F0078000
F8F80F0000
F0F80F0000
F0F81E0000
F0F81E0000
F0F83C0000
F0F83C0000
F0F8780000
F8F8780000
78F0F00000
7FF0F00000
3FE1E00000
0F81E0F800
0003C3FE00
0007C7FF00
000787CF80
000F878F80
000F0F8780
001F0F8780
001E0F8780
003E0F8780
003C0F8780
007C0F8780
0078078F80
00F8078F80
00F007FF00
01F003FE00
01E000FC00
ENDCHAR
STARTCHAR 0026
ENCODING 38
SWIDTH 720 0
DWIDTH 30 0
BBX 28 30 2 0
BITMAP
00FE0000
03FF8000
07FFE000
0FFFE000
0FC3F000
0F81F000
0F81F000
0FC1F000
0FC3F000
0FE7F000
07FFE000
03FFC000
03FF8000
03FE0000
0FFE0000
1FFF0000
3FFF8E00
7F3FCF80
FE1FDF80
FC0FFF80
FC07FF00
FC03FF00
FC01FE00
FC01FE00
FE01FF80
7F07FFC0
3FFFFFF0
1FFFFFE0
0FFF87C0
03FE0180
ENDCHAR
STARTCHAR 0027
ENCODING 39
SWIDTH 240 0
DWIDTH 10 0
BBX 6 11 2 19
BITMAP
FC
FC
FC
FC
FC
FC
FC
FC
7C
78
78
ENDCHAR
STARTCHAR 0028
ENCODING 40
SWIDTH 336 0
DWIDTH 14 0
BBX 10 38 2 -8
BITMAP
03C0
03C0
07C0
0F80
0F80
1F00
1F00
3F00
3E00
3E00
7E00
7C00
7C00
7C00
FC00
FC00
FC00
FC00
FC00
FC00
FC00
FC00
FC00
7C00
7C00
7C00
7C00
7E00
3E00
3E00
1E00
1F00
1F00
0F80
0F80
0780
03C0
03C0
ENDCHAR
STARTCHAR 0029
ENCODING 41
SWIDTH 336 0
DWIDTH 14 0
BBX 10 38 2 -8
BITMAP
F000
F000
F800
7C00
7C00
3E00
3E00
3E00
1F00
1F00
1F80
1F80
0F80
0F80
0F80
0FC0
0FC0
0FC0
0FC0
0FC0
0FC0
0FC0
0FC0
0F80
0F80
0F80
1F80
1F00
1F00
1F00
3E00
3E00
3E00
7C00
7C00
7800
F000
F000
ENDCHAR
STARTCHAR 002A
ENCODING 42
SWIDTH 384 0
DWIDTH 16 0
BBX 14 14 1 16
BITMAP
0780
0780
0780
470C
F73C
FFFC
FFFC
3FF0
0FC0
1FE0
3DF0
7CF8
3870
1040
ENDCHAR
STARTCHAR 002B
ENCODING 43
SWIDTH 600 0
DWIDTH 25 0
BBX 21 21 2 4
BITMAP
00F800
00F800
00F800
00F800
00F800
00F800
00F800
00F800
FFFFF8
FFFFF8
FFFFF8
FFFFF8
FFFFF8
00F800
00F800
00F800
00F800
00F800
00F800
00F800
00F800
ENDCHAR
STARTCHAR 002C
ENCODING 44
SWIDTH 288 0
DWIDTH 12 0
BBX 6 13 3 -7
BITMAP
FC
FC
FC
FC
FC
FC
1C
38
38
78
F0
E0
C0
ENDCHAR
STARTCHAR 002D
ENCODING 45
SWIDTH 336 0
DWIDTH 14 0
BBX 12 5 2 8
BITMAP
FFF0
FFF0
FFF0
FFF0
FFF0
ENDCHAR
STARTCHAR 002E
ENCODING 46
SWIDTH 288 0
DWIDTH 12 0
BBX 6 6 3 0
BITMAP
FC
FC
FC
FC
FC
FC
ENDCHAR
STARTCHAR 002F
ENCODING 47
SWIDTH 288 0
DWIDTH 12 0
BBX 12 30 0 0
BITMAP
01F0
01E0
01E0
01E0
03E0
03C0
03C0
03C0
07C0
0780
0780
0780
0F80
0F00
0F00
0F00
1F00
1E00
1E00
1E00
3E00
3C00
3C00
3C00
7C00
7800
7800
7800
F800
F000
ENDCHAR
STARTCHAR 0030
ENCODING 48
SWIDTH 552 0
DWIDTH 23 0
BBX 19 30 2 0
BITMAP
03F800
0FFE00
1FFF00
3FFF80
3FFF80
7F1FC0
7E0FC0
7E07C0
FC07E0
FC07E0
FC07E0
FC07E0
FC07E0
FC07E0
FC07E0
FC07E0
FC07E0
FC07E0
FC07E0
FC07E0
FC07E0
FC07E0
7E07C0
7E0FC0
7F1FC0
3FFF80
3FFF80
1FFF00
0FFE00
03F800
ENDCHAR
STARTCHAR 0031
ENCODING 49
SWIDTH 552 0
DWIDTH 23 0
BBX 14 30 3 0
BITMAP
007C
00FC
00FC
01FC
03FC
07FC
1FFC
3FFC
FFFC
FEFC
FCFC
F0FC
C0FC
00FC
00FC
00FC
00FC
00FC
00FC
00FC
00FC
00FC
00FC
00FC
00FC
00FC
00FC
00FC
00FC
00FC
ENDCHAR
STARTCHAR 0032
ENCODING 50
SWIDTH 552 0
DWIDTH 23 0
BBX 20 30 1 0
BITMAP
01FC00
07FF80
0FFFC0
1FFFE0
3FFFE0
3F87F0
7E03F0
7E03F0
7E03F0
3E03F0
0003F0
0003F0
0007E0
000FE0
001FC0
003F80
007F00
00FE00
01FC00
03F800
07F000
0FE000
1FC000
1F8000
3FFFF0
7FFFF0
7FFFF0
7FFFF0
FFFFF0
FFFFF0
ENDCHAR
STARTCHAR 0033
ENCODING 51
SWIDTH 552 0
DWIDTH 23 0
BBX 20 30 2 0
BITMAP
03F800
0FFE00
1FFF00
3FFF80
7FFF80
7E1FC0
FC0FC0
FC0FC0
380FC0
000FC0
000FC0
003F80
00FF00
01FE00
01FE00
01FF80
000FC0
0007E0
0007E0
0003E0
3803F0
F803F0
FC07E0
FC07E0
7F1FE0
7FFFC0
3FFF80
1FFF00
0FFE00
03F800
ENDCHAR
STARTCHAR 0034
ENCODING 52
SWIDTH 552 0
DWIDTH 23 0
BBX 21 30 1 0
BITMAP
000FC0
000FC0
001FC0
003FC0
003FC0
007FC0
00FFC0
00FFC0
01FFC0
03FFC0
03EFC0
07CFC0
0FCFC0
0F8FC0
1F0FC0
3F0FC0
7E0FC0
7C0FC0
FC0FC0
FFFFF8
FFFFF8
FFFFF8
FFFFF8
FFFFF8
000FC0
000FC0
000FC0
000FC0
000FC0
000FC0
ENDCHAR
STARTCHAR 0035
ENCODING 53
SWIDTH 552 0
DWIDTH 23 0
BBX 20 30 2 0
BITMAP
1FFFE0
1FFFE0
1FFFE0
1FFFE0
1FFFE0
1FFFE0
3F0000
3F0000
3E0000
3E0000
3EFC00
7FFF00
7FFF80
7FFFC0
7FFFE0
7E0FE0
7C07F0
0003F0
0003F0
0003F0
3C03F0
FC03F0
FC03F0
FE07E0
7F0FE0
7FFFC0
3FFFC0
1FFF80
0FFE00
03F800
ENDCHAR
STARTCHAR 0036
ENCODING 54
SWIDTH 552 0
DWIDTH 23 0
BBX 20 30 2 0
BITMAP
01FC00
07FF00
0FFF80
1FFFC0
3FFFC0
3F8FE0
7F07E0
7E03E0
FC0000
FC0000
FC0000
FC7C00
FDFF00
FFFF80
FFFFC0
FFFFE0
FF0FE0
FE07E0
FE03F0
FC03F0
FC03F0
FC03F0
7E03F0
7E03E0
7F8FE0
3FFFE0
1FFFC0
0FFF80
07FF00
01F800
ENDCHAR
STARTCHAR 0037
ENCODING 55
SWIDTH 552 0
DWIDTH 23 0
BBX 20 30 2 0
BITMAP
FFFFF0
FFFFF0
FFFFF0
FFFFF0
FFFFE0
FFFFC0
000F80
000F80
001F00
003E00
003E00
007C00
007C00
00F800
00F800
01F000
01F000
03F000
03E000
03E000
07E000
07C000
07C000
07C000
0FC000
0FC000
0FC000
0F8000
0F8000
0F8000
ENDCHAR
STARTCHAR 0038
ENCODING 56
SWIDTH 552 0
DWIDTH 23 0
BBX 19 30 2 0
BITMAP
03F800
0FFE00
3FFF80
3FFF80
7FFFC0
7E0FC0
FC07C0
FC07E0
7C07C0
7C07C0
7E0FC0
3FFF80
1FFF00
0FFE00
1FFF00
3FFFC0
7E0FC0
FC07E0
FC07E0
F803E0
F803E0
F803E0
FC07E0
FC07E0
FF0FE0
7FFFC0
3FFFC0
3FFF80
0FFE00
03F800
ENDCHAR
STARTCHAR 0039
ENCODING 57
SWIDTH 552 0
DWIDTH 23 0
BBX 20 30 1 0
BITMAP
01F800
0FFE00
1FFF80
3FFFC0
3FFFC0
7F0FE0
7E07E0
7C07F0
FC03F0
FC03F0
FC03F0
FC03F0
7E07F0
7F0FF0
7FFFF0
3FFFF0
1FFFF0
0FFBF0
03F3F0
0003F0
0003F0
0003F0
7E07E0
7E07E0
7F0FE0
3FFFC0
3FFF80
1FFF00
0FFE00
03F800
ENDCHAR
STARTCHAR 003A
ENCODING 58
SWIDTH 336 0
DWIDTH 14 0
BBX 6 22 4 0
BITMAP
FC
FC
FC
FC
FC
FC
00
00
00
00
00
00
00
00
00
00
FC
FC
FC
FC
FC
FC
ENDCHAR
STARTCHAR 003B
ENCODING 59
SWIDTH 336 0
DWIDTH 14 0
BBX 6 29 4 -7
BITMAP
FC
FC
FC
FC
FC
FC
00
00
00
00
00
00
00
00
00
00
FC
FC
FC
FC
FC
FC
1C
38
38
78
F0
E0
C0
ENDCHAR
STARTCHAR 003C
ENCODING 60
SWIDTH 600 0
DWIDTH 25 0
BBX 21 23 2 3
BITMAP
000018
000078
0001F8
0007F8
003FF8
00FFE0
03FF80
1FFE00
7FF800
FFC000
FF0000
FC0000
FF8000
FFE000
7FF800
1FFE00
03FF80
00FFE0
003FF8
0007F8
0001F8
000078
000018
ENDCHAR
STARTCHAR 003D
ENCODING 61
SWIDTH 600 0
DWIDTH 25 0
BBX 21 14 2 8
BITMAP
FFFFF8
FFFFF8
FFFFF8
FFFFF8
FFFFF8
000000
000000
000000
000000
FFFFF8
FFFFF8
FFFFF8
FFFFF8
FFFFF8
ENDCHAR
STARTCHAR 003E
ENCODING 62
SWIDTH 600 0
DWIDTH 25 0
BBX 21 23 2 3
BITMAP
800000
E00000
FC0000
FF0000
FFC000
7FF800
1FFE00
03FF80
00FFE0
003FF8
000FF8
0003F8
000FF8
003FF8
00FFE0
07FF80
1FFE00
7FF800
FFC000
FF0000
FC0000
E00000
800000
ENDCHAR
STARTCHAR 003F
ENCODING 63
SWIDTH 624 0
DWIDTH 26 0
BBX 22 30 2 0
BITMAP
01FE00
07FF80
1FFFE0
3FFFF0
7F03F8
7E01F8
FC00F8
FC00FC
0000FC
0000FC
0001F8
0003F8
0007F0
000FE0
001FC0
003F80
007F00
007E00
00FC00
00FC00
00F800
00F800
000000
000000
00FC00
00FC00
00FC00
00FC00
00FC00
00FC00
ENDCHAR
STARTCHAR 0040
ENCODING 64
SWIDTH 984 0
DWIDTH 41 0
BBX 40 40 1 -10
BITMAP
0000FFC000
0007FFF800
003FFFFE00
007FFFFF80
01FF803FC0
03F80007E0
07E00003F0
07C0F800F8
0F83FE7C78
1F07FF7C7C
1E0FFF7C3C
3E1FFFFC3C
3C3F87F81C
7C3F01F81E
787E01F81E
787E01F81E
787C01F81E
F0FC01F01E
F0FC01F01C
F0F801F03C
F0F803F03C
F0F803F078
F0FC07E078
F0FC07E0F0
70FE1FE1F0
787FFFE7E0
787FFFFFC0
783FFBFF80
3C1FF3FE00
3C07C1F800
3E0000001F
1F0000003E
0F8000007C
0FE00000FC
07F80003F8
03FF003FF0
00FFFFFFC0
003FFFFF80
000FFFFE00
0000FFE000
ENDCHAR
STARTCHAR 0041
ENCODING 65
SWIDTH 720 0
DWIDTH 30 0
BBX 30 30 0 0
BITMAP
001FC000
001FE000
001FE000
003FF000
003FF000
003FF000
007DF800
007CF800
00FCFC00
00F8FC00
00F87C00
01F87E00
01F87E00
03F03F00
03F03F00
03F03F00
07E01F80
07E01F80
0FFFFFC0
0FFFFFC0
0FFFFFC0
1FFFFFE0
1FFFFFE0
1F8007F0
3F0007F0
3F0003F0
7F0003F8
7E0001F8
7E0001FC
FE0001FC
ENDCHAR
STARTCHAR 0042
ENCODING 66
SWIDTH 720 0
DWIDTH 30 0
BBX 25 30 3 0
BITMAP
FFFFC000
FFFFF000
FFFFFC00
FFFFFC00
FFFFFE00
FC00FE00
FC007F00
FC003F00
FC003F00
FC003F00
FC007E00
FC00FE00
FFFFFC00
FFFFF800
FFFFF800
FFFFFC00
FFFFFE00
FC007F00
FC003F80
FC001F80
FC001F80
FC001F80
FC001F80
FC003F80
FC007F80
FFFFFF00
FFFFFF00
FFFFFE00
FFFFFC00
FFFFE000
ENDCHAR
STARTCHAR 0043
ENCODING 67
SWIDTH 720 0
DWIDTH 30 0
BBX 26 30 2 0
BITMAP
003FC000
01FFF000
03FFFC00
0FFFFE00
1FFFFF00
1FE0FF80
3F803F80
7F001FC0
7F000FC0
7E000E00
FE000000
FE000000
FC000000
FC000000
FC000000
FC000000
FC000000
FC000000
FE000000
FE000C00
7E000F80
7E001FC0
7F001FC0
3F803F80
3FE0FF80
1FFFFF00
0FFFFE00
07FFFC00
01FFF000
003FC000
ENDCHAR
STARTCHAR 0044
ENCODING 68
SWIDTH 720 0
DWIDTH 30 0
BBX 25 30 3 0
BITMAP
FFFF0000
FFFFE000
FFFFF000
FFFFFC00
FFFFFC00
FC01FE00
FC00FF00
FC007F00
FC003F00
FC003F80
FC001F80
FC001F80
FC001F80
FC001F80
FC001F80
FC001F80
FC001F80
FC001F80
FC001F80
FC001F80
FC003F80
FC003F00
FC003F00
FC007F00
FC01FE00
FFFFFC00
FFFFFC00
FFFFF800
FFFFE000
FFFF0000
ENDCHAR
STARTCHAR 0045
ENCODING 69
SWIDTH 672 0
DWIDTH 28 0
BBX 23 30 3 0
BITMAP
FFFFFC
FFFFFC
FFFFFC
FFFFFC
FFFFFC
FC0000
FC0000
FC0000
FC0000
FC0000
FC0000
FC0000
FFFFF8
FFFFF8
FFFFF8
FFFFF8
FFFFF8
FC0000
FC0000
FC0000
FC0000
FC0000
FC0000
FC0000
FC0000
FFFFFE
FFFFFE
FFFFFE
FFFFFE
FFFFFE
ENDCHAR
STARTCHAR 0046
ENCODING 70
SWIDTH 624 0
DWIDTH 26 0
BBX 21 30 3 0
BITMAP
FFFFF8
FFFFF8
FFFFF8
FFFFF8
FFFFF8
FC0000
FC0000
FC0000
FC0000
FC0000
FC0000
FC0000
FFFFE0
FFFFE0
FFFFE0
FFFFE0
FFFFE0
FC0000
FC0000
FC0000
FC0000
FC0000
FC0000
FC0000
FC0000
FC0000
FC0000
FC0000
FC0000
FC0000
ENDCHAR
STARTCHAR 0047
ENCODING 71
SWIDTH 792 0
DWIDTH 33 0
BBX 28 30 2 0
BITMAP
003FE000
00FFFC00
03FFFF00
07FFFF80
0FFFFFC0
1FF03FC0
3FC01FE0
3F800FE0
7F0007F0
7E000380
7E000000
FE000000
FC000000
FC000000
FC01FFF0
FC01FFF0
FC01FFF0
FC01FFF0
FE01FFF0
7E0003F0
7E0003F0
7F0003F0
3F8003F0
3FC007F0
1FF03FF0
0FFFFFF0
07FFFFE0
03FFFF80
00FFFE00
001FF000
ENDCHAR
STARTCHAR 0048
ENCODING 72
SWIDTH 720 0
DWIDTH 30 0
BBX 24 30 3 0
BITMAP
FC003F
FC003F
FC003F
FC003F
FC003F
FC003F
FC003F
FC003F
FC003F
FC003F
FC003F
FC003F
FFFFFF
FFFFFF
FFFFFF
FFFFFF
FFFFFF
FC003F
FC003F
FC003F
FC003F
FC003F
FC003F
FC003F
FC003F
FC003F
FC003F
FC003F
FC003F
FC003F
ENDCHAR
STARTCHAR 0049
ENCODING 73
SWIDTH 288 0
DWIDTH 12 0
BBX 6 30 3 0
BITMAP
FC
FC
FC
FC
FC
FC
FC
FC
FC
FC
FC
FC
FC
FC
FC
FC
FC
FC
FC
FC
FC
FC
FC
FC
FC
FC
FC
FC
FC
FC
ENDCHAR
STARTCHAR 004A
ENCODING 74
SWIDTH 552 0
DWIDTH 23 0
BBX 19 30 1 0
BITMAP
0007E0
0007E0
0007E0
0007E0
0007E0
0007E0
0007E0
0007E0
0007E0
0007E0
0007E0
0007E0
0007E0
0007E0
0007E0
0007E0
0007E0
0007E0
0007E0
0007E0
1807E0
FC07E0
FC07E0
FC0FE0
FE1FC0
7FFFC0
7FFF80
3FFF00
1FFE00
07F800
ENDCHAR
STARTCHAR 004B
ENCODING 75
SWIDTH 720 0
DWIDTH 30 0
BBX 27 30 3 0
BITMAP
FC003FC0
FC007F80
FC00FF00
FC01FE00
FC03FC00
FC07F800
FC0FF000
FC1FE000
FC3FC000
FC7F8000
FCFF0000
FDFE0000
FFFF0000
FFFF8000
FFFF8000
FFFFC000
FFFFE000
FFCFE000
FF87F000
FF07F000
FE03F800
FC03FC00
FC01FC00
FC00FE00
FC00FF00
FC007F00
FC007F80
FC003FC0
FC001FC0
FC001FE0
ENDCHAR
STARTCHAR 004C
ENCODING 76
SWIDTH 624 0
DWIDTH 26 0
BBX 21 30 3 0
BITMAP
FC0000
FC0000
FC0000
FC0000
FC0000
FC0000
FC0000
FC0000
FC0000
FC0000
FC0000
FC0000
FC0000
FC0000
FC0000
FC0000
FC0000
FC0000
FC0000
FC0000
FC0000
FC0000
FC0000
FC0000
FC0000
FFFFF8
FFFFF8
FFFFF8
FFFFF8
FFFFF8
ENDCHAR
STARTCHAR 004D
ENCODING 77
SWIDTH 840 0
DWIDTH 35 0
BBX 29 30 3 0
BITMAP
FF800FF8
FF801FF8
FFC01FF8
FFC01FF8
FFC01FF8
FFE03FF8
FFE03FF8
FFE03FF8
FFE03FF8
FFF07FF8
FDF07DF8
FDF07DF8
FDF07DF8
FDF8FDF8
FCF8F9F8
FCF8F9F8
FCF8F9F8
FCFDF9F8
FC7DF1F8
FC7DF1F8
FC7FF1F8
FC7FF1F8
FC3FE1F8
FC3FE1F8
FC3FE1F8
FC3FE1F8
FC1FC1F8
FC1FC1F8
FC1FC1F8
FC1FC1F8
ENDCHAR
STARTCHAR 004E
ENCODING 78
SWIDTH 720 0
DWIDTH 30 0
BBX 24 30 3 0
BITMAP
FC003F
FE003F
FE003F
FF003F
FF803F
FF803F
FFC03F
FFC03F
FFE03F
FFE03F
FDF03F
FDF83F
FCF83F
FCFC3F
FC7C3F
FC3E3F
FC3E3F
FC1F3F
FC1FBF
FC0FBF
FC0FFF
FC07FF
FC03FF
FC03FF
FC01FF
FC01FF
FC00FF
FC00FF
FC007F
FC003F
ENDCHAR
STARTCHAR 004F
ENCODING 79
SWIDTH 792 0
DWIDTH 33 0
BBX 29 30 2 0
BITMAP
003FE000
01FFF800
07FFFE00
0FFFFF00
1FFFFF80
3FE07FC0
3F801FE0
7F000FE0
7F0007F0
7E0003F0
FE0003F0
FC0003F8
FC0001F8
FC0001F8
FC0001F8
FC0001F8
FC0001F8
FC0003F8
FC0003F8
FE0003F8
7E0003F0
7F0007F0
7F000FF0
3FC01FE0
3FF07FC0
1FFFFFC0
0FFFFF80
07FFFE00
01FFFC00
003FE000
ENDCHAR
STARTCHAR 0050
ENCODING 80
SWIDTH 672 0
DWIDTH 28 0
BBX 23 30 3 0
BITMAP
FFFF80
FFFFE0
FFFFF0
FFFFF8
FFFFFC
FC03FC
FC00FE
FC00FE
FC007E
FC007E
FC007E
FC00FE
FC00FE
FC03FC
FFFFFC
FFFFF8
FFFFF0
FFFFE0
FFFF80
FC0000
FC0000
FC0000
FC0000
FC0000
FC0000
FC0000
FC0000
FC0000
FC0000
FC0000
ENDCHAR
STARTCHAR 0051
ENCODING 81
SWIDTH 792 0
DWIDTH 33 0
BBX 30 32 2 -2
BITMAP
003FE000
01FFFC00
07FFFE00
0FFFFF80
1FFFFFC0
3FE07FC0
3FC01FE0
7F000FF0
7F0007F0
7E0003F0
FE0003F8
FC0003F8
FC0001F8
FC0001F8
FC0001F8
FC0001F8
FC0001F8
FC0003F8
FC0003F8
FE0303F0
7E03C3F0
7F03E7F0
7F07FFE0
3F83FFE0
3FE07FC0
1FFFFF80
0FFFFFE0
07FFFFF8
01FFFFFC
003FE3F8
000000F8
00000030
ENDCHAR
STARTCHAR 0052
ENCODING 82
SWIDTH 720 0
DWIDTH 30 0
BBX 27 30 3 0
BITMAP
FFFFE000
FFFFF800
FFFFFC00
FFFFFE00
FFFFFF00
FC007F00
FC003F00
FC003F80
FC003F80
FC003F80
FC003F00
FC00FF00
FFFFFF00
FFFFFE00
FFFFFC00
FFFFF000
FFFF8000
FC1FE000
FC0FF000
FC07F000
FC03F800
FC03FC00
FC01FE00
FC00FE00
FC00FF00
FC007F00
FC003F80
FC003FC0
FC001FC0
FC000FE0
ENDCHAR
STARTCHAR 0053
ENCODING 83
SWIDTH 672 0
DWIDTH 28 0
BBX 24 30 2 0
BITMAP
01FF00
07FFE0
1FFFF0
3FFFF8
3FFFFC
7F01FC
7E00FE
7C007E
7E007E
7E0000
7FC000
3FFC00
3FFF80
1FFFF0
07FFF8
01FFFC
001FFE
0001FE
00007F
3C003F
FC003F
FC003F
FE007F
FF007F
7F81FE
7FFFFE
3FFFFC
1FFFF8
07FFE0
01FF80
ENDCHAR
STARTCHAR 0054
ENCODING 84
SWIDTH 624 0
DWIDTH 26 0
BBX 24 30 1 0
BITMAP
FFFFFF
FFFFFF
FFFFFF
FFFFFF
FFFFFF
007E00
007E00
007E00
007E00
007E00
007E00
007E00
007E00
007E00
007E00
007E00
007E00
007E00
007E00
007E00
007E00
007E00
007E00
007E00
007E00
007E00
007E00
007E00
007E00
007E00
ENDCHAR
STARTCHAR 0055
ENCODING 85
SWIDTH 720 0
DWIDTH 30 0
BBX 24 30 3 0
BITMAP
FC003F
FC003F
FC003F
FC003F
FC003F
FC003F
FC003F
FC003F
FC003F
FC003F
FC003F
FC003F
FC003F
FC003F
FC003F
FC003F
FC003F
FC003F
FC003F
FC003F
FC003F
FC003F
FE007F
7F007E
7F81FE
3FFFFE
3FFFFC
1FFFF8
07FFE0
01FF80
ENDCHAR
STARTCHAR 0056
ENCODING 86
SWIDTH 672 0
DWIDTH 28 0
BBX 28 30 0 0
BITMAP
FE0007F0
7E0007E0
7E0007E0
7F000FE0
3F000FC0
3F000FC0
3F801FC0
1F801F80
1FC01F80
1FC03F80
0FC03F00
0FE03F00
0FE07F00
07E07E00
07F07E00
03F0FC00
03F0FC00
03F8FC00
01F9F800
01F9F800
01FDF800
00FFF000
00FFF000
00FFF000
007FE000
007FE000
007FC000
003FC000
003FC000
001F8000
ENDCHAR
STARTCHAR 0057
ENCODING 87
SWIDTH 960 0
DWIDTH 40 0
BBX 39 30 0 0
BITMAP
FC00FF007E
FE00FF007E
7E00FF007E
7E01FF007E
7E01FF80FE
7F01FF80FC
3F01FF80FC
3F03FF80FC
3F03FFC0FC
3F03EFC1F8
1F83E7C1F8
1F87E7C1F8
1F87E7E1F8
1F87C7E3F0
0FC7C3E3F0
0FCFC3F3F0
0FCFC3F3F0
0FCF81F3E0
07DF81F7E0
07FF81FFE0
07FF01FFE0
07FF00FFC0
03FF00FFC0
03FF00FFC0
03FE00FFC0
03FE007F80
03FE007F80
01FE007F80
01FC007F80
01FC003F00
ENDCHAR
STARTCHAR 0058
ENCODING 88
SWIDTH 672 0
DWIDTH 28 0
BBX 28 30 0 0
BITMAP
7F000FE0
3F801FC0
1FC03F80
1FC03F80
0FE07F00
07F0FE00
07F0FE00
03F9FC00
01FFF800
01FFF800
00FFF000
007FE000
007FE000
003FC000
003FC000
003FC000
007FE000
00FFF000
00FFF000
01FFF800
03FFFC00
03F9FC00
07F0FE00
0FF0FF00
0FE07F00
1FC03F80
3FC03FC0
3F801FC0
7F000FE0
FF000FF0
ENDCHAR
STARTCHAR 0059
ENCODING 89
SWIDTH 672 0
DWIDTH 28 0
BBX 28 30 0 0
BITMAP
FE0007F0
7F000FE0
3F800FC0
3F801FC0
1FC03F80
1FC03F80
0FE07F00
07E07E00
07F0FE00
03F8FC00
01F9F800
01FFF800
00FFF000
00FFF000
007FE000
003FC000
003FC000
001F8000
001F8000
001F8000
001F8000
001F8000
001F8000
001F8000
001F8000
001F8000
001F8000
001F8000
001F8000
001F8000
ENDCHAR
STARTCHAR 005A
ENCODING 90
SWIDTH 624 0
DWIDTH 26 0
BBX 25 30 0 0
BITMAP
3FFFFF00
3FFFFF00
3FFFFF00
3FFFFF00
3FFFFF00
0000FE00
0001FC00
0003FC00
0007F800
000FF000
000FE000
001FC000
003FC000
007F8000
00FF0000
00FE0000
01FC0000
03FC0000
07F80000
0FF00000
1FE00000
1FE00000
3FC00000
7F800000
FF000000
FFFFFF80
FFFFFF80
FFFFFF80
FFFFFF80
FFFFFF80
ENDCHAR
STARTCHAR 005B
ENCODING 91
SWIDTH 336 0
DWIDTH 14 0
BBX 10 38 3 -8
BITMAP
FFC0
FFC0
FFC0
FFC0
FFC0
F800
F800
F800
F800
F800
F800
F800
F800
F800
F800
F800
F800
F800
F800
F800
F800
F800
F800
F800
F800
F800
F800
F800
F800
F800
F800
F800
F800
FFC0
FFC0
FFC0
FFC0
FFC0
ENDCHAR
STARTCHAR 005C
ENCODING 92
SWIDTH 288 0
DWIDTH 12 0
BBX 12 30 0 0
BITMAP
F000
F800
7800
7800
7800
7C00
3C00
3C00
3C00
3E00
1E00
1E00
1E00
1F00
0F00
0F00
0F00
0F80
0780
0780
0780
07C0
03C0
03C0
03C0
03E0
01E0
01E0
01E0
01F0
ENDCHAR
STARTCHAR 005D
ENCODING 93
SWIDTH 336 0
DWIDTH 14 0
BBX 10 38 1 -8
BITMAP
FFC0
FFC0
FFC0
FFC0
FFC0
07C0
07C0
07C0
07C0
07C0
07C0
07C0
07C0
07C0
07C0
07C0
07C0
07C0
07C0
07C0
07C0
07C0
07C0
07C0
07C0
07C0
07C0
07C0
07C0
07C0
07C0
07C0
07C0
FFC0
FFC0
FFC0
FFC0
FFC0
ENDCHAR
STARTCHAR 005E
ENCODING 94
SWIDTH 600 0
DWIDTH 25 0
BBX 19 16 3 15
BITMAP
01F000
03F000
03F800
07F800
07FC00
0FFC00
0FFE00
1FBE00
1F3F00
3F1F00
3F1F80
3E1F80
7E0FC0
7C0FC0
FC07C0
F807E0
ENDCHAR
STARTCHAR 005F
ENCODING 95
SWIDTH 552 0
DWIDTH 23 0
BBX 24 4 0 -8
BITMAP
FFFFFF
FFFFFF
FFFFFF
FFFFFF
ENDCHAR
STARTCHAR 0060
ENCODING 96
SWIDTH 336 0
DWIDTH 14 0
BBX 9 6 1 24
BITMAP
FE00
7E00
3F00
1F00
0F00
0780
ENDCHAR
STARTCHAR 0061
ENCODING 97
SWIDTH 552 0
DWIDTH 23 0
BBX 20 23 2 0
BITMAP
07FC00
1FFF00
3FFF80
7FFFC0
7E0FC0
FC07C0
1C07E0
0007E0
000FE0
01FFE0
0FFFE0
3FFFE0
7FE7E0
FE07E0
FC07E0
F807E0
F807E0
FC0FE0
FE1FE0
FFFFE0
7FFBE0
3FF3E0
0FC3F0
ENDCHAR
STARTCHAR 0062
ENCODING 98
SWIDTH 624 0
DWIDTH 26 0
BBX 21 30 3 0
BITMAP
FC0000
FC0000
FC0000
FC0000
FC0000
FC0000
FC0000
FC7E00
FDFF80
FFFFC0
FFFFE0
FF0FF0
FE03F0
FC03F0
FC01F8
FC01F8
FC01F8
FC01F8
F801F8
FC01F8
FC01F8
FC01F8
FC01F8
FE03F0
FE03F0
FF8FE0
FFFFE0
FBFFC0
F9FF80
F87E00
ENDCHAR
STARTCHAR 0063
ENCODING 99
SWIDTH 552 0
DWIDTH 23 0
BBX 20 23 2 0
BITMAP
01FC00
0FFF80
1FFFC0
3FFFE0
7F07E0
7E03F0
7C0380
FC0000
FC0000
FC0000
FC0000
FC0000
FC0000
FC0000
FC0000
FC0380
7E03F0
7E03F0
7F07E0
3FFFE0
1FFFC0
0FFF80
01FC00
ENDCHAR
STARTCHAR 0064
ENCODING 100
SWIDTH 624 0
DWIDTH 26 0
BBX 21 30 2 0
BITMAP
0001F8
0001F8
0001F8
0001F8
0001F8
0001F8
0001F8
03F1F8
0FFDF8
1FFFF8
3FFFF8
7F0FF8
7E03F8
FE03F8
FC01F8
FC01F8
FC01F8
FC01F8
FC01F8
FC01F8
FC01F8
FC01F8
FC01F8
FE03F8
7E03F8
7F0FF8
3FFFF8
1FFEF8
0FFCF8
03F0F8
ENDCHAR
STARTCHAR 0065
ENCODING 101
SWIDTH 552 0
DWIDTH 23 0
BBX 21 23 1 0
BITMAP
01FC00
07FF00
0FFF80
1FFFC0
3F87E0
3E03E0
7E03F0
7C01F0
7C01F0
FFFFF0
FFFFF8
FFFFF8
FFFFF8
FC0000
7C0000
7E0000
7E03C0
7F03F0
3F87F0
1FFFE0
0FFFC0
07FF80
01FE00
ENDCHAR
STARTCHAR 0066
ENCODING 102
SWIDTH 336 0
DWIDTH 14 0
BBX 14 30 1 0
BITMAP
03F8
0FFC
1FFC
1FFC
1F80
1F80
1F00
1F00
FFF8
FFF8
FFF8
FFF8
1F00
1F00
1F00
1F00
1F00
1F00
1F00
1F00
1F00
1F00
1F00
1F00
1F00
1F00
1F00
1F00
1F00
1F00
ENDCHAR
STARTCHAR 0067
ENCODING 103
SWIDTH 624 0
DWIDTH 26 0
BBX 21 31 2 -8
BITMAP
03F000
0FFCF8
1FFEF8
3FFFF8
7F0FF8
7E03F8
FE03F8
FC01F8
FC01F8
FC01F8
FC01F8
FC01F8
FC01F8
FC01F8
FC01F8
FC01F8
FE03F8
7E03F8
7F0FF8
3FFFF8
1FFFF8
0FFDF8
03F1F8
0001F8
0001F8
F001F0
7E07F0
7FFFF0
3FFFE0
1FFFC0
07FE00
ENDCHAR
STARTCHAR 0068
ENCODING 104
SWIDTH 624 0
DWIDTH 26 0
BBX 20 30 3 0
BITMAP
FC0000
FC0000
FC0000
FC0000
FC0000
FC0000
FC0000
FC7E00
FDFF80
FFFFC0
FFFFE0
FF0FE0
FE07F0
FC03F0
FC03F0
FC03F0
FC03F0
FC03F0
FC03F0
FC03F0
FC03F0
FC03F0
FC03F0
FC03F0
FC03F0
FC03F0
FC03F0
FC03F0
FC03F0
FC03F0
ENDCHAR
STARTCHAR 0069
ENCODING 105
SWIDTH 288 0
DWIDTH 12 0
BBX 6 30 3 0
BITMAP
FC
FC
FC
FC
00
00
00
00
FC
FC
FC
FC
FC
FC
FC
FC
FC
FC
FC
FC
FC
FC
FC
FC
FC
FC
FC
FC
FC
FC
ENDCHAR
STARTCHAR 006A
ENCODING 106
SWIDTH 288 0
DWIDTH 12 0
BBX 11 38 -2 -8
BITMAP
07E0
07E0
07E0
07E0
0000
0000
0000
0000
07E0
07E0
07E0
07E0
07E0
07E0
07E0
07E0
07E0
07E0
07E0
07E0
07E0
07E0
07E0
07E0
07E0
07E0
07E0
07E0
07E0
07E0
07E0
07E0
0FC0
7FC0
7FC0
FFC0
FF80
FE00
ENDCHAR
STARTCHAR 006B
ENCODING 107
SWIDTH 552 0
DWIDTH 23 0
BBX 20 30 3 0
BITMAP
FC0000
FC0000
FC0000
FC0000
FC0000
FC0000
FC0000
FC0000
FC0FE0
FC1FC0
FC3F80
FC7F00
FCFE00
FCFC00
FDF800
FFF000
FFF000
FFF800
FFF800
FFFC00
FFFE00
FE7E00
FC3F00
FC3F00
FC1F80
FC1F80
FC0FC0
FC0FE0
FC07E0
FC07F0
ENDCHAR
STARTCHAR 006C
ENCODING 108
SWIDTH 288 0
DWIDTH 12 0
BBX 6 30 3 0
BITMAP
FC
FC
FC
FC
FC
FC
FC
FC
FC
FC
FC
FC
FC
FC
FC
FC
FC
FC
FC
FC
FC
FC
FC
FC
FC
FC
FC
FC
FC
FC
ENDCHAR
STARTCHAR 006D
ENCODING 109
SWIDTH 888 0
DWIDTH 37 0
BBX 32 23 3 0
BITMAP
007E03E0
F9FF0FF8
FBFFBFFC
FFFFFFFE
FF0FF8FE
FE0FF07E
FC07E03F
FC07E03F
F807E03F
F807E03F
F807E03F
F807E03F
F807E03F
F807E03F
F807E03F
F807E03F
F807E03F
F807E03F
F807E03F
F807E03F
F807E03F
F807E03F
F807E03F
ENDCHAR
STARTCHAR 006E
ENCODING 110
SWIDTH 624 0
DWIDTH 26 0
BBX 20 23 3 0
BITMAP
003E00
F8FF80
F9FFC0
FBFFE0
FF0FE0
FE07F0
FC03F0
FC03F0
FC03F0
FC03F0
FC03F0
FC03F0
FC03F0
FC03F0
FC03F0
FC03F0
FC03F0
FC03F0
FC03F0
FC03F0
FC03F0
FC03F0
FC03F0
ENDCHAR
STARTCHAR 006F
ENCODING 111
SWIDTH 624 0
DWIDTH 26 0
BBX 22 23 2 0
BITMAP
01FC00
07FF80
0FFFC0
1FFFE0
3F87F0
7F03F8
7E01F8
FC00FC
FC00FC
FC00FC
FC00FC
FC00FC
FC00FC
FC00FC
FC00FC
FC00FC
7E01F8
7E03F8
3F87F0
3FFFE0
1FFFC0
07FF80
01FC00
ENDCHAR
STARTCHAR 0070
ENCODING 112
SWIDTH 624 0
DWIDTH 26 0
BBX 21 31 3 -8
BITMAP
007E00
F8FF80
F9FFC0
FBFFE0
FF0FE0
FE03F0
FC03F0
FC01F8
FC01F8
FC01F8
FC01F8
FC01F8
FC01F8
FC01F8
FC01F8
FC01F8
FE03F0
FE03F0
FF8FE0
FFFFE0
FFFFC0
FDFF80
FC7E00
FC0000
FC0000
FC0000
FC0000
FC0000
FC0000
FC0000
FC0000
ENDCHAR
STARTCHAR 0071
ENCODING 113
SWIDTH 624 0
DWIDTH 26 0
BBX 21 31 2 -8
BITMAP
03F000
0FF8F8
1FFCF8
3FFEF8
7F87F8
7E03F8
7E03F8
FC01F8
FC01F8
FC01F8
FC01F8
FC01F8
FC01F8
FC01F8
FC01F8
FC01F8
7E03F8
7E03F8
7F0FF8
3FFFF8
1FFFF8
0FFDF8
03F1F8
0001F8
0001F8
0001F8
0001F8
0001F8
0001F8
0001F8
0001F8
ENDCHAR
STARTCHAR 0072
ENCODING 114
SWIDTH 384 0
DWIDTH 16 0
BBX 14 23 3 0
BITMAP
00F8
F9FC
FBF8
FFF8
FFF8
FF10
FE00
FC00
FC00
FC00
FC00
FC00
FC00
FC00
FC00
FC00
FC00
FC00
FC00
FC00
FC00
FC00
FC00
ENDCHAR
STARTCHAR 0073
ENCODING 115
SWIDTH 552 0
DWIDTH 23 0
BBX 20 23 1 0
BITMAP
03FC00
0FFF80
3FFFC0
3FFFC0
7E0FE0
7C07E0
7C0380
7E0000
7F8000
7FF000
3FFF00
1FFFC0
07FFE0
00FFF0
000FF0
0003F0
1C01F0
FC03F0
7F07F0
7FFFE0
3FFFC0
0FFF80
03FE00
ENDCHAR
STARTCHAR 0074
ENCODING 116
SWIDTH 336 0
DWIDTH 14 0
BBX 12 29 1 0
BITMAP
0100
0700
1F00
3F00
3F00
3F00
3F00
FFF0
FFF0
FFF0
FFF0
3F00
3F00
3F00
3F00
3F00
3F00
3F00
3F00
3F00
3F00
3F00
3F00
3F00
3F80
1FF0
1FF0
0FF0
07F0
ENDCHAR
STARTCHAR 0075
ENCODING 117
SWIDTH 624 0
DWIDTH 26 0
BBX 20 22 3 0
BITMAP
FC03F0
FC03F0
FC03F0
FC03F0
FC03F0
FC03F0
FC03F0
FC03F0
FC03F0
FC03F0
FC03F0
FC03F0
FC03F0
FC03F0
FC03F0
FC07F0
FC07F0
FE1FF0
7FFFF0
7FFFF0
3FFBF0
0FC3F0
ENDCHAR
STARTCHAR 0076
ENCODING 118
SWIDTH 552 0
DWIDTH 23 0
BBX 23 22 0 0
BITMAP
FC007E
7E00FC
7E00FC
3F00F8
3F01F8
3F01F8
1F81F0
1F83F0
0F83F0
0FC7E0
0FC7E0
07C7C0
07EFC0
03EFC0
03EF80
03FF80
01FF00
01FF00
00FF00
00FE00
00FE00
007C00
ENDCHAR
STARTCHAR 0077
ENCODING 119
SWIDTH 792 0
DWIDTH 33 0
BBX 33 22 0 0
BITMAP
FC07E01F80
7C07F01F00
7C07F03F00
7E07F03F00
3E0FF03E00
3E0FF87E00
3F0FF87E00
1F0FF87C00
1F1F787C00
1F1F7CFC00
1F9F7CF800
0F9E7CF800
0FBE3DF800
0FFE3FF000
07FE3FF000
07FC3FF000
07FC1FE000
03FC1FE000
03FC1FE000
03F81FC000
01F80FC000
01F80FC000
ENDCHAR
STARTCHAR 0078
ENCODING 120
SWIDTH 552 0
DWIDTH 23 0
BBX 22 22 1 0
BITMAP
FE03F8
7F03F0
7F07F0
3F8FE0
1F9FC0
1FDF80
0FFF80
07FF00
03FE00
03FE00
01FC00
01FE00
03FE00
07FF00
0FFF80
0FDF80
1FDFC0
3F8FE0
3F07F0
7F07F0
FE03F8
FC01FC
ENDCHAR
STARTCHAR 0079
ENCODING 121
SWIDTH 552 0
DWIDTH 23 0
BBX 23 30 0 -8
BITMAP
FE007E
7E00FC
7E00FC
3F00F8
3F01F8
3F01F8
1F81F0
1F83F0
1F83F0
0FC3E0
0FC7E0
07C7E0
07E7C0
07EFC0
03EF80
03FF80
01FF80
01FF00
01FF00
00FF00
00FE00
00FE00
00FC00
00FC00
01FC00
03F800
3FF800
3FF000
3FE000
3F8000
ENDCHAR
STARTCHAR 007A
ENCODING 122
SWIDTH 504 0
DWIDTH 21 0
BBX 19 22 1 0
BITMAP
FFFFE0
FFFFE0
FFFFE0
FFFFE0
003FC0
003F80
007F80
00FF00
01FE00
03FC00
03F800
07F800
0FF000
1FE000
3FC000
3F8000
7F8000
FF0000
FFFFE0
FFFFE0
FFFFE0
FFFFE0
ENDCHAR
STARTCHAR 007B
ENCODING 123
SWIDTH 384 0
DWIDTH 16 0
BBX 14 38 1 -8
BITMAP
007C
01FC
03FC
07FC
07FC
07E0
07C0
07C0
07C0
07C0
07C0
07C0
07C0
0FC0
0FC0
0F80
1F80
FF00
FE00
FE00
FF00
3F80
0F80
0FC0
0FC0
07C0
07C0
07C0
07C0
07C0
07C0
07C0
07E0
07FC
07FC
03FC
01FC
007C
ENDCHAR
STARTCHAR 007C
ENCODING 124
SWIDTH 288 0
DWIDTH 12 0
BBX 4 39 4 -9
BITMAP
F0
F0
F0
F0
F0
F0
F0
F0
F0
F0
F0
F0
F0
F0
F0
F0
F0
F0
F0
F0
F0
F0
F0
F0
F0
F0
F0
F0
F0
F0
F0
F0
F0
F0
F0
F0
F0
F0
F0
ENDCHAR
STARTCHAR 007D
ENCODING 125
SWIDTH 384 0
DWIDTH 16 0
BBX 14 38 1 -8
BITMAP
F800
FE00
FF00
FF80
FF80
1F80
0F80
0F80
0F80
0F80
0F80
0F80
0FC0
0FC0
07C0
07C0
07F0
03FC
01FC
01FC
03FC
07F0
07E0
07C0
0FC0
0FC0
0F80
0F80
0F80
0F80
0F80
0F80
1F80
FF80
FF80
FF00
FE00
F800
ENDCHAR
STARTCHAR 007E
ENCODING 126
SWIDTH 600 0
DWIDTH 25 0
BBX 22 8 1 11
BITMAP
0F8004
3FF00C
7FFC1C
FFFFFC
FFFFFC
F0FFFC
C01FF0
8007E0
ENDCHAR
STARTCHAR 00A0
ENCODING 160
SWIDTH 288 0
DWIDTH 12 0
BBX 0 0 0 0
BITMAP
ENDCHAR
STARTCHAR 00A1
ENCODING 161
SWIDTH 336 0
DWIDTH 14 0
BBX 6 30 4 -8
BITMAP
FC
FC
FC
FC
FC
FC
00
00
78
78
78
78
78
78
78
78
7C
7C
FC
FC
FC
FC
FC
FC
FC
FC
FC
FC
FC
FC
ENDCHAR
STARTCHAR 00A2
ENCODING 162
SWIDTH 552 0
DWIDTH 23 0
BBX 20 38 2 -8
BITMAP
000300
000380
000380
000700
000700
000700
000E00
01FE00
0FFE00
1FFF80
3FFFC0
7F1FE0
7E1FF0
FC3B80
FC3800
FC3800
FC7000
FC7000
FC7000
FC6000
FCE000
FCE000
FCC380
7FC3F0
7FC3F0
7FC7E0
3FFFE0
1FFFC0
0FFF00
07FC00
070000
070000
060000
0E0000
0E0000
0C0000
1C0000
0C0000
ENDCHAR
STARTCHAR 00A3
ENCODING 163
SWIDTH 552 0
DWIDTH 23 0
BBX 22 30 0 0
BITMAP
007F00
03FFC0
07FFE0
0FFFF0
0FC3F8
1F81F8
1F00F8
1F00F0
1F0000
1F0000
1F8000
1F8000
1F8000
FFFF00
FFFF00
FFFF00
FFFF00
07C000
07C000
0FC000
0FC000
0F8000
1F8000
3F0000
7FF008
FFFC38
7FFFFC
7FFFFC
383FFC
2003F0
ENDCHAR
STARTCHAR 00A4
ENCODING 164
SWIDTH 552 0
DWIDTH 23 0
BBX 21 22 1 2
BITMAP
100040
3800E0
7DFCF0
FFFFF8
7FFFF8
3FFFE0
3F8FE0
3F03E0
3E03E0
3E01F0
3C01F0
3C01F0
3E01F0
3E03E0
3F03E0
3F8FE0
3FFFE0
7FFFF8
FFFFF8
7DFCF0
3800E0
100040
ENDCHAR
STARTCHAR 00A5
ENCODING 165
SWIDTH 552 0
DWIDTH 23 0
BBX 23 30 0 0
BITMAP
FE007E
7E00FC
7F00FC
3F01F8
3F01F8
1F83F0
1F83F0
0FC7E0
0FC7E0
07EFC0
07EFC0
03FF80
03FF80
7FFFFC
7FFFFC
7FFFFC
7FFFFC
007C00
007C00
7FFFFC
7FFFFC
7FFFFC
7FFFFC
007C00
007C00
007C00
007C00
007C00
007C00
007C00
ENDCHAR
STARTCHAR 00A6
ENCODING 166
SWIDTH 288 0
DWIDTH 12 0
BBX 4 39 4 -9
BITMAP
F0
F0
F0
F0
F0
F0
F0
F0
F0
F0
F0
F0
F0
F0
F0
F0
00
00
00
00
00
00
00
F0
F0
F0
F0
F0
F0
F0
F0
F0
F0
F0
F0
F0
F0
F0
F0
ENDCHAR
STARTCHAR 00A7
ENCODING 167
SWIDTH 552 0
DWIDTH 23 0
BBX 21 39 1 -9
BITMAP
01FC00
07FF00
1FFF80
1FFFC0
3F8FC0
3F07E0
3F03E0
3F0000
3F8000
1FC000
1FF000
1FFC00
3FFE00
7FFF80
7CFFC0
FC3FE0
F81FF0
FC0FF0
FC03F8
FE01F8
7F00F8
7FC0F8
3FE0F8
1FF9F0
0FFFF0
03FFE0
01FFC0
007FC0
003FE0
000FE0
0007E0
7E03F0
3E03F0
3F03E0
3F87E0
1FFFE0
0FFFC0
07FF80
01FE00
ENDCHAR
STARTCHAR 00A8
ENCODING 168
SWIDTH 336 0
DWIDTH 14 0
BBX 14 4 0 26
BITMAP
F87C
F87C
F87C
F87C
ENDCHAR
STARTCHAR 00A9
ENCODING 169
SWIDTH 744 0
DWIDTH 31 0
BBX 31 30 0 0
BITMAP
001FF000
007FFC00
01FFFF00
07F01FC0
0F8003E0
1F0001F0
1E0000F0
3C07C078
781FF03C
703FF81C
707C7C1C
E0F01C0E
E0F01C0E
E0F0000E
E0E0000E
E0E0000E
E0F0000E
E0F01C0E
E0F01C0E
707C7C1C
703FF81C
781FF03C
3C07C078
1E0000F8
1F0001F0
0F8003E0
07F01FC0
01FFFF00
007FFC00
001FF000
ENDCHAR
STARTCHAR 00AA
ENCODING 170
SWIDTH 384 0
DWIDTH 16 0
BBX 13 16 1 14
BITMAP
0FC0
3FF0
7FF0
78F8
F078
0078
07F8
3FF8
7FF8
F878
F078
F0F8
F8F8
FFF8
7FF8
3E78
ENDCHAR
STARTCHAR 00AB
ENCODING 171
SWIDTH 552 0
DWIDTH 23 0
BBX 19 19 2 1
BITMAP
03E3E0
07C7C0
07C7C0
0F8F80
1F1F00
1F1F00
3E3E00
7E7E00
7C7C00
FCFC00
7C7C00
7E7E00
3E3E00
1F1F00
1F1F80
0F8F80
07C7C0
07C7C0
03E3E0
ENDCHAR
STARTCHAR 00AC
ENCODING 172
SWIDTH 600 0
DWIDTH 25 0
BBX 21 14 2 8
BITMAP
FFFFF8
FFFFF8
FFFFF8
FFFFF8
FFFFF8
0001F8
0001F8
0001F8
0001F8
0001F8
0001F8
0001F8
0001F8
0001F8
ENDCHAR
STARTCHAR 00AD
ENCODING 173
SWIDTH 336 0
DWIDTH 14 0
BBX 12 5 2 8
BITMAP
FFF0
FFF0
FFF0
FFF0
FFF0
ENDCHAR
STARTCHAR 00AE
ENCODING 174
SWIDTH 744 0
DWIDTH 31 0
BBX 31 30 0 0
BITMAP
001FF000
007FFC00
01FFFF00
07F01FC0
0F8003E0
1F0001F0
1E0000F0
3CFFE078
78FFF83C
70FFF81C
70F07C1C
E0F03C0E
E0F03C0E
E0F0780E
E0FFF80E
E0FFE00E
E0FFC00E
E0F1E00E
E0F0F00E
70F0781C
70F0781C
78F03C3C
3CF03E78
1E0000F8
1F0001F0
0F8003E0
07F01FC0
01FFFF00
007FFC00
001FF000
ENDCHAR
STARTCHAR 00AF
ENCODING 175
SWIDTH 552 0
DWIDTH 23 0
BBX 24 4 0 32
BITMAP
FFFFFF
FFFFFF
FFFFFF
FFFFFF
ENDCHAR
STARTCHAR 00B0
ENCODING 176
SWIDTH 408 0
DWIDTH 17 0
BBX 13 13 2 17
BITMAP
0F80
3FC0
7FE0
F8F0
F078
E078
E078
E078
F078
F8F0
7FE0
3FE0
0F80
ENDCHAR
STARTCHAR 00B1
ENCODING 177
SWIDTH 552 0
DWIDTH 23 0
BBX 21 28 1 0
BITMAP
00F800
00F800
00F800
00F800
00F800
00F800
00F800
00F800
FFFFF8
FFFFF8
FFFFF8
FFFFF8
FFFFF8
00F800
00F800
00F800
00F800
00F800
00F800
00F800
00F800
000000
000000
FFFFF8
FFFFF8
FFFFF8
FFFFF8
FFFFF8
ENDCHAR
STARTCHAR 00B2
ENCODING 178
SWIDTH 336 0
DWIDTH 14 0
BBX 12 16 1 14
BITMAP
1F80
7FE0
7FE0
F0F0
F0F0
00F0
01F0
03E0
07E0
0FC0
1F00
3E00
7C00
FFF0
FFF0
FFF0
ENDCHAR
STARTCHAR 00B3
ENCODING 179
SWIDTH 336 0
DWIDTH 14 0
BBX 12 16 1 14
BITMAP
1F00
7FC0
7FE0
F1E0
F1E0
01E0
07C0
0FC0
0FE0
01F0
00F0
F0F0
F1F0
7FE0
7FC0
1F80
ENDCHAR
STARTCHAR 00B4
ENCODING 180
SWIDTH 336 0
DWIDTH 14 0
BBX 9 6 4 24
BITMAP
3F80
3F00
7E00
7C00
7800
F000
ENDCHAR
STARTCHAR 00B5
ENCODING 181
SWIDTH 576 0
DWIDTH 24 0
BBX 20 30 2 -8
BITMAP
FC03F0
FC03F0
FC03F0
FC03F0
FC03F0
FC03F0
FC03F0
FC03F0
FC03F0
FC03F0
FC03F0
FC03F0
FC03F0
FC03F0
FC03F0
FE03F0
FE07F0
FF0FF0
FFFFF0
FFFFF0
FDFDF0
FCF1F0
FC0000
FC0000
FC0000
FC0000
FC0000
FC0000
FC0000
FC0000
ENDCHAR
STARTCHAR 00B6
ENCODING 182
SWIDTH 552 0
DWIDTH 23 0
BBX 23 38 0 -8
BITMAP
07FFFE
1FFFFE
3FFFFE
7FFFFE
7FF8F8
FFF8F8
FFF8F8
FFF8F8
FFF8F8
FFF8F8
FFF8F8
FFF8F8
7FF8F8
7FF8F8
3FF8F8
1FF8F8
07F8F8
00F8F8
00F8F8
00F8F8
00F8F8
00F8F8
00F8F8
00F8F8
00F8F8
00F8F8
00F8F8
00F8F8
00F8F8
00F8F8
00F8F8
00F8F8
00F8F8
00F8F8
00F8F8
00F8F8
00F8F8
00F8F8
ENDCHAR
STARTCHAR 00B7
ENCODING 183
SWIDTH 336 0
DWIDTH 14 0
BBX 6 6 4 12
BITMAP
FC
FC
FC
FC
FC
FC
ENDCHAR
STARTCHAR 00B8
ENCODING 184
SWIDTH 336 0
DWIDTH 14 0
BBX 11 8 1 -8
BITMAP
3F80
3FC0
03E0
01E0
01E0
03C0
FFC0
FE00
ENDCHAR
STARTCHAR 00B9
ENCODING 185
SWIDTH 336 0
DWIDTH 14 0
BBX 8 16 2 14
BITMAP
07
0F
1F
7F
FF
FF
8F
0F
0F
0F
0F
0F
0F
0F
0F
0F
ENDCHAR
STARTCHAR 00BA
ENCODING 186
SWIDTH 360 0
DWIDTH 15 0
BBX 14 16 1 14
BITMAP
0F80
3FE0
7FF0
78F8
F078
F078
F07C
F07C
F07C
F07C
F07C
F078
F8F8
7FF0
3FE0
0FC0
ENDCHAR
STARTCHAR 00BB
ENCODING 187
SWIDTH 552 0
DWIDTH 23 0
BBX 19 19 2 1
BITMAP
F8F800
7C7C00
3C3C00
3E3E00
1F1F00
1F1F00
0F8F80
0FCFC0
07C7C0
07E7E0
07E7E0
0FCFC0
0F8F80
1F9F80
1F1F00
3E3E00
3C3C00
7C7C00
F8F800
ENDCHAR
STARTCHAR 00BC
ENCODING 188
SWIDTH 840 0
DWIDTH 35 0
BBX 33 30 2 0
BITMAP
070003C000
0F00038000
1F00078000
7F00070000
FF000E0000
FF000E0000
CF001C0000
0F003C0000
0F00380000
0F00700000
0F00700000
0F00E00000
0F01E00000
0F01C00000
0F03801C00
0F03803C00
0007007C00
000F00FC00
000E00FC00
001C01FC00
001C03DC00
0038079C00
0078071C00
00700E1C00
00F01FFF80
00E01FFF80
01C01FFF80
03C0001C00
0380001C00
0780001C00
ENDCHAR
STARTCHAR 00BD
ENCODING 189
SWIDTH 840 0
DWIDTH 35 0
BBX 32 30 2 0
BITMAP
070003C0
0F000380
1F000780
7F000700
FF000E00
FF000E00
CF001C00
0F003C00
0F003800
0F007000
0F007000
0F00E000
0F01E000
0F01C000
0F0381F8
0F0387FE
000707FE
000F0F0F
000E0F0F
001C000F
001C001F
0038003E
0078007C
007000FC
00F001F0
00E003E0
01C007C0
03C00FFF
03800FFF
07800FFF
ENDCHAR
STARTCHAR 00BE
ENCODING 190
SWIDTH 840 0
DWIDTH 35 0
BBX 34 30 1 0
BITMAP
1F0000E000
7FC001E000
7FE001C000
F1E0038000
F1E0038000
01E0070000
07C00F0000
0FC00E0000
0FE01C0000
01F01C0000
00F0380000
F0F0780000
F1F0700000
7FE0F00000
7FC0E00E00
1F81C01E00
0003C03E00
0003807E00
0007807E00
000700FE00
000E01EE00
000E03CE00
001C038E00
003C070E00
00380FFFC0
00700FFFC0
00700FFFC0
00E0000E00
01E0000E00
01C0000E00
ENDCHAR
STARTCHAR 00BF
ENCODING 191
SWIDTH 624 0
DWIDTH 26 0
BBX 22 30 2 -8
BITMAP
00FC00
00FC00
00FC00
00FC00
00FC00
00FC00
000000
000000
00FC00
00FC00
00FC00
00F800
01F800
03F800
07F000
1FE000
3FC000
3F8000
7F0000
FE0000
FC0000
FC0000
FC00FC
FC00F8
7E01F8
7F07F0
3FFFF0
1FFFE0
0FFF80
01FE00
ENDCHAR
STARTCHAR 00C0
ENCODING 192
SWIDTH 720 0
DWIDTH 30 0
BBX 30 39 0 0
BITMAP
007F0000
003F0000
001F8000
000F8000
00078000
0003C000
00000000
00000000
00000000
001FC000
001FE000
001FE000
003FF000
003FF000
003FF000
007DF800
007CF800
00FCFC00
00F8FC00
00F87C00
01F87E00
01F87E00
03F03F00
03F03F00
03F03F00
07E01F80
07E01F80
0FFFFFC0
0FFFFFC0
0FFFFFC0
1FFFFFE0
1FFFFFE0
1F8007F0
3F0007F0
3F0003F0
7F0003F8
7E0001F8
7E0001FC
FE0001FC
ENDCHAR
STARTCHAR 00C1
ENCODING 193
SWIDTH 720 0
DWIDTH 30 0
BBX 30 39 0 0
BITMAP
0003F800
0003F000
0007E000
0007C000
00078000
000F0000
00000000
00000000
00000000
001FC000
001FE000
001FE000
003FF000
003FF000
003FF000
007DF800
007CF800
00FCFC00
00F8FC00
00F87C00
01F87E00
01F87E00
03F03F00
03F03F00
03F03F00
07E01F80
07E01F80
0FFFFFC0
0FFFFFC0
0FFFFFC0
1FFFFFE0
1FFFFFE0
1F8007F0
3F0007F0
3F0003F0
7F0003F8
7E0001F8
7E0001FC
FE0001FC
ENDCHAR
STARTCHAR 00C2
ENCODING 194
SWIDTH 720 0
DWIDTH 30 0
BBX 30 39 0 0
BITMAP
000FC000
001FE000
001FE000
003FF000
007CF800
00F87C00
00000000
00000000
00000000
001FC000
001FE000
001FE000
003FF000
003FF000
003FF000
007DF800
007CF800
00FCFC00
00F8FC00
00F87C00
01F87E00
01F87E00
03F03F00
03F03F00
03F03F00
07E01F80
07E01F80
0FFFFFC0
0FFFFFC0
0FFFFFC0
1FFFFFE0
1FFFFFE0
1F8007F0
3F0007F0
3F0003F0
7F0003F8
7E0001F8
7E0001FC
FE0001FC
ENDCHAR
STARTCHAR 00C3
ENCODING 195
SWIDTH 720 0
DWIDTH 30 0
BBX 30 38 0 0
BITMAP
003C1C00
00FF1C00
00FFFC00
00E3F800
00C0F000
00000000
00000000
00000000
001FC000
001FE000
001FE000
003FF000
003FF000
003FF000
007DF800
007CF800
00FCFC00
00F8FC00
00F87C00
01F87E00
01F87E00
03F03F00
03F03F00
03F03F00
07E01F80
07E01F80
0FFFFFC0
0FFFFFC0
0FFFFFC0
1FFFFFE0
1FFFFFE0
1F8007F0
3F0007F0
3F0003F0
7F0003F8
7E0001F8
7E0001FC
FE0001FC
ENDCHAR
STARTCHAR 00C4
ENCODING 196
SWIDTH 720 0
DWIDTH 30 0
BBX 30 37 0 0
BITMAP
00F87C00
00F87C00
00F87C00
00F87C00
00000000
00000000
00000000
001FC000
001FE000
001FE000
003FF000
003FF000
003FF000
007DF800
007CF800
00FCFC00
00F8FC00
00F87C00
01F87E00
01F87E00
03F03F00
03F03F00
03F03F00
07E01F80
07E01F80
0FFFFFC0
0FFFFFC0
0FFFFFC0
1FFFFFE0
1FFFFFE0
1F8007F0
3F0007F0
3F0003F0
7F0003F8
7E0001F8
7E0001FC
FE0001FC
ENDCHAR
STARTCHAR 00C5
ENCODING 197
SWIDTH 720 0
DWIDTH 30 0
BBX 30 36 0 0
BITMAP
00078000
000FC000
001CE000
00186000
00186000
001CE000
001FC000
001FE000
001FE000
003FF000
003FF000
003FF000
007DF800
007CF800
00FCFC00
00F8FC00
00F87C00
01F87E00
01F87E00
03F03F00
03F03F00
03F03F00
07E01F80
07E01F80
0FFFFFC0
0FFFFFC0
0FFFFFC0
1FFFFFE0
1FFFFFE0
1F8007F0
3F0007F0
3F0003F0
7F0003F8
7E0001F8
7E0001FC
FE0001FC
ENDCHAR
STARTCHAR 00C6
ENCODING 198
SWIDTH 1008 0
DWIDTH 42 0
BBX 42 30 -2 0
BITMAP
0003FFFFFF80
0003FFFFFF80
0007FFFFFF80
0007FFFFFF80
000FC7FFFF80
000FC7E00000
001F87E00000
001F87E00000
003F07E00000
003F07E00000
007E07E00000
007E07E00000
00FE07FFFF00
00FC07FFFF00
01FC07FFFF00
01F807FFFF00
01F807FFFF00
03F807E00000
03FFFFE00000
07FFFFE00000
07FFFFE00000
0FFFFFE00000
0FFFFFE00000
1FC00FE00000
1F800FE00000
3F800FFFFFC0
3F800FFFFFC0
7F000FFFFFC0
7F000FFFFFC0
FE000FFFFFC0
ENDCHAR
STARTCHAR 00C7
ENCODING 199
SWIDTH 720 0
DWIDTH 30 0
BBX 26 38 2 -8
BITMAP
003FC000
01FFF000
03FFFC00
0FFFFE00
1FFFFF00
1FE0FF80
3F803F80
7F001FC0
7F000FC0
7E000E00
FE000000
FE000000
FC000000
FC000000
FC000000
FC000000
FC000000
FC000000
FE000000
FE000C00
7E000F80
7E001FC0
7F001FC0
3F803F80
3FE0FF80
1FFFFF00
0FFFFE00
07FFFC00
01FFF000
003FC000
003F8000
003FC000
0003E000
0001E000
0001E000
0003C000
00FFC000
00FE0000
ENDCHAR
STARTCHAR 00C8
ENCODING 200
SWIDTH 672 0
DWIDTH 28 0
BBX 23 39 3 0
BITMAP
03F800
01F800
00FC00
007C00
003C00
001E00
000000
000000
000000
FFFFFC
FFFFFC
FFFFFC
FFFFFC
FFFFFC
FC0000
FC0000
FC0000
FC0000
FC0000
FC0000
FC0000
FFFFF8
FFFFF8
FFFFF8
FFFFF8
FFFFF8
FC0000
FC0000
FC0000
FC0000
FC0000
FC0000
FC0000
FC0000
FFFFFE
FFFFFE
FFFFFE
FFFFFE
FFFFFE
ENDCHAR
STARTCHAR 00C9
ENCODING 201
SWIDTH 672 0
DWIDTH 28 0
BBX 23 39 3 0
BITMAP
003F80
003F00
007E00
007C00
007800
00F000
000000
000000
000000
FFFFFC
FFFFFC
FFFFFC
FFFFFC
FFFFFC
FC0000
FC0000
FC0000
FC0000
FC0000
FC0000
FC0000
FFFFF8
FFFFF8
FFFFF8
FFFFF8
FFFFF8
FC0000
FC0000
FC0000
FC0000
FC0000
FC0000
FC0000
FC0000
FFFFFE
FFFFFE
FFFFFE
FFFFFE
FFFFFE
ENDCHAR
STARTCHAR 00CA
ENCODING 202
SWIDTH 672 0
DWIDTH 28 0
BBX 23 39 3 0
BITMAP
00FC00
01FE00
01FE00
03FF00
07CF80
0F87C0
000000
000000
000000
FFFFFC
FFFFFC
FFFFFC
FFFFFC
FFFFFC
FC0000
FC0000
FC0000
FC0000
FC0000
FC0000
FC0000
FFFFF8
FFFFF8
FFFFF8
FFFFF8
FFFFF8
FC0000
FC0000
FC0000
FC0000
FC0000
FC0000
FC0000
FC0000
FFFFFE
FFFFFE
FFFFFE
FFFFFE
FFFFFE
ENDCHAR
STARTCHAR 00CB
ENCODING 203
SWIDTH 672 0
DWIDTH 28 0
BBX 23 37 3 0
BITMAP
0F87C0
0F87C0
0F87C0
0F87C0
000000
000000
000000
FFFFFC
FFFFFC
FFFFFC
FFFFFC
FFFFFC
FC0000
FC0000
FC0000
FC0000
FC0000
FC0000
FC0000
FFFFF8
FFFFF8
FFFFF8
FFFFF8
FFFFF8
FC0000
FC0000
FC0000
FC0000
FC0000
FC0000
FC0000
FC0000
FFFFFE
FFFFFE
FFFFFE
FFFFFE
FFFFFE
ENDCHAR
STARTCHAR 00CC
ENCODING 204
SWIDTH 288 0
DWIDTH 12 0
BBX 9 39 0 0
BITMAP
FE00
7E00
3F00
1F00
0F00
0780
0000
0000
0000
1F80
1F80
1F80
1F80
1F80
1F80
1F80
1F80
1F80
1F80
1F80
1F80
1F80
1F80
1F80
1F80
1F80
1F80
1F80
1F80
1F80
1F80
1F80
1F80
1F80
1F80
1F80
1F80
1F80
1F80
ENDCHAR
STARTCHAR 00CD
ENCODING 205
SWIDTH 288 0
DWIDTH 12 0
BBX 9 39 2 0
BITMAP
3F80
3F00
7E00
7C00
7800
F000
0000
0000
0000
7E00
7E00
7E00
7E00
7E00
7E00
7E00
7E00
7E00
7E00
7E00
7E00
7E00
7E00
7E00
7E00
7E00
7E00
7E00
7E00
7E00
7E00
7E00
7E00
7E00
7E00
7E00
7E00
7E00
7E00
ENDCHAR
STARTCHAR 00CE
ENCODING 206
SWIDTH 288 0
DWIDTH 12 0
BBX 14 39 -1 0
BITMAP
0FC0
1FE0
1FE0
3FF0
7CF8
F87C
0000
0000
0000
0FC0
0FC0
0FC0
0FC0
0FC0
0FC0
0FC0
0FC0
0FC0
0FC0
0FC0
0FC0
0FC0
0FC0
0FC0
0FC0
0FC0
0FC0
0FC0
0FC0
0FC0
0FC0
0FC0
0FC0
0FC0
0FC0
0FC0
0FC0
0FC0
0FC0
ENDCHAR
STARTCHAR 00CF
ENCODING 207
SWIDTH 288 0
DWIDTH 12 0
BBX 14 37 -1 0
BITMAP
F87C
F87C
F87C
F87C
0000
0000
0000
0FC0
0FC0
0FC0
0FC0
0FC0
0FC0
0FC0
0FC0
0FC0
0FC0
0FC0
0FC0
0FC0
0FC0
0FC0
0FC0
0FC0
0FC0
0FC0
0FC0
0FC0
0FC0
0FC0
0FC0
0FC0
0FC0
0FC0
0FC0
0FC0
0FC0
ENDCHAR
STARTCHAR 00D0
ENCODING 208
SWIDTH 720 0
DWIDTH 30 0
BBX 28 30 0 0
BITMAP
1FFFE000
1FFFFC00
1FFFFE00
1FFFFF80
1FFFFF80
1F803FC0
1F801FE0
1F800FE0
1F8007E0
1F8007F0
1F8003F0
1F8003F0
1F8003F0
FFFF03F0
FFFF03F0
FFFF03F0
FFFF03F0
1F8003F0
1F8003F0
1F8003F0
1F8007F0
1F8007E0
1F8007E0
1F800FE0
1F803FC0
1FFFFF80
1FFFFF80
1FFFFF00
1FFFFC00
1FFFE000
ENDCHAR
STARTCHAR 00D1
ENCODING 209
SWIDTH 720 0
DWIDTH 30 0
BBX 24 38 3 0
BITMAP
01E0E0
07F8E0
07FFE0
071FC0
060780
000000
000000
000000
FC003F
FE003F
FE003F
FF003F
FF803F
FF803F
FFC03F
FFC03F
FFE03F
FFE03F
FDF03F
FDF83F
FCF83F
FCFC3F
FC7C3F
FC3E3F
FC3E3F
FC1F3F
FC1FBF
FC0FBF
FC0FFF
FC07FF
FC03FF
FC03FF
FC01FF
FC01FF
FC00FF
FC00FF
FC007F
FC003F
ENDCHAR
STARTCHAR 00D2
ENCODING 210
SWIDTH 792 0
DWIDTH 33 0
BBX 29 39 2 0
BITMAP
00FE0000
007E0000
003F0000
001F0000
000F0000
00078000
00000000
00000000
00000000
003FE000
01FFF800
07FFFE00
0FFFFF00
1FFFFF80
3FE07FC0
3F801FE0
7F000FE0
7F0007F0
7E0003F0
FE0003F0
FC0003F8
FC0001F8
FC0001F8
FC0001F8
FC0001F8
FC0001F8
FC0003F8
FC0003F8
FE0003F8
7E0003F0
7F0007F0
7F000FF0
3FC01FE0
3FF07FC0
1FFFFFC0
0FFFFF80
07FFFE00
01FFFC00
003FE000
ENDCHAR
STARTCHAR 00D3
ENCODING 211
SWIDTH 792 0
DWIDTH 33 0
BBX 29 39 2 0
BITMAP
0007F000
0007E000
000FC000
000F8000
000F0000
001E0000
00000000
00000000
00000000
003FE000
01FFF800
07FFFE00
0FFFFF00
1FFFFF80
3FE07FC0
3F801FE0
7F000FE0
7F0007F0
7E0003F0
FE0003F0
FC0003F8
FC0001F8
FC0001F8
FC0001F8
FC0001F8
FC0001F8
FC0003F8
FC0003F8
FE0003F8
7E0003F0
7F0007F0
7F000FF0
3FC01FE0
3FF07FC0
1FFFFFC0
0FFFFF80
07FFFE00
01FFFC00
003FE000
ENDCHAR
STARTCHAR 00D4
ENCODING 212
SWIDTH 792 0
DWIDTH 33 0
BBX 29 39 2 0
BITMAP
001F8000
003FC000
003FC000
007FE000
00F9F000
01F0F800
00000000
00000000
00000000
003FE000
01FFF800
07FFFE00
0FFFFF00
1FFFFF80
3FE07FC0
3F801FE0
7F000FE0
7F0007F0
7E0003F0
FE0003F0
FC0003F8
FC0001F8
FC0001F8
FC0001F8
FC0001F8
FC0001F8
FC0003F8
FC0003F8
FE0003F8
7E0003F0
7F0007F0
7F000FF0
3FC01FE0
3FF07FC0
1FFFFFC0
0FFFFF80
07FFFE00
01FFFC00
003FE000
ENDCHAR
STARTCHAR 00D5
ENCODING 213
SWIDTH 792 0
DWIDTH 33 0
BBX 29 38 2 0
BITMAP
00783800
01FE3800
01FFF800
01C7F000
0181E000
00000000
00000000
00000000
003FE000
01FFF800
07FFFE00
0FFFFF00
1FFFFF80
3FE07FC0
3F801FE0
7F000FE0
7F0007F0
7E0003F0
FE0003F0
FC0003F8
FC0001F8
FC0001F8
FC0001F8
FC0001F8
FC0001F8
FC0003F8
FC0003F8
FE0003F8
7E0003F0
7F0007F0
7F000FF0
3FC01FE0
3FF07FC0
1FFFFFC0
0FFFFF80
07FFFE00
01FFFC00
003FE000
ENDCHAR
STARTCHAR 00D6
ENCODING 214
SWIDTH 792 0
DWIDTH 33 0
BBX 29 37 2 0
BITMAP
01F0F800
01F0F800
01F0F800
01F0F800
00000000
00000000
00000000
003FE000
01FFF800
07FFFE00
0FFFFF00
1FFFFF80
3FE07FC0
3F801FE0
7F000FE0
7F0007F0
7E0003F0
FE0003F0
FC0003F8
FC0001F8
FC0001F8
FC0001F8
FC0001F8
FC0001F8
FC0003F8
FC0003F8
FE0003F8
7E0003F0
7F0007F0
7F000FF0
3FC01FE0
3FF07FC0
1FFFFFC0
0FFFFF80
07FFFE00
01FFFC00
003FE000
ENDCHAR
STARTCHAR 00D7
ENCODING 215
SWIDTH 600 0
DWIDTH 25 0
BBX 20 20 2 5
BITMAP
000080
1801C0
7C03E0
FE07F0
7F0FE0
3F9FC0
1FFF80
0FFF00
07FE00
03FC00
03FC00
07FE00
0FFF00
1FFF80
3F9FC0
3F0FE0
7E07F0
7C03E0
3801C0
100080
ENDCHAR
STARTCHAR 00D8
ENCODING 216
SWIDTH 792 0
DWIDTH 33 0
BBX 31 32 1 0
BITMAP
00000018
001FF03E
00FFFE7C
01FFFFF8
07FFFFF0
0FFFFFE0
0FF01FF0
1FC007F0
3F800FF8
3F801FF8
3F003FF8
7F007DFC
7E00F9FC
7E01F0FC
7E03E0FC
7E07C0FC
7E0F80FC
7E0F80FC
7E1F01FC
7E3E01FC
7F7C01F8
7FF801F8
3FF003F8
3FE007F0
1FC00FF0
1FF03FE0
0FFFFFC0
1FFFFF80
3FFFFF00
7CFFFE00
F81FF000
30000000
ENDCHAR
STARTCHAR 00D9
ENCODING 217
SWIDTH 720 0
DWIDTH 30 0
BBX 24 39 3 0
BITMAP
03F800
01F800
00FC00
007C00
003C00
001E00
000000
000000
000000
FC003F
FC003F
FC003F
FC003F
FC003F
FC003F
FC003F
FC003F
FC003F
FC003F
FC003F
FC003F
FC003F
FC003F
FC003F
FC003F
FC003F
FC003F
FC003F
FC003F
FC003F
FC003F
FE007F
7F007E
7F81FE
3FFFFE
3FFFFC
1FFFF8
07FFE0
01FF80
ENDCHAR
STARTCHAR 00DA
ENCODING 218
SWIDTH 720 0
DWIDTH 30 0
BBX 24 39 3 0
BITMAP
003F80
003F00
007E00
007C00
007800
00F000
000000
000000
000000
FC003F
FC003F
FC003F
FC003F
FC003F
FC003F
FC003F
FC003F
FC003F
FC003F
FC003F
FC003F
FC003F
FC003F
FC003F
FC003F
FC003F
FC003F
FC003F
FC003F
FC003F
FC003F
FE007F
7F007E
7F81FE
3FFFFE
3FFFFC
1FFFF8
07FFE0
01FF80
ENDCHAR
STARTCHAR 00DB
ENCODING 219
SWIDTH 720 0
DWIDTH 30 0
BBX 24 39 3 0
BITMAP
007E00
00FF00
00FF00
01FF80
03E7C0
07C3E0
000000
000000
000000
FC003F
FC003F
FC003F
FC003F
FC003F
FC003F
FC003F
FC003F
FC003F
FC003F
FC003F
FC003F
FC003F
FC003F
FC003F
FC003F
FC003F
FC003F
FC003F
FC003F
FC003F
FC003F
FE007F
7F007E
7F81FE
3FFFFE
3FFFFC
1FFFF8
07FFE0
01FF80
ENDCHAR
STARTCHAR 00DC
ENCODING 220
SWIDTH 720 0
DWIDTH 30 0
BBX 24 37 3 0
BITMAP
07C3E0
07C3E0
07C3E0
07C3E0
000000
000000
000000
FC003F
FC003F
FC003F
FC003F
FC003F
FC003F
FC003F
FC003F
FC003F
FC003F
FC003F
FC003F
FC003F
FC003F
FC003F
FC003F
FC003F
FC003F
FC003F
FC003F
FC003F
FC003F
FE007F
7F007E
7F81FE
3FFFFE
3FFFFC
1FFFF8
07FFE0
01FF80
ENDCHAR
STARTCHAR 00DD
ENCODING 221
SWIDTH 672 0
DWIDTH 28 0
BBX 28 39 0 0
BITMAP
000FE000
000FC000
001F8000
001F0000
001E0000
003C0000
00000000
00000000
00000000
FE0007F0
7F000FE0
3F800FC0
3F801FC0
1FC03F80
1FC03F80
0FE07F00
07E07E00
07F0FE00
03F8FC00
01F9F800
01FFF800
00FFF000
00FFF000
007FE000
003FC000
003FC000
001F8000
001F8000
001F8000
001F8000
001F8000
001F8000
001F8000
001F8000
001F8000
001F8000
001F8000
001F8000
001F8000
ENDCHAR
STARTCHAR 00DE
ENCODING 222
SWIDTH 672 0
DWIDTH 28 0
BBX 23 30 3 0
BITMAP
FC0000
FC0000
FC0000
FC0000
FC0000
FC0000
FFFF80
FFFFE0
FFFFF8
FFFFF8
FFFFFC
FC01FE
FC00FE
FC007E
FC007E
FC007E
FC007E
FC00FE
FC03FC
FFFFFC
FFFFF8
FFFFF0
FFFFE0
FFFF80
FC0000
FC0000
FC0000
FC0000
FC0000
FC0000
ENDCHAR
STARTCHAR 00DF
ENCODING 223
SWIDTH 624 0
DWIDTH 26 0
BBX 21 30 3 0
BITMAP
07F800
1FFE00
3FFF00
7FFF80
7E3F80
FC1F80
FC1F80
FC1F80
FC1F80
FC3F00
FC3F00
FC7E00
FC7E00
FC7E00
FC7E00
FC7F00
FC7F80
FC3FC0
FC1FE0
FC0FF0
FC07F8
FC03F8
FC01F8
FC01F8
FC31F8
FCF1F8
FCFFF0
FCFFF0
FC7FE0
FC1F80
ENDCHAR
STARTCHAR 00E0
ENCODING 224
SWIDTH 552 0
DWIDTH 23 0
BBX 20 31 2 0
BITMAP
1FC000
0FC000
07E000
03E000
01E000
00F000
000000
000000
07FC00
1FFF00
3FFF80
7FFFC0
7E0FC0
FC07C0
1C07E0
0007E0
000FE0
01FFE0
0FFFE0
3FFFE0
7FE7E0
FE07E0
FC07E0
F807E0
F807E0
FC0FE0
FE1FE0
FFFFE0
7FFBE0
3FF3E0
0FC3F0
ENDCHAR
STARTCHAR 00E1
ENCODING 225
SWIDTH 552 0
DWIDTH 23 0
BBX 20 31 2 0
BITMAP
007F00
007E00
00FC00
00F800
00F000
01E000
000000
000000
07FC00
1FFF00
3FFF80
7FFFC0
7E0FC0
FC07C0
1C07E0
0007E0
000FE0
01FFE0
0FFFE0
3FFFE0
7FE7E0
FE07E0
FC07E0
F807E0
F807E0
FC0FE0
FE1FE0
FFFFE0
7FFBE0
3FF3E0
0FC3F0
ENDCHAR
STARTCHAR 00E2
ENCODING 226
SWIDTH 552 0
DWIDTH 23 0
BBX 20 31 2 0
BITMAP
01F800
03FC00
03FC00
07FE00
0F9F00
1F0F80
000000
000000
07FC00
1FFF00
3FFF80
7FFFC0
7E0FC0
FC07C0
1C07E0
0007E0
000FE0
01FFE0
0FFFE0
3FFFE0
7FE7E0
FE07E0
FC07E0
F807E0
F807E0
FC0FE0
FE1FE0
FFFFE0
7FFBE0
3FF3E0
0FC3F0
ENDCHAR
STARTCHAR 00E3
ENCODING 227
SWIDTH 552 0
DWIDTH 23 0
BBX 20 30 2 0
BITMAP
078380
1FE380
1FFF80
1C7F00
181E00
000000
000000
07FC00
1FFF00
3FFF80
7FFFC0
7E0FC0
FC07C0
1C07E0
0007E0
000FE0
01FFE0
0FFFE0
3FFFE0
7FE7E0
FE07E0
FC07E0
F807E0
F807E0
FC0FE0
FE1FE0
FFFFE0
7FFBE0
3FF3E0
0FC3F0
ENDCHAR
STARTCHAR 00E4
ENCODING 228
SWIDTH 552 0
DWIDTH 23 0
BBX 20 29 2 0
BITMAP
1F0F80
1F0F80
1F0F80
1F0F80
000000
000000
07FC00
1FFF00
3FFF80
7FFFC0
7E0FC0
FC07C0
1C07E0
0007E0
000FE0
01FFE0
0FFFE0
3FFFE0
7FE7E0
FE07E0
FC07E0
F807E0
F807E0
FC0FE0
FE1FE0
FFFFE0
7FFBE0
3FF3E0
0FC3F0
ENDCHAR
STARTCHAR 00E5
ENCODING 229
SWIDTH 552 0
DWIDTH 23 0
BBX 20 33 2 0
BITMAP
00F000
01F800
039C00
030C00
030C00
039C00
01F800
00F000
000000
000000
07FC00
1FFF00
3FFF80
7FFFC0
7E0FC0
FC07C0
1C07E0
0007E0
000FE0
01FFE0
0FFFE0
3FFFE0
7FE7E0
FE07E0
FC07E0
F807E0
F807E0
FC0FE0
FE1FE0
FFFFE0
7FFBE0
3FF3E0
0FC3F0
ENDCHAR
STARTCHAR 00E6
ENCODING 230
SWIDTH 888 0
DWIDTH 37 0
BBX 33 23 2 0
BITMAP
03FC0FC000
0FFFBFF800
3FFFFFFC00
3FFFFFFE00
7E0FF87F00
7C07F01F00
1C07F01F00
0007E01F80
000FE00F80
01FFFFFF80
0FFFFFFF80
3FFFFFFF80
7FE7FFFF80
FF07E00000
FC07E00000
FC07E00000
FC07F01C00
FC0FF01F80
FE1FFC7F00
7FFFFFFF00
7FFEFFFE00
3FFC7FFC00
0FE00FE000
ENDCHAR
STARTCHAR 00E7
ENCODING 231
SWIDTH 552 0
DWIDTH 23 0
BBX 20 31 2 -8
BITMAP
01FC00
0FFF80
1FFFC0
3FFFE0
7F07E0
7E03F0
7C0380
FC0000
FC0000
FC0000
FC0000
FC0000
FC0000
FC0000
FC0000
FC0380
7E03F0
7E03F0
7F07E0
3FFFE0
1FFFC0
0FFF80
01FC00
01FC00
01FE00
001F00
000F00
000F00
001E00
07FE00
07F000
ENDCHAR
STARTCHAR 00E8
ENCODING 232
SWIDTH 552 0
DWIDTH 23 0
BBX 21 31 1 0
BITMAP
0FE000
07E000
03F000
01F000
00F000
007800
000000
000000
01FC00
07FF00
0FFF80
1FFFC0
3F87E0
3E03E0
7E03F0
7C01F0
7C01F0
FFFFF0
FFFFF8
FFFFF8
FFFFF8
FC0000
7C0000
7E0000
7E03C0
7F03F0
3F87F0
1FFFE0
0FFFC0
07FF80
01FE00
ENDCHAR
STARTCHAR 00E9
ENCODING 233
SWIDTH 552 0
DWIDTH 23 0
BBX 21 31 1 0
BITMAP
003F80
003F00
007E00
007C00
007800
00F000
000000
000000
01FC00
07FF00
0FFF80
1FFFC0
3F87E0
3E03E0
7E03F0
7C01F0
7C01F0
FFFFF0
FFFFF8
FFFFF8
FFFFF8
FC0000
7C0000
7E0000
7E03C0
7F03F0
3F87F0
1FFFE0
0FFFC0
07FF80
01FE00
ENDCHAR
STARTCHAR 00EA
ENCODING 234
SWIDTH 552 0
DWIDTH 23 0
BBX 21 31 1 0
BITMAP
00FC00
01FE00
01FE00
03FF00
07CF80
0F87C0
000000
000000
01FC00
07FF00
0FFF80
1FFFC0
3F87E0
3E03E0
7E03F0
7C01F0
7C01F0
FFFFF0
FFFFF8
FFFFF8
FFFFF8
FC0000
7C0000
7E0000
7E03C0
7F03F0
3F87F0
1FFFE0
0FFFC0
07FF80
01FE00
ENDCHAR
STARTCHAR 00EB
ENCODING 235
SWIDTH 552 0
DWIDTH 23 0
BBX 21 29 1 0
BITMAP
0F87C0
0F87C0
0F87C0
0F87C0
000000
000000
01FC00
07FF00
0FFF80
1FFFC0
3F87E0
3E03E0
7E03F0
7C01F0
7C01F0
FFFFF0
FFFFF8
FFFFF8
FFFFF8
FC0000
7C0000
7E0000
7E03C0
7F03F0
3F87F0
1FFFE0
0FFFC0
07FF80
01FE00
ENDCHAR
STARTCHAR 00EC
ENCODING 236
SWIDTH 288 0
DWIDTH 12 0
BBX 9 31 0 0
BITMAP
FE00
7E00
3F00
1F00
0F00
0780
0000
0000
0000
1F80
1F80
1F80
1F80
1F80
1F80
1F80
1F80
1F80
1F80
1F80
1F80
1F80
1F80
1F80
1F80
1F80
1F80
1F80
1F80
1F80
1F80
ENDCHAR
STARTCHAR 00ED
ENCODING 237
SWIDTH 288 0
DWIDTH 12 0
BBX 9 31 3 0
BITMAP
3F80
3F00
7E00
7C00
7800
F000
0000
0000
0000
FC00
FC00
FC00
FC00
FC00
FC00
FC00
FC00
FC00
FC00
FC00
FC00
FC00
FC00
FC00
FC00
FC00
FC00
FC00
FC00
FC00
FC00
ENDCHAR
STARTCHAR 00EE
ENCODING 238
SWIDTH 288 0
DWIDTH 12 0
BBX 14 31 -1 0
BITMAP
0FC0
1FE0
1FE0
3FF0
7CF8
F87C
0000
0000
0000
0FC0
0FC0
0FC0
0FC0
0FC0
0FC0
0FC0
0FC0
0FC0
0FC0
0FC0
0FC0
0FC0
0FC0
0FC0
0FC0
0FC0
0FC0
0FC0
0FC0
0FC0
0FC0
ENDCHAR
STARTCHAR 00EF
ENCODING 239
SWIDTH 288 0
DWIDTH 12 0
BBX 14 29 -1 0
BITMAP
F87C
F87C
F87C
F87C
0000
0000
0000
0FC0
0FC0
0FC0
0FC0
0FC0
0FC0
0FC0
0FC0
0FC0
0FC0
0FC0
0FC0
0FC0
0FC0
0FC0
0FC0
0FC0
0FC0
0FC0
0FC0
0FC0
0FC0
ENDCHAR
STARTCHAR 00F0
ENCODING 240
SWIDTH 624 0
DWIDTH 26 0
BBX 22 30 2 0
BITMAP
07E080
01FBC0
00FF00
007E00
01FF00
079F80
060FC0
0007C0
03F7E0
0FFFF0
1FFFF0
3FFFF8
7F87F8
7E03F8
FE01FC
FC01FC
FC00FC
FC00FC
FC00FC
FC00FC
FC00FC
FC00FC
FC00FC
7E01F8
7E03F8
3F87F0
3FFFE0
0FFFC0
07FF80
01FC00
ENDCHAR
STARTCHAR 00F1
ENCODING 241
SWIDTH 624 0
DWIDTH 26 0
BBX 20 30 3 0
BITMAP
078380
1FE380
1FFF80
1C7F00
181E00
000000
000000
003E00
F8FF80
F9FFC0
FBFFE0
FF0FE0
FE07F0
FC03F0
FC03F0
FC03F0
FC03F0
FC03F0
FC03F0
FC03F0
FC03F0
FC03F0
FC03F0
FC03F0
FC03F0
FC03F0
FC03F0
FC03F0
FC03F0
FC03F0
ENDCHAR
STARTCHAR 00F2
ENCODING 242
SWIDTH 624 0
DWIDTH 26 0
BBX 22 31 2 0
BITMAP
07F000
03F000
01F800
00F800
007800
003C00
000000
000000
01FC00
07FF80
0FFFC0
1FFFE0
3F87F0
7F03F8
7E01F8
FC00FC
FC00FC
FC00FC
FC00FC
FC00FC
FC00FC
FC00FC
FC00FC
FC00FC
7E01F8
7E03F8
3F87F0
3FFFE0
1FFFC0
07FF80
01FC00
ENDCHAR
STARTCHAR 00F3
ENCODING 243
SWIDTH 624 0
DWIDTH 26 0
BBX 22 31 2 0
BITMAP
003F80
003F00
007E00
007C00
007800
00F000
000000
000000
01FC00
07FF80
0FFFC0
1FFFE0
3F87F0
7F03F8
7E01F8
FC00FC
FC00FC
FC00FC
FC00FC
FC00FC
FC00FC
FC00FC
FC00FC
FC00FC
7E01F8
7E03F8
3F87F0
3FFFE0
1FFFC0
07FF80
01FC00
ENDCHAR
STARTCHAR 00F4
ENCODING 244
SWIDTH 624 0
DWIDTH 26 0
BBX 22 31 2 0
BITMAP
00FC00
01FE00
01FE00
03FF00
07CF80
0F87C0
000000
000000
01FC00
07FF80
0FFFC0
1FFFE0
3F87F0
7F03F8
7E01F8
FC00FC
FC00FC
FC00FC
FC00FC
FC00FC
FC00FC
FC00FC
FC00FC
FC00FC
7E01F8
7E03F8
3F87F0
3FFFE0
1FFFC0
07FF80
01FC00
ENDCHAR
STARTCHAR 00F5
ENCODING 245
SWIDTH 624 0
DWIDTH 26 0
BBX 22 30 2 0
BITMAP
03C1C0
0FF1C0
0FFFC0
0E3F80
0C0F00
000000
000000
01FC00
07FF80
0FFFC0
1FFFE0
3F87F0
7F03F8
7E01F8
FC00FC
FC00FC
FC00FC
FC00FC
FC00FC
FC00FC
FC00FC
FC00FC
FC00FC
7E01F8
7E03F8
3F87F0
3FFFE0
1FFFC0
07FF80
01FC00
ENDCHAR
STARTCHAR 00F6
ENCODING 246
SWIDTH 624 0
DWIDTH 26 0
BBX 22 29 2 0
BITMAP
0F87C0
0F87C0
0F87C0
0F87C0
000000
000000
01FC00
07FF80
0FFFC0
1FFFE0
3F87F0
7F03F8
7E01F8
FC00FC
FC00FC
FC00FC
FC00FC
FC00FC
FC00FC
FC00FC
FC00FC
FC00FC
7E01F8
7E03F8
3F87F0
3FFFE0
1FFFC0
07FF80
01FC00
ENDCHAR
STARTCHAR 00F7
ENCODING 247
SWIDTH 552 0
DWIDTH 23 0
BBX 21 21 1 4
BITMAP
00F800
00F800
00F800
00F800
00F800
000000
000000
000000
FFFFF8
FFFFF8
FFFFF8
FFFFF8
FFFFF8
000000
000000
000000
00F800
00F800
00F800
00F800
00F800
ENDCHAR
STARTCHAR 00F8
ENCODING 248
SWIDTH 624 0
DWIDTH 26 0
BBX 22 23 2 1
BITMAP
01FC18
07FF3C
0FFFF8
1FFFF0
3F87F0
7E03F0
7E07F8
FC0FF8
FC0FFC
FC1EFC
FC3CFC
FC787C
FCF07C
FDE0FC
FDE0FC
FFC0FC
7F81F8
7F01F8
3F87F0
3FFFE0
7FFFC0
FFFF80
61FE00
ENDCHAR
STARTCHAR 00F9
ENCODING 249
SWIDTH 624 0
DWIDTH 26 0
BBX 20 31 3 0
BITMAP
0FE000
07E000
03F000
01F000
00F000
007800
000000
000000
000000
FC03F0
FC03F0
FC03F0
FC03F0
FC03F0
FC03F0
FC03F0
FC03F0
FC03F0
FC03F0
FC03F0
FC03F0
FC03F0
FC03F0
FC03F0
FC07F0
FC07F0
FE1FF0
7FFFF0
7FFFF0
3FFBF0
0FC3F0
ENDCHAR
STARTCHAR 00FA
ENCODING 250
SWIDTH 624 0
DWIDTH 26 0
BBX 20 31 3 0
BITMAP
007F00
007E00
00FC00
00F800
00F000
01E000
000000
000000
000000
FC03F0
FC03F0
FC03F0
FC03F0
FC03F0
FC03F0
FC03F0
FC03F0
FC03F0
FC03F0
FC03F0
FC03F0
FC03F0
FC03F0
FC03F0
FC07F0
FC07F0
FE1FF0
7FFFF0
7FFFF0
3FFBF0
0FC3F0
ENDCHAR
STARTCHAR 00FB
ENCODING 251
SWIDTH 624 0
DWIDTH 26 0
BBX 20 31 3 0
BITMAP
01F800
03FC00
03FC00
07FE00
0F9F00
1F0F80
000000
000000
000000
FC03F0
FC03F0
FC03F0
FC03F0
FC03F0
FC03F0
FC03F0
FC03F0
FC03F0
FC03F0
FC03F0
FC03F0
FC03F0
FC03F0
FC03F0
FC07F0
FC07F0
FE1FF0
7FFFF0
7FFFF0
3FFBF0
0FC3F0
ENDCHAR
STARTCHAR 00FC
ENCODING 252
SWIDTH 624 0
DWIDTH 26 0
BBX 20 29 3 0
BITMAP
1F0F80
1F0F80
1F0F80
1F0F80
000000
000000
000000
FC03F0
FC03F0
FC03F0
FC03F0
FC03F0
FC03F0
FC03F0
FC03F0
FC03F0
FC03F0
FC03F0
FC03F0
FC03F0
FC03F0
FC03F0
FC07F0
FC07F0
FE1FF0
7FFFF0
7FFFF0
3FFBF0
0FC3F0
ENDCHAR
STARTCHAR 00FD
ENCODING 253
SWIDTH 552 0
DWIDTH 23 0
BBX 23 39 0 -8
BITMAP
001FC0
001F80
003F00
003E00
003C00
007800
000000
000000
000000
FE007E
7E00FC
7E00FC
3F00F8
3F01F8
3F01F8
1F81F0
1F83F0
1F83F0
0FC3E0
0FC7E0
07C7E0
07E7C0
07EFC0
03EF80
03FF80
01FF80
01FF00
01FF00
00FF00
00FE00
00FE00
00FC00
00FC00
01FC00
03F800
3FF800
3FF000
3FE000
3F8000
ENDCHAR
STARTCHAR 00FE
ENCODING 254
SWIDTH 624 0
DWIDTH 26 0
BBX 21 38 3 -8
BITMAP
FC0000
FC0000
FC0000
FC0000
FC0000
FC0000
FC0000
FC7E00
FDFF80
FFFFC0
FFFFE0
FF0FE0
FE03F0
FC03F0
FC01F8
FC01F8
FC01F8
FC01F8
FC01F8
FC01F8
FC01F8
FC01F8
FC01F8
FE03F0
FE03F0
FF8FE0
FFFFE0
FFFFC0
FDFF80
FC7E00
FC0000
FC0000
FC0000
FC0000
FC0000
FC0000
FC0000
FC0000
ENDCHAR
STARTCHAR 00FF
ENCODING 255
SWIDTH 552 0
DWIDTH 23 0
BBX 23 37 0 -8
BITMAP
07C3E0
07C3E0
07C3E0
07C3E0
000000
000000
000000
FE007E
7E00FC
7E00FC
3F00F8
3F01F8
3F01F8
1F81F0
1F83F0
1F83F0
0FC3E0
0FC7E0
07C7E0
07E7C0
07EFC0
03EF80
03FF80
01FF80
01FF00
01FF00
00FF00
00FE00
00FE00
00FC00
00FC00
01FC00
03F800
3FF800
3FF000
3FE000
3F8000
ENDCHAR
STARTCHAR 0100
ENCODING 256
SWIDTH 720 0
DWIDTH 30 0
BBX 30 37 0 0
BITMAP
00FFFC00
00FFFC00
00FFFC00
00FFFC00
00000000
00000000
00000000
001FC000
001FE000
001FE000
003FF000
003FF000
003FF000
007DF800
007CF800
00FCFC00
00F8FC00
00F87C00
01F87E00
01F87E00
03F03F00
03F03F00
03F03F00
07E01F80
07E01F80
0FFFFFC0
0FFFFFC0
0FFFFFC0
1FFFFFE0
1FFFFFE0
1F8007F0
3F0007F0
3F0003F0
7F0003F8
7E0001F8
7E0001FC
FE0001FC
ENDCHAR
STARTCHAR 0101
ENCODING 257
SWIDTH 552 0
DWIDTH 23 0
BBX 20 29 2 0
BITMAP
1FFF80
1FFF80
1FFF80
1FFF80
000000
000000
07FC00
1FFF00
3FFF80
7FFFC0
7E0FC0
FC07C0
1C07E0
0007E0
000FE0
01FFE0
0FFFE0
3FFFE0
7FE7E0
FE07E0
FC07E0
F807E0
F807E0
FC0FE0
FE1FE0
FFFFE0
7FFBE0
3FF3E0
0FC3F0
ENDCHAR
STARTCHAR 0102
ENCODING 258
SWIDTH 720 0
DWIDTH 30 0
BBX 30 39 0 0
BITMAP
00603800
00703800
00787800
003FF000
001FE000
000FC000
00000000
00000000
00000000
001FC000
001FE000
001FE000
003FF000
003FF000
003FF000
007DF800
007CF800
00FCFC00
00F8FC00
00F87C00
01F87E00
01F87E00
03F03F00
03F03F00
03F03F00
07E01F80
07E01F80
0FFFFFC0
0FFFFFC0
0FFFFFC0
1FFFFFE0
1FFFFFE0
1F8007F0
3F0007F0
3F0003F0
7F0003F8
7E0001F8
7E0001FC
FE0001FC
ENDCHAR
STARTCHAR 0103
ENCODING 259
SWIDTH 552 0
DWIDTH 23 0
BBX 20 31 2 0
BITMAP
0C0700
0E0700
0F0F00
07FE00
03FC00
01F800
000000
000000
07FC00
1FFF00
3FFF80
7FFFC0
7E0FC0
FC07C0
1C07E0
0007E0
000FE0
01FFE0
0FFFE0
3FFFE0
7FE7E0
FE07E0
FC07E0
F807E0
F807E0
FC0FE0
FE1FE0
FFFFE0
7FFBE0
3FF3E0
0FC3F0
ENDCHAR
STARTCHAR 0104
ENCODING 260
SWIDTH 720 0
DWIDTH 30 0
BBX 30 38 0 -8
BITMAP
001FC000
001FE000
001FE000
003FF000
003FF000
003FF000
007DF800
007CF800
00FCFC00
00F8FC00
00F87C00
01F87E00
01F87E00
03F03F00
03F03F00
03F03F00
07E01F80
07E01F80
0FFFFFC0
0FFFFFC0
0FFFFFC0
1FFFFFE0
1FFFFFE0
1F8007F0
3F0007F0
3F0003F0
7F0003F8
7E0001F8
7E0001FC
FE0001FC
000000F0
000001E0
000001E0
000003E0
000003E0
000003FC
000001FC
000000F8
ENDCHAR
STARTCHAR 0105
ENCODING 261
SWIDTH 552 0
DWIDTH 23 0
BBX 20 31 2 -8
BITMAP
07FC00
1FFF00
3FFF80
7FFFC0
7E0FC0
FC07C0
1C07E0
0007E0
000FE0
01FFE0
0FFFE0
3FFFE0
7FE7E0
FE07E0
FC07E0
F807E0
F807E0
FC0FE0
FE1FE0
FFFFE0
7FFBE0
3FF3E0
0FC3F0
0003C0
000780
000780
000F80
000F80
000FF0
0007F0
0003E0
ENDCHAR
STARTCHAR 0106
ENCODING 262
SWIDTH 720 0
DWIDTH 30 0
BBX 26 39 2 0
BITMAP
000FE000
000FC000
001F8000
001F0000
001E0000
003C0000
00000000
00000000
00000000
003FC000
01FFF000
03FFFC00
0FFFFE00
1FFFFF00
1FE0FF80
3F803F80
7F001FC0
7F000FC0
7E000E00
FE000000
FE000000
FC000000
FC000000
FC000000
FC000000
FC000000
FC000000
FE000000
FE000C00
7E000F80
7E001FC0
7F001FC0
3F803F80
3FE0FF80
1FFFFF00
0FFFFE00
07FFFC00
01FFF000
003FC000
ENDCHAR
STARTCHAR 0107
ENCODING 263
SWIDTH 552 0
DWIDTH 23 0
BBX 20 31 2 0
BITMAP
007F00
007E00
00FC00
00F800
00F000
01E000
000000
000000
01FC00
0FFF80
1FFFC0
3FFFE0
7F07E0
7E03F0
7C0380
FC0000
FC0000
FC0000
FC0000
FC0000
FC0000
FC0000
FC0000
FC0380
7E03F0
7E03F0
7F07E0
3FFFE0
1FFFC0
0FFF80
01FC00
ENDCHAR
STARTCHAR 0108
ENCODING 264
SWIDTH 720 0
DWIDTH 30 0
BBX 26 39 2 0
BITMAP
001F8000
003FC000
003FC000
007FE000
00F9F000
01F0F800
00000000
00000000
00000000
003FC000
01FFF000
03FFFC00
0FFFFE00
1FFFFF00
1FE0FF80
3F803F80
7F001FC0
7F000FC0
7E000E00
FE000000
FE000000
FC000000
FC000000
FC000000
FC000000
FC000000
FC000000
FE000000
FE000C00
7E000F80
7E001FC0
7F001FC0
3F803F80
3FE0FF80
1FFFFF00
0FFFFE00
07FFFC00
01FFF000
003FC000
ENDCHAR
STARTCHAR 0109
ENCODING 265
SWIDTH 552 0
DWIDTH 23 0
BBX 20 31 2 0
BITMAP
01F800
03FC00
03FC00
07FE00
0F9F00
1F0F80
000000
000000
01FC00
0FFF80
1FFFC0
3FFFE0
7F07E0
7E03F0
7C0380
FC0000
FC0000
FC0000
FC0000
FC0000
FC0000
FC0000
FC0000
FC0380
7E03F0
7E03F0
7F07E0
3FFFE0
1FFFC0
0FFF80
01FC00
ENDCHAR
STARTCHAR 010A
ENCODING 266
SWIDTH 720 0
DWIDTH 30 0
BBX 26 39 2 0
BITMAP
001F8000
001F8000
001F8000
001F8000
001F8000
001F8000
00000000
00000000
00000000
003FC000
01FFF000
03FFFC00
0FFFFE00
1FFFFF00
1FE0FF80
3F803F80
7F001FC0
7F000FC0
7E000E00
FE000000
FE000000
FC000000
FC000000
FC000000
FC000000
FC000000
FC000000
FE000000
FE000C00
7E000F80
7E001FC0
7F001FC0
3F803F80
3FE0FF80
1FFFFF00
0FFFFE00
07FFFC00
01FFF000
003FC000
ENDCHAR
STARTCHAR 010B
ENCODING 267
SWIDTH 552 0
DWIDTH 23 0
BBX 20 31 2 0
BITMAP
01F800
01F800
01F800
01F800
01F800
01F800
000000
000000
01FC00
0FFF80
1FFFC0
3FFFE0
7F07E0
7E03F0
7C0380
FC0000
FC0000
FC0000
FC0000
FC0000
FC0000
FC0000
FC0000
FC0380
7E03F0
7E03F0
7F07E0
3FFFE0
1FFFC0
0FFF80
01FC00
ENDCHAR
STARTCHAR 010C
ENCODING 268
SWIDTH 720 0
DWIDTH 30 0
BBX 26 39 2 0
BITMAP
03E1F000
01F3E000
00FFC000
007F8000
007F8000
003F0000
00000000
00000000
00000000
003FC000
01FFF000
03FFFC00
0FFFFE00
1FFFFF00
1FE0FF80
3F803F80
7F001FC0
7F000FC0
7E000E00
FE000000
FE000000
FC000000
FC000000
FC000000
FC000000
FC000000
FC000000
FE000000
FE000C00
7E000F80
7E001FC0
7F001FC0
3F803F80
3FE0FF80
1FFFFF00
0FFFFE00
07FFFC00
01FFF000
003FC000
ENDCHAR
STARTCHAR 010D
ENCODING 269
SWIDTH 552 0
DWIDTH 23 0
BBX 20 31 2 0
BITMAP
0F87C0
07CF80
03FF00
01FE00
01FE00
00FC00
000000
000000
01FC00
0FFF80
1FFFC0
3FFFE0
7F07E0
7E03F0
7C0380
FC0000
FC0000
FC0000
FC0000
FC0000
FC0000
FC0000
FC0000
FC0380
7E03F0
7E03F0
7F07E0
3FFFE0
1FFFC0
0FFF80
01FC00
ENDCHAR
STARTCHAR 010E
ENCODING 270
SWIDTH 720 0
DWIDTH 30 0
BBX 25 39 3 0
BITMAP
1F0F8000
0F9F0000
07FE0000
03FC0000
03FC0000
01F80000
00000000
00000000
00000000
FFFF0000
FFFFE000
FFFFF000
FFFFFC00
FFFFFC00
FC01FE00
FC00FF00
FC007F00
FC003F00
FC003F80
FC001F80
FC001F80
FC001F80
FC001F80
FC001F80
FC001F80
FC001F80
FC001F80
FC001F80
FC001F80
FC003F80
FC003F00
FC003F00
FC007F00
FC01FE00
FFFFFC00
FFFFFC00
FFFFF800
FFFFE000
FFFF0000
ENDCHAR
STARTCHAR 010F
ENCODING 271
SWIDTH 720 0
DWIDTH 30 0
BBX 28 30 2 0
BITMAP
0001F9F0
0001F9F0
0001F9F0
0001F9F0
0001F9F0
0001F870
0001F870
03F1F870
0FF9F8E0
1FFFF9C0
3FFFF980
7F0FF800
7E03F800
FC03F800
FC01F800
FC01F800
FC01F800
FC01F800
FC01F800
FC01F800
FC01F800
FC01F800
FC01F800
FC03F800
7E07F800
7F0FF800
3FFFF800
1FFEF800
0FFCF800
03F0F800
ENDCHAR
STARTCHAR 0110
ENCODING 272
SWIDTH 720 0
DWIDTH 30 0
BBX 28 30 0 0
BITMAP
1FFFE000
1FFFFC00
1FFFFE00
1FFFFF80
1FFFFF80
1F803FC0
1F801FE0
1F800FE0
1F8007E0
1F8007F0
1F8003F0
1F8003F0
1F8003F0
FFFF03F0
FFFF03F0
FFFF03F0
FFFF03F0
1F8003F0
1F8003F0
1F8003F0
1F8007F0
1F8007E0
1F8007E0
1F800FE0
1F803FC0
1FFFFF80
1FFFFF80
1FFFFF00
1FFFFC00
1FFFE000
ENDCHAR
STARTCHAR 0111
ENCODING 273
SWIDTH 624 0
DWIDTH 26 0
BBX 23 30 2 0
BITMAP
0001F8
007FFE
007FFE
007FFE
007FFE
0001F8
0001F8
03F1F8
0FFDF8
1FFFF8
3FFFF8
7F0FF8
7E03F8
FE03F8
FC01F8
FC01F8
FC01F8
FC01F8
FC01F8
FC01F8
FC01F8
FC01F8
FC01F8
FE03F8
7E03F8
7F0FF8
3FFFF8
1FFEF8
0FFCF8
03F0F8
ENDCHAR
STARTCHAR 0112
ENCODING 274
SWIDTH 672 0
DWIDTH 28 0
BBX 23 37 3 0
BITMAP
0FFFC0
0FFFC0
0FFFC0
0FFFC0
000000
000000
000000
FFFFFC
FFFFFC
FFFFFC
FFFFFC
FFFFFC
FC0000
FC0000
FC0000
FC0000
FC0000
FC0000
FC0000
FFFFF8
FFFFF8
FFFFF8
FFFFF8
FFFFF8
FC0000
FC0000
FC0000
FC0000
FC0000
FC0000
FC0000
FC0000
FFFFFE
FFFFFE
FFFFFE
FFFFFE
FFFFFE
ENDCHAR
STARTCHAR 0113
ENCODING 275
SWIDTH 552 0
DWIDTH 23 0
BBX 21 29 1 0
BITMAP
0FFFC0
0FFFC0
0FFFC0
0FFFC0
000000
000000
01FC00
07FF00
0FFF80
1FFFC0
3F87E0
3E03E0
7E03F0
7C01F0
7C01F0
FFFFF0
FFFFF8
FFFFF8
FFFFF8
FC0000
7C0000
7E0000
7E03C0
7F03F0
3F87F0
1FFFE0
0FFFC0
07FF80
01FE00
ENDCHAR
STARTCHAR 0114
ENCODING 276
SWIDTH 672 0
DWIDTH 28 0
BBX 23 39 3 0
BITMAP
060380
070380
078780
03FF00
01FE00
00FC00
000000
000000
000000
FFFFFC
FFFFFC
FFFFFC
FFFFFC
FFFFFC
FC0000
FC0000
FC0000
FC0000
FC0000
FC0000
FC0000
FFFFF8
FFFFF8
FFFFF8
FFFFF8
FFFFF8
FC0000
FC0000
FC0000
FC0000
FC0000
FC0000
FC0000
FC0000
FFFFFE
FFFFFE
FFFFFE
FFFFFE
FFFFFE
ENDCHAR
STARTCHAR 0115
ENCODING 277
SWIDTH 552 0
DWIDTH 23 0
BBX 21 31 1 0
BITMAP
0C0700
0E0700
0F0F00
07FE00
03FC00
01F800
000000
000000
01FC00
07FF00
0FFF80
1FFFC0
3F87E0
3E03E0
7E03F0
7C01F0
7C01F0
FFFFF0
FFFFF8
FFFFF8
FFFFF8
FC0000
7C0000
7E0000
7E03C0
7F03F0
3F87F0
1FFFE0
0FFFC0
07FF80
01FE00
ENDCHAR
STARTCHAR 0116
ENCODING 278
SWIDTH 672 0
DWIDTH 28 0
BBX 23 39 3 0
BITMAP
00FC00
00FC00
00FC00
00FC00
00FC00
00FC00
000000
000000
000000
FFFFFC
FFFFFC
FFFFFC
FFFFFC
FFFFFC
FC0000
FC0000
FC0000
FC0000
FC0000
FC0000
FC0000
FFFFF8
FFFFF8
FFFFF8
FFFFF8
FFFFF8
FC0000
FC0000
FC0000
FC0000
FC0000
FC0000
FC0000
FC0000
FFFFFE
FFFFFE
FFFFFE
FFFFFE
FFFFFE
ENDCHAR
STARTCHAR 0117
ENCODING 279
SWIDTH 552 0
DWIDTH 23 0
BBX 21 31 1 0
BITMAP
00FC00
00FC00
00FC00
00FC00
00FC00
00FC00
000000
000000
01FC00
07FF00
0FFF80
1FFFC0
3F87E0
3E03E0
7E03F0
7C01F0
7C01F0
FFFFF0
FFFFF8
FFFFF8
FFFFF8
FC0000
7C0000
7E0000
7E03C0
7F03F0
3F87F0
1FFFE0
0FFFC0
07FF80
01FE00
ENDCHAR
STARTCHAR 0118
ENCODING 280
SWIDTH 672 0
DWIDTH 28 0
BBX 23 38 3 -8
BITMAP
FFFFFC
FFFFFC
FFFFFC
FFFFFC
FFFFFC
FC0000
FC0000
FC0000
FC0000
FC0000
FC0000
FC0000
FFFFF8
FFFFF8
FFFFF8
FFFFF8
FFFFF8
FC0000
FC0000
FC0000
FC0000
FC0000
FC0000
FC0000
FC0000
FFFFFE
FFFFFE
FFFFFE
FFFFFE
FFFFFE
000078
0000F0
0000F0
0001F0
0001F0
0001FE
0000FE
00007C
ENDCHAR
STARTCHAR 0119
ENCODING 281
SWIDTH 552 0
DWIDTH 23 0
BBX 21 31 1 -8
BITMAP
01FC00
07FF00
0FFF80
1FFFC0
3F87E0
3E03E0
7E03F0
7C01F0
7C01F0
FFFFF0
FFFFF8
FFFFF8
FFFFF8
FC0000
7C0000
7E0000
7E03C0
7F03F0
3F87F0
1FFFE0
0FFFC0
07FF80
01FE00
003C00
007800
007800
00F800
00F800
00FF00
007F00
003E00
ENDCHAR
STARTCHAR 011A
ENCODING 282
SWIDTH 672 0
DWIDTH 28 0
BBX 23 39 3 0
BITMAP
0F87C0
07CF80
03FF00
01FE00
01FE00
00FC00
000000
000000
000000
FFFFFC
FFFFFC
FFFFFC
FFFFFC
FFFFFC
FC0000
FC0000
FC0000
FC0000
FC0000
FC0000
FC0000
FFFFF8
FFFFF8
FFFFF8
FFFFF8
FFFFF8
FC0000
FC0000
FC0000
FC0000
FC0000
FC0000
FC0000
FC0000
FFFFFE
FFFFFE
FFFFFE
FFFFFE
FFFFFE
ENDCHAR
STARTCHAR 011B
ENCODING 283
SWIDTH 552 0
DWIDTH 23 0
BBX 21 31 1 0
BITMAP
1F0F80
0F9F00
07FE00
03FC00
03FC00
01F800
000000
000000
01FC00
07FF00
0FFF80
1FFFC0
3F87E0
3E03E0
7E03F0
7C01F0
7C01F0
FFFFF0
FFFFF8
FFFFF8
FFFFF8
FC0000
7C0000
7E0000
7E03C0
7F03F0
3F87F0
1FFFE0
0FFFC0
07FF80
01FE00
ENDCHAR
STARTCHAR 011C
ENCODING 284
SWIDTH 792 0
DWIDTH 33 0
BBX 28 39 2 0
BITMAP
000FC000
001FE000
001FE000
003FF000
007CF800
00F87C00
00000000
00000000
00000000
003FE000
00FFFC00
03FFFF00
07FFFF80
0FFFFFC0
1FF03FC0
3FC01FE0
3F800FE0
7F0007F0
7E000380
7E000000
FE000000
FC000000
FC000000
FC01FFF0
FC01FFF0
FC01FFF0
FC01FFF0
FE01FFF0
7E0003F0
7E0003F0
7F0003F0
3F8003F0
3FC007F0
1FF03FF0
0FFFFFF0
07FFFFE0
03FFFF80
00FFFE00
001FF000
ENDCHAR
STARTCHAR 011D
ENCODING 285
SWIDTH 624 0
DWIDTH 26 0
BBX 21 39 2 -8
BITMAP
00FC00
01FE00
01FE00
03FF00
07CF80
0F87C0
000000
000000
03F000
0FFCF8
1FFEF8
3FFFF8
7F0FF8
7E03F8
FE03F8
FC01F8
FC01F8
FC01F8
FC01F8
FC01F8
FC01F8
FC01F8
FC01F8
FC01F8
FE03F8
7E03F8
7F0FF8
3FFFF8
1FFFF8
0FFDF8
03F1F8
0001F8
0001F8
F001F0
7E07F0
7FFFF0
3FFFE0
1FFFC0
07FE00
ENDCHAR
STARTCHAR 011E
ENCODING 286
SWIDTH 792 0
DWIDTH 33 0
BBX 28 39 2 0
BITMAP
00603800
00703800
00787800
003FF000
001FE000
000FC000
00000000
00000000
00000000
003FE000
00FFFC00
03FFFF00
07FFFF80
0FFFFFC0
1FF03FC0
3FC01FE0
3F800FE0
7F0007F0
7E000380
7E000000
FE000000
FC000000
FC000000
FC01FFF0
FC01FFF0
FC01FFF0
FC01FFF0
FE01FFF0
7E0003F0
7E0003F0
7F0003F0
3F8003F0
3FC007F0
1FF03FF0
0FFFFFF0
07FFFFE0
03FFFF80
00FFFE00
001FF000
ENDCHAR
STARTCHAR 011F
ENCODING 287
SWIDTH 624 0
DWIDTH 26 0
BBX 21 39 2 -8
BITMAP
0C0700
0E0700
0F0F00
07FE00
03FC00
01F800
000000
000000
03F000
0FFCF8
1FFEF8
3FFFF8
7F0FF8
7E03F8
FE03F8
FC01F8
FC01F8
FC01F8
FC01F8
FC01F8
FC01F8
FC01F8
FC01F8
FC01F8
FE03F8
7E03F8
7F0FF8
3FFFF8
1FFFF8
0FFDF8
03F1F8
0001F8
0001F8
F001F0
7E07F0
7FFFF0
3FFFE0
1FFFC0
07FE00
ENDCHAR
STARTCHAR 0120
ENCODING 288
SWIDTH 792 0
DWIDTH 33 0
BBX 28 39 2 0
BITMAP
000FC000
000FC000
000FC000
000FC000
000FC000
000FC000
00000000
00000000
00000000
003FE000
00FFFC00
03FFFF00
07FFFF80
0FFFFFC0
1FF03FC0
3FC01FE0
3F800FE0
7F0007F0
7E000380
7E000000
FE000000
FC000000
FC000000
FC01FFF0
FC01FFF0
FC01FFF0
FC01FFF0
FE01FFF0
7E0003F0
7E0003F0
7F0003F0
3F8003F0
3FC007F0
1FF03FF0
0FFFFFF0
07FFFFE0
03FFFF80
00FFFE00
001FF000
ENDCHAR
STARTCHAR 0121
ENCODING 289
SWIDTH 624 0
DWIDTH 26 0
BBX 21 39 2 -8
BITMAP
00FC00
00FC00
00FC00
00FC00
00FC00
00FC00
000000
000000
03F000
0FFCF8
1FFEF8
3FFFF8
7F0FF8
7E03F8
FE03F8
FC01F8
FC01F8
FC01F8
FC01F8
FC01F8
FC01F8
FC01F8
FC01F8
FC01F8
FE03F8
7E03F8
7F0FF8
3FFFF8
1FFFF8
0FFDF8
03F1F8
0001F8
0001F8
F001F0
7E07F0
7FFFF0
3FFFE0
1FFFC0
07FE00
ENDCHAR
STARTCHAR 0122
ENCODING 290
SWIDTH 792 0
DWIDTH 33 0
BBX 28 38 2 -8
BITMAP
001FE000
00FFFC00
03FFFF00
07FFFF80
0FFFFFC0
1FF03FC0
3FC01FE0
3F800FE0
7F0007F0
7E000380
7E000000
FE000000
FC000000
FC000000
FC01FFF0
FC01FFF0
FC01FFF0
FC01FFF0
FE01FFF0
7E0003F0
7E0003F0
7F0003F0
3F8003F0
3FC007F0
1FF03FF0
0FFFFFF0
07FFFFE0
03FFFF80
01FFFE00
003FF000
001F8000
003FE000
0001E000
0001E000
0001E000
0003E000
00FFC000
00FF0000
ENDCHAR
STARTCHAR 0123
ENCODING 291
SWIDTH 624 0
DWIDTH 26 0
BBX 21 42 2 -8
BITMAP
001000
007000
00F800
01E000
01C000
01F800
01F800
01F800
01F800
000000
000000
03F000
0FFCF8
1FFEF8
3FFFF8
7F0FF8
7E03F8
FE03F8
FC01F8
FC01F8
FC01F8
FC01F8
FC01F8
FC01F8
FC01F8
FC01F8
FC01F8
FE03F8
7E03F8
7F0FF8
3FFFF8
1FFFF8
0FFDF8
03F1F8
0001F8
0001F8
F001F0
7E03F0
7FFFF0
3FFFE0
1FFFC0
03FE00
ENDCHAR
STARTCHAR 0124
ENCODING 292
SWIDTH 720 0
DWIDTH 30 0
BBX 24 39 3 0
BITMAP
007E00
00FF00
00FF00
01FF80
03E7C0
07C3E0
000000
000000
000000
FC003F
FC003F
FC003F
FC003F
FC003F
FC003F
FC003F
FC003F
FC003F
FC003F
FC003F
FC003F
FFFFFF
FFFFFF
FFFFFF
FFFFFF
FFFFFF
FC003F
FC003F
FC003F
FC003F
FC003F
FC003F
FC003F
FC003F
FC003F
FC003F
FC003F
FC003F
FC003F
ENDCHAR
STARTCHAR 0125
ENCODING 293
SWIDTH 624 0
DWIDTH 26 0
BBX 20 39 3 0
BITMAP
01F800
03FC00
03FC00
07FE00
0F9F00
1F0F80
000000
000000
000000
FC0000
FC0000
FC0000
FC0000
FC0000
FC0000
FC0000
FC7E00
FDFF80
FFFFC0
FFFFE0
FF0FE0
FE07F0
FC03F0
FC03F0
FC03F0
FC03F0
FC03F0
FC03F0
FC03F0
FC03F0
FC03F0
FC03F0
FC03F0
FC03F0
FC03F0
FC03F0
FC03F0
FC03F0
FC03F0
ENDCHAR
STARTCHAR 0126
ENCODING 294
SWIDTH 720 0
DWIDTH 30 0
BBX 30 30 0 0
BITMAP
1F8007E0
1F8007E0
1F8007E0
1F8007E0
FFFFFFFC
FFFFFFFC
FFFFFFFC
FFFFFFFC
1F8007E0
1F8007E0
1F8007E0
1F8007E0
1FFFFFE0
1FFFFFE0
1FFFFFE0
1FFFFFE0
1FFFFFE0
1F8007E0
1F8007E0
1F8007E0
1F8007E0
1F8007E0
1F8007E0
1F8007E0
1F8007E0
1F8007E0
1F8007E0
1F8007E0
1F8007E0
1F8007E0
ENDCHAR
STARTCHAR 0127
ENCODING 295
SWIDTH 624 0
DWIDTH 26 0
BBX 22 30 1 0
BITMAP
3F0000
FFFC00
FFFC00
FFFC00
FFFC00
3F0000
3F0000
3F1F80
3F7FE0
3FFFF0
3FFFF8
3FC3F8
3F81FC
3F00FC
3F00FC
3F00FC
3F00FC
3F00FC
3F00FC
3F00FC
3F00FC
3F00FC
3F00FC
3F00FC
3F00FC
3F00FC
3F00FC
3F00FC
3F00FC
3F00FC
ENDCHAR
STARTCHAR 0128
ENCODING 296
SWIDTH 288 0
DWIDTH 12 0
BBX 14 38 -1 0
BITMAP
3C1C
FF1C
FFFC
E3F8
C0F0
0000
0000
0000
0FC0
0FC0
0FC0
0FC0
0FC0
0FC0
0FC0
0FC0
0FC0
0FC0
0FC0
0FC0
0FC0
0FC0
0FC0
0FC0
0FC0
0FC0
0FC0
0FC0
0FC0
0FC0
0FC0
0FC0
0FC0
0FC0
0FC0
0FC0
0FC0
0FC0
ENDCHAR
STARTCHAR 0129
ENCODING 297
SWIDTH 288 0
DWIDTH 12 0
BBX 14 30 -1 0
BITMAP
3C1C
FF1C
FFFC
E3F8
C0F0
0000
0000
0000
0FC0
0FC0
0FC0
0FC0
0FC0
0FC0
0FC0
0FC0
0FC0
0FC0
0FC0
0FC0
0FC0
0FC0
0FC0
0FC0
0FC0
0FC0
0FC0
0FC0
0FC0
0FC0
ENDCHAR
STARTCHAR 012A
ENCODING 298
SWIDTH 288 0
DWIDTH 12 0
BBX 14 37 -1 0
BITMAP
FFFC
FFFC
FFFC
FFFC
0000
0000
0000
0FC0
0FC0
0FC0
0FC0
0FC0
0FC0
0FC0
0FC0
0FC0
0FC0
0FC0
0FC0
0FC0
0FC0
0FC0
0FC0
0FC0
0FC0
0FC0
0FC0
0FC0
0FC0
0FC0
0FC0
0FC0
0FC0
0FC0
0FC0
0FC0
0FC0
ENDCHAR
STARTCHAR 012B
ENCODING 299
SWIDTH 288 0
DWIDTH 12 0
BBX 14 29 -1 0
BITMAP
FFFC
FFFC
FFFC
FFFC
0000
0000
0000
0FC0
0FC0
0FC0
0FC0
0FC0
0FC0
0FC0
0FC0
0FC0
0FC0
0FC0
0FC0
0FC0
0FC0
0FC0
0FC0
0FC0
0FC0
0FC0
0FC0
0FC0
0FC0
ENDCHAR
STARTCHAR 012C
ENCODING 300
SWIDTH 288 0
DWIDTH 12 0
BBX 12 39 0 0
BITMAP
C070
E070
F0F0
7FE0
3FC0
1F80
0000
0000
0000
1F80
1F80
1F80
1F80
1F80
1F80
1F80
1F80
1F80
1F80
1F80
1F80
1F80
1F80
1F80
1F80
1F80
1F80
1F80
1F80
1F80
1F80
1F80
1F80
1F80
1F80
1F80
1F80
1F80
1F80
ENDCHAR
STARTCHAR 012D
ENCODING 301
SWIDTH 288 0
DWIDTH 12 0
BBX 12 31 0 0
BITMAP
C070
E070
F0F0
7FE0
3FC0
1F80
0000
0000
0000
1F80
1F80
1F80
1F80
1F80
1F80
1F80
1F80
1F80
1F80
1F80
1F80
1F80
1F80
1F80
1F80
1F80
1F80
1F80
1F80
1F80
1F80
ENDCHAR
STARTCHAR 012E
ENCODING 302
SWIDTH 288 0
DWIDTH 12 0
BBX 8 38 1 -8
BITMAP
3F
3F
3F
3F
3F
3F
3F
3F
3F
3F
3F
3F
3F
3F
3F
3F
3F
3F
3F
3F
3F
3F
3F
3F
3F
3F
3F
3F
3F
3F
3C
78
78
F8
F8
FF
7F
3E
ENDCHAR
STARTCHAR 012F
ENCODING 303
SWIDTH 288 0
DWIDTH 12 0
BBX 8 38 1 -8
BITMAP
3F
3F
3F
3F
00
00
00
00
3F
3F
3F
3F
3F
3F
3F
3F
3F
3F
3F
3F
3F
3F
3F
3F
3F
3F
3F
3F
3F
3F
3C
78
78
F8
F8
FF
7F
3E
ENDCHAR
STARTCHAR 0130
ENCODING 304
SWIDTH 288 0
DWIDTH 12 0
BBX 6 39 3 0
BITMAP
FC
FC
FC
FC
FC
FC
00
00
00
FC
FC
FC
FC
FC
FC
FC
FC
FC
FC
FC
FC
FC
FC
FC
FC
FC
FC
FC
FC
FC
FC
FC
FC
FC
FC
FC
FC
FC
FC
ENDCHAR
STARTCHAR 0131
ENCODING 305
SWIDTH 288 0
DWIDTH 12 0
BBX 6 22 3 0
BITMAP
FC
FC
FC
FC
FC
FC
FC
FC
FC
FC
FC
FC
FC
FC
FC
FC
FC
FC
FC
FC
FC
FC
ENDCHAR
STARTCHAR 0132
ENCODING 306
SWIDTH 792 0
DWIDTH 33 0
BBX 27 30 3 0
BITMAP
FC0007E0
FC0007E0
FC0007E0
FC0007E0
FC0007E0
FC0007E0
FC0007E0
FC0007E0
FC0007E0
FC0007E0
FC0007E0
FC0007E0
FC0007E0
FC0007E0
FC0007E0
FC0007E0
FC0007E0
FC0007E0
FC0007E0
FC0007E0
FC1807E0
FCFC07E0
FCFC07E0
FCFC0FE0
FCFE1FC0
FC7FFFC0
FC7FFF80
FC3FFF00
FC1FFE00
FC07F800
ENDCHAR
STARTCHAR 0133
ENCODING 307
SWIDTH 552 0
DWIDTH 23 0
BBX 17 38 3 -8
BITMAP
FC1F80
FC1F80
FC1F80
FC1F80
000000
000000
000000
000000
FC1F80
FC1F80
FC1F80
FC1F80
FC1F80
FC1F80
FC1F80
FC1F80
FC1F80
FC1F80
FC1F80
FC1F80
FC1F80
FC1F80
FC1F80
FC1F80
FC1F80
FC1F80
FC1F80
FC1F80
FC1F80
FC1F80
001F80
001F80
003F00
01FF00
01FF00
03FF00
03FE00
03F800
ENDCHAR
STARTCHAR 0134
ENCODING 308
SWIDTH 552 0
DWIDTH 23 0
BBX 23 39 1 0
BITMAP
0007E0
000FF0
000FF0
001FF8
003E7C
007C3E
000000
000000
000000
0007E0
0007E0
0007E0
0007E0
0007E0
0007E0
0007E0
0007E0
0007E0
0007E0
0007E0
0007E0
0007E0
0007E0
0007E0
0007E0
0007E0
0007E0
0007E0
0007E0
1807E0
FC07E0
FC07E0
FC0FE0
FE1FC0
7FFFC0
7FFF80
3FFF00
1FFE00
07F800
ENDCHAR
STARTCHAR 0135
ENCODING 309
SWIDTH 288 0
DWIDTH 12 0
BBX 14 39 -2 -8
BITMAP
07E0
0FF0
1FF0
1EF8
3E7C
7C3C
0000
0000
0000
07E0
07E0
07E0
07E0
07E0
07E0
07E0
07E0
07E0
07E0
07E0
07E0
07E0
07E0
07E0
07E0
07E0
07E0
07E0
07E0
07E0
07E0
07E0
07E0
0FC0
7FC0
7FC0
FFC0
FF80
FE00
ENDCHAR
STARTCHAR 0136
ENCODING 310
SWIDTH 720 0
DWIDTH 30 0
BBX 27 38 3 -8
BITMAP
FC003FC0
FC007F80
FC00FF00
FC01FE00
FC03FC00
FC07F800
FC0FF000
FC1FE000
FC3FC000
FC7F8000
FCFF0000
FDFE0000
FFFF0000
FFFF8000
FFFF8000
FFFFC000
FFFFE000
FFCFE000
FF87F000
FF07F000
FE03F800
FC03FC00
FC01FC00
FC00FE00
FC00FF00
FC007F00
FC007F80
FC003FC0
FC001FC0
FC001FE0
007E0000
007F0000
000F8000
00078000
00078000
000F0000
03FE0000
03F80000
ENDCHAR
STARTCHAR 0137
ENCODING 311
SWIDTH 552 0
DWIDTH 23 0
BBX 20 38 3 -8
BITMAP
FC0000
FC0000
FC0000
FC0000
FC0000
FC0000
FC0000
FC0000
FC0FE0
FC1FC0
FC3F80
FC7F00
FCFE00
FCFC00
FDF800
FFF000
FFF000
FFF800
FFF800
FFFC00
FFFE00
FE7E00
FC3F00
FC3F00
FC1F80
FC1F80
FC0FC0
FC0FE0
FC07E0
FC07F0
03F000
03F800
007C00
003C00
003C00
007800
1FF000
1FC000
ENDCHAR
STARTCHAR 0138
ENCODING 312
SWIDTH 552 0
DWIDTH 23 0
BBX 20 22 3 0
BITMAP
FC0FE0
FC1FC0
FC3F80
FC7F00
FCFE00
FCFC00
FDF800
FFF800
FFF000
FFF800
FFF800
FFFC00
FF7E00
FE7E00
FC3F00
FC3F00
FC1F80
FC1F80
FC0FC0
FC0FE0
FC07E0
FC03F0
ENDCHAR
STARTCHAR 0139
ENCODING 313
SWIDTH 624 0
DWIDTH 26 0
BBX 21 39 3 0
BITMAP
00FE00
00FC00
01F800
01F000
01E000
03C000
000000
000000
000000
FC0000
FC0000
FC0000
FC0000
FC0000
FC0000
FC0000
FC0000
FC0000
FC0000
FC0000
FC0000
FC0000
FC0000
FC0000
FC0000
FC0000
FC0000
FC0000
FC0000
FC0000
FC0000
FC0000
FC0000
FC0000
FFFFF8
FFFFF8
FFFFF8
FFFFF8
FFFFF8
ENDCHAR
STARTCHAR 013A
ENCODING 314
SWIDTH 288 0
DWIDTH 12 0
BBX 9 39 3 0
BITMAP
3F80
3F00
7E00
7C00
7800
F000
0000
0000
0000
FC00
FC00
FC00
FC00
FC00
FC00
FC00
FC00
FC00
FC00
FC00
FC00
FC00
FC00
FC00
FC00
FC00
FC00
FC00
FC00
FC00
FC00
FC00
FC00
FC00
FC00
FC00
FC00
FC00
FC00
ENDCHAR
STARTCHAR 013B
ENCODING 315
SWIDTH 624 0
DWIDTH 26 0
BBX 21 38 3 -8
BITMAP
FC0000
FC0000
FC0000
FC0000
FC0000
FC0000
FC0000
FC0000
FC0000
FC0000
FC0000
FC0000
FC0000
FC0000
FC0000
FC0000
FC0000
FC0000
FC0000
FC0000
FC0000
FC0000
FC0000
FC0000
FC0000
FFFFF8
FFFFF8
FFFFF8
FFFFF8
FFFFF8
01F800
01FC00
003E00
001E00
001E00
003C00
0FF800
0FE000
ENDCHAR
STARTCHAR 013C
ENCODING 316
SWIDTH 288 0
DWIDTH 12 0
BBX 11 38 0 -8
BITMAP
1F80
1F80
1F80
1F80
1F80
1F80
1F80
1F80
1F80
1F80
1F80
1F80
1F80
1F80
1F80
1F80
1F80
1F80
1F80
1F80
1F80
1F80
1F80
1F80
1F80
1F80
1F80
1F80
1F80
1F80
1F80
1FC0
03E0
01E0
01E0
03C0
FF80
FE00
ENDCHAR
STARTCHAR 013D
ENCODING 317
SWIDTH 624 0
DWIDTH 26 0
BBX 21 30 3 0
BITMAP
FC03F0
FC03F0
FC03F0
FC03F0
FC03F0
FC03F0
FC0070
FC0070
FC00F0
FC01E0
FC03C0
FC0380
FC0100
FC0000
FC0000
FC0000
FC0000
FC0000
FC0000
FC0000
FC0000
FC0000
FC0000
FC0000
FC0000
FFFFF8
FFFFF8
FFFFF8
FFFFF8
FFFFF8
ENDCHAR
STARTCHAR 013E
ENCODING 318
SWIDTH 384 0
DWIDTH 16 0
BBX 13 30 3 0
BITMAP
FCF8
FCF8
FCF8
FCF8
FCF8
FC38
FC38
FC38
FC70
FCE0
FCC0
FC00
FC00
FC00
FC00
FC00
FC00
FC00
FC00
FC00
FC00
FC00
FC00
FC00
FC00
FC00
FC00
FC00
FC00
FC00
ENDCHAR
STARTCHAR 013F
ENCODING 319
SWIDTH 624 0
DWIDTH 26 0
BBX 21 30 3 0
BITMAP
FC0000
FC0000
FC0000
FC0000
FC0000
FC0000
FC0000
FC0000
FC0000
FDF800
FDF800
FDF800
FDF800
FDF800
FDF800
FC0000
FC0000
FC0000
FC0000
FC0000
FC0000
FC0000
FC0000
FC0000
FC0000
FFFFF8
FFFFF8
FFFFF8
FFFFF8
FFFFF8
ENDCHAR
STARTCHAR 0140
ENCODING 320
SWIDTH 480 0
DWIDTH 20 0
BBX 14 30 3 0
BITMAP
FC00
FC00
FC00
FC00
FC00
FC00
FC00
FC00
FC00
FC00
FC00
FCFC
FCFC
FCFC
FCFC
FCFC
FCFC
FC00
FC00
FC00
FC00
FC00
FC00
FC00
FC00
FC00
FC00
FC00
FC00
FC00
ENDCHAR
STARTCHAR 0141
ENCODING 321
SWIDTH 624 0
DWIDTH 26 0
BBX 25 30 0 0
BITMAP
1F800000
1F800000
1F800000
1F800000
1F800000
1F810000
1F830000
1F8F0000
1F9E0000
1FBC0000
1FF80000
1FE00000
1FC00000
1F800000
1F800000
1F800000
7F800000
FF800000
FF800000
9F800000
1F800000
1F800000
1F800000
1F800000
1F800000
1FFFFF80
1FFFFF80
1FFFFF80
1FFFFF80
1FFFFF80
ENDCHAR
STARTCHAR 0142
ENCODING 322
SWIDTH 288 0
DWIDTH 12 0
BBX 12 30 0 0
BITMAP
1F80
1F80
1F80
1F80
1F80
1F80
1F80
1F80
1FB0
1FF0
1FF0
1FE0
1F80
1F80
1F80
3F80
7F80
FF80
FF80
9F80
1F80
1F80
1F80
1F80
1F80
1F80
1F80
1F80
1F80
1F80
ENDCHAR
STARTCHAR 0143
ENCODING 323
SWIDTH 720 0
DWIDTH 30 0
BBX 24 39 3 0
BITMAP
001FC0
001F80
003F00
003E00
003C00
007800
000000
000000
000000
FC003F
FE003F
FE003F
FF003F
FF803F
FF803F
FFC03F
FFC03F
FFE03F
FFE03F
FDF03F
FDF83F
FCF83F
FCFC3F
FC7C3F
FC3E3F
FC3E3F
FC1F3F
FC1FBF
FC0FBF
FC0FFF
FC07FF
FC03FF
FC03FF
FC01FF
FC01FF
FC00FF
FC00FF
FC007F
FC003F
ENDCHAR
STARTCHAR 0144
ENCODING 324
SWIDTH 624 0
DWIDTH 26 0
BBX 20 31 3 0
BITMAP
007F00
007E00
00FC00
00F800
00F000
01E000
000000
000000
003E00
F8FF80
F9FFC0
FBFFE0
FF0FE0
FE07F0
FC03F0
FC03F0
FC03F0
FC03F0
FC03F0
FC03F0
FC03F0
FC03F0
FC03F0
FC03F0
FC03F0
FC03F0
FC03F0
FC03F0
FC03F0
FC03F0
FC03F0
ENDCHAR
STARTCHAR 0145
ENCODING 325
SWIDTH 720 0
DWIDTH 30 0
BBX 24 38 3 -8
BITMAP
FC003F
FE003F
FE003F
FF003F
FF803F
FF803F
FFC03F
FFC03F
FFE03F
FFE03F
FDF03F
FDF83F
FCF83F
FCFC3F
FC7C3F
FC3E3F
FC3E3F
FC1F3F
FC1FBF
FC0FBF
FC0FFF
FC07FF
FC03FF
FC03FF
FC01FF
FC01FF
FC00FF
FC00FF
FC007F
FC003F
007E00
007F00
000F80
000780
000780
000F00
03FE00
03F800
ENDCHAR
STARTCHAR 0146
ENCODING 326
SWIDTH 624 0
DWIDTH 26 0
BBX 20 31 3 -8
BITMAP
003E00
F8FF80
F9FFC0
FBFFE0
FF0FE0
FE07F0
FC03F0
FC03F0
FC03F0
FC03F0
FC03F0
FC03F0
FC03F0
FC03F0
FC03F0
FC03F0
FC03F0
FC03F0
FC03F0
FC03F0
FC03F0
FC03F0
FC03F0
01F800
01FC00
003E00
001E00
001E00
003C00
0FF800
0FE000
ENDCHAR
STARTCHAR 0147
ENCODING 327
SWIDTH 720 0
DWIDTH 30 0
BBX 24 39 3 0
BITMAP
07C3E0
03E7C0
01FF80
00FF00
00FF00
007E00
000000
000000
000000
FC003F
FE003F
FE003F
FF003F
FF803F
FF803F
FFC03F
FFC03F
FFE03F
FFE03F
FDF03F
FDF83F
FCF83F
FCFC3F
FC7C3F
FC3E3F
FC3E3F
FC1F3F
FC1FBF
FC0FBF
FC0FFF
FC07FF
FC03FF
FC03FF
FC01FF
FC01FF
FC00FF
FC00FF
FC007F
FC003F
ENDCHAR
STARTCHAR 0148
ENCODING 328
SWIDTH 624 0
DWIDTH 26 0
BBX 20 31 3 0
BITMAP
1F0F80
0F9F00
07FE00
03FC00
03FC00
01F800
000000
000000
003E00
F8FF80
F9FFC0
FBFFE0
FF0FE0
FE07F0
FC03F0
FC03F0
FC03F0
FC03F0
FC03F0
FC03F0
FC03F0
FC03F0
FC03F0
FC03F0
FC03F0
FC03F0
FC03F0
FC03F0
FC03F0
FC03F0
FC03F0
ENDCHAR
STARTCHAR 0149
ENCODING 329
SWIDTH 720 0
DWIDTH 30 0
BBX 28 30 -1 0
BITMAP
FC000000
FC000000
FC000000
FC000000
FC000000
FC000000
1C000000
38003E00
38F8FF80
78F9FFC0
F0FBFFE0
E0FF0FE0
C0FE07F0
00FC03F0
00FC03F0
00FC03F0
00FC03F0
00FC03F0
00FC03F0
00FC03F0
00FC03F0
00FC03F0
00FC03F0
00FC03F0
00FC03F0
00FC03F0
00FC03F0
00FC03F0
00FC03F0
00FC03F0
ENDCHAR
STARTCHAR 014A
ENCODING 330
SWIDTH 720 0
DWIDTH 30 0
BBX 25 30 3 0
BITMAP
FC0FE000
FC3FF800
FCFFFC00
FDFFFE00
FFFFFF00
FFE0FF00
FF807F00
FF003F80
FE003F80
FE003F80
FC001F80
FC001F80
FC001F80
FC001F80
FC001F80
FC001F80
FC001F80
FC001F80
FC001F80
FC001F80
FC001F80
FC001F80
FC001F80
FC003F80
FC0C7F00
FC0FFF00
FC0FFF00
FC1FFE00
FC1FFC00
FC0FF000
ENDCHAR
STARTCHAR 014B
ENCODING 331
SWIDTH 624 0
DWIDTH 26 0
BBX 20 32 3 -9
BITMAP
003E00
F8FF80
F9FFC0
FBFFE0
FF0FE0
FE07F0
FC03F0
FC03F0
FC03F0
FC03F0
FC03F0
FC03F0
FC03F0
FC03F0
FC03F0
FC03F0
FC03F0
FC03F0
FC03F0
FC03F0
FC03F0
FC03F0
FC03F0
0003F0
0003F0
0003F0
0007F0
003FE0
003FE0
003FE0
007FC0
003F00
ENDCHAR
STARTCHAR 014C
ENCODING 332
SWIDTH 792 0
DWIDTH 33 0
BBX 29 37 2 0
BITMAP
01FFF800
01FFF800
01FFF800
01FFF800
00000000
00000000
00000000
003FE000
01FFF800
07FFFE00
0FFFFF00
1FFFFF80
3FE07FC0
3F801FE0
7F000FE0
7F0007F0
7E0003F0
FE0003F0
FC0003F8
FC0001F8
FC0001F8
FC0001F8
FC0001F8
FC0001F8
FC0003F8
FC0003F8
FE0003F8
7E0003F0
7F0007F0
7F000FF0
3FC01FE0
3FF07FC0
1FFFFFC0
0FFFFF80
07FFFE00
01FFFC00
003FE000
ENDCHAR
STARTCHAR 014D
ENCODING 333
SWIDTH 624 0
DWIDTH 26 0
BBX 22 29 2 0
BITMAP
0FFFC0
0FFFC0
0FFFC0
0FFFC0
000000
000000
01FC00
07FF80
0FFFC0
1FFFE0
3F87F0
7F03F8
7E01F8
FC00FC
FC00FC
FC00FC
FC00FC
FC00FC
FC00FC
FC00FC
FC00FC
FC00FC
7E01F8
7E03F8
3F87F0
3FFFE0
1FFFC0
07FF80
01FC00
ENDCHAR
STARTCHAR 014E
ENCODING 334
SWIDTH 792 0
DWIDTH 33 0
BBX 29 39 2 0
BITMAP
00C07000
00E07000
00F0F000
007FE000
003FC000
001F8000
00000000
00000000
00000000
003FE000
01FFF800
07FFFE00
0FFFFF00
1FFFFF80
3FE07FC0
3F801FE0
7F000FE0
7F0007F0
7E0003F0
FE0003F0
FC0003F8
FC0001F8
FC0001F8
FC0001F8
FC0001F8
FC0001F8
FC0003F8
FC0003F8
FE0003F8
7E0003F0
7F0007F0
7F000FF0
3FC01FE0
3FF07FC0
1FFFFFC0
0FFFFF80
07FFFE00
01FFFC00
003FE000
ENDCHAR
STARTCHAR 014F
ENCODING 335
SWIDTH 624 0
DWIDTH 26 0
BBX 22 31 2 0
BITMAP
060380
070380
078780
03FF00
01FE00
00FC00
000000
000000
01FC00
07FF80
0FFFC0
1FFFE0
3F87F0
7F03F8
7E01F8
FC00FC
FC00FC
FC00FC
FC00FC
FC00FC
FC00FC
FC00FC
FC00FC
FC00FC
7E01F8
7E03F8
3F87F0
3FFFE0
1FFFC0
07FF80
01FC00
ENDCHAR
STARTCHAR 0150
ENCODING 336
SWIDTH 792 0
DWIDTH 33 0
BBX 29 39 2 0
BITMAP
001F3F00
003F3E00
003E7C00
007C7800
0078F800
00F0F000
00000000
00000000
00000000
003FE000
01FFF800
07FFFE00
0FFFFF00
1FFFFF80
3FE07FC0
3F801FE0
7F000FE0
7F0007F0
7E0003F0
FE0003F0
FC0003F8
FC0001F8
FC0001F8
FC0001F8
FC0001F8
FC0001F8
FC0003F8
FC0003F8
FE0003F8
7E0003F0
7F0007F0
7F000FF0
3FC01FE0
3FF07FC0
1FFFFFC0
0FFFFF80
07FFFE00
01FFFC00
003FE000
ENDCHAR
STARTCHAR 0151
ENCODING 337
SWIDTH 624 0
DWIDTH 26 0
BBX 22 31 2 0
BITMAP
01F3F0
03F3E0
03E7C0
07C780
078F80
0F0F00
000000
000000
01FC00
07FF80
0FFFC0
1FFFE0
3F87F0
7F03F8
7E01F8
FC00FC
FC00FC
FC00FC
FC00FC
FC00FC
FC00FC
FC00FC
FC00FC
FC00FC
7E01F8
7E03F8
3F87F0
3FFFE0
1FFFC0
07FF80
01FC00
ENDCHAR
STARTCHAR 0152
ENCODING 338
SWIDTH 1008 0
DWIDTH 42 0
BBX 40 30 1 0
BITMAP
007F0FFFFE
03FFCFFFFE
07FFFFFFFE
0FFFFFFFFE
1FFFFFFFFE
1FE0FFC000
3F803FC000
3F003FC000
7F001FC000
7E001FC000
7E000FC000
7E000FC000
7E000FFFFC
FE000FFFFC
FE000FFFFC
FE000FFFFC
7E000FFFFC
7E000FC000
7E000FC000
7E000FC000
7E001FC000
7F001FC000
3F003FC000
3F803FC000
1FE0FFC000
1FFFFFFFFF
0FFFFFFFFF
07FFFFFFFF
03FFCFFFFF
007F0FFFFF
ENDCHAR
STARTCHAR 0153
ENCODING 339
SWIDTH 960 0
DWIDTH 40 0
BBX 36 23 2 0
BITMAP
01FC03F800
07FF8FFE00
0FFFDFFF80
1FFFFFFF80
3F87FF0FC0
7F03FE07E0
7E01FC03E0
FC01FC03E0
FC00FC03F0
FC00FFFFF0
FC00FFFFF0
FC00FFFFF0
FC00FFFFF0
FC00FC0000
FC00FC0000
FC01FC0000
7E01FC0380
7F03FE07E0
3F87FF0FE0
1FFFFFFFC0
0FFFDFFF80
07FF8FFF00
01FC01FC00
ENDCHAR
STARTCHAR 0154
ENCODING 340
SWIDTH 720 0
DWIDTH 30 0
BBX 27 39 3 0
BITMAP
007F0000
007E0000
00FC0000
00F80000
00F00000
01E00000
00000000
00000000
00000000
FFFFE000
FFFFF800
FFFFFC00
FFFFFE00
FFFFFF00
FC007F00
FC003F00
FC003F80
FC003F80
FC003F80
FC003F00
FC00FF00
FFFFFF00
FFFFFE00
FFFFFC00
FFFFF000
FFFF8000
FC1FE000
FC0FF000
FC07F000
FC03F800
FC03FC00
FC01FE00
FC00FE00
FC00FF00
FC007F00
FC003F80
FC003FC0
FC001FC0
FC000FE0
ENDCHAR
STARTCHAR 0155
ENCODING 341
SWIDTH 384 0
DWIDTH 16 0
BBX 14 31 3 0
BITMAP
07F0
07E0
0FC0
0F80
0F00
1E00
0000
0000
00F8
F9FC
FBF8
FFF8
FFF8
FF10
FE00
FC00
FC00
FC00
FC00
FC00
FC00
FC00
FC00
FC00
FC00
FC00
FC00
FC00
FC00
FC00
FC00
ENDCHAR
STARTCHAR 0156
ENCODING 342
SWIDTH 720 0
DWIDTH 30 0
BBX 27 38 3 -8
BITMAP
FFFFE000
FFFFF800
FFFFFC00
FFFFFE00
FFFFFF00
FC007F00
FC003F00
FC003F80
FC003F80
FC003F80
FC003F00
FC00FF00
FFFFFF00
FFFFFE00
FFFFFC00
FFFFF000
FFFF8000
FC1FE000
FC0FF000
FC07F000
FC03F800
FC03FC00
FC01FE00
FC00FE00
FC00FF00
FC007F00
FC003F80
FC003FC0
FC001FC0
FC000FE0
007E0000
007F0000
000F8000
00078000
00078000
000F0000
03FE0000
03F80000
ENDCHAR
STARTCHAR 0157
ENCODING 343
SWIDTH 384 0
DWIDTH 16 0
BBX 16 31 1 -8
BITMAP
003E
3E7F
3EFE
3FFE
3FFE
3FC4
3F80
3F00
3F00
3F00
3F00
3F00
3F00
3F00
3F00
3F00
3F00
3F00
3F00
3F00
3F00
3F00
3F00
1F80
1FC0
03E0
01E0
01E0
03C0
FF80
FE00
ENDCHAR
STARTCHAR 0158
ENCODING 344
SWIDTH 720 0
DWIDTH 30 0
BBX 27 39 3 0
BITMAP
1F0F8000
0F9F0000
07FE0000
03FC0000
03FC0000
01F80000
00000000
00000000
00000000
FFFFE000
FFFFF800
FFFFFC00
FFFFFE00
FFFFFF00
FC007F00
FC003F00
FC003F80
FC003F80
FC003F80
FC003F00
FC00FF00
FFFFFF00
FFFFFE00
FFFFFC00
FFFFF000
FFFF8000
FC1FE000
FC0FF000
FC07F000
FC03F800
FC03FC00
FC01FE00
FC00FE00
FC00FF00
FC007F00
FC003F80
FC003FC0
FC001FC0
FC000FE0
ENDCHAR
STARTCHAR 0159
ENCODING 345
SWIDTH 384 0
DWIDTH 16 0
BBX 15 31 2 0
BITMAP
F87C
7CF8
3FF0
1FE0
1FE0
0FC0
0000
0000
007C
7CFE
7DFC
7FFC
7FFC
7F88
7F00
7E00
7E00
7E00
7E00
7E00
7E00
7E00
7E00
7E00
7E00
7E00
7E00
7E00
7E00
7E00
7E00
ENDCHAR
STARTCHAR 015A
ENCODING 346
SWIDTH 672 0
DWIDTH 28 0
BBX 24 39 2 0
BITMAP
001FC0
001F80
003F00
003E00
003C00
007800
000000
000000
000000
01FF00
07FFE0
1FFFF0
3FFFF8
3FFFFC
7F01FC
7E00FE
7C007E
7E007E
7E0000
7FC000
3FFC00
3FFF80
1FFFF0
07FFF8
01FFFC
001FFE
0001FE
00007F
3C003F
FC003F
FC003F
FE007F
FF007F
7F81FE
7FFFFE
3FFFFC
1FFFF8
07FFE0
01FF80
ENDCHAR
STARTCHAR 015B
ENCODING 347
SWIDTH 552 0
DWIDTH 23 0
BBX 20 31 1 0
BITMAP
003F80
003F00
007E00
007C00
007800
00F000
000000
000000
03FC00
0FFF80
3FFFC0
3FFFC0
7E0FE0
7C07E0
7C0380
7E0000
7F8000
7FF000
3FFF00
1FFFC0
07FFE0
00FFF0
000FF0
0003F0
1C01F0
FC03F0
7F07F0
7FFFE0
3FFFC0
0FFF80
03FE00
ENDCHAR
STARTCHAR 015C
ENCODING 348
SWIDTH 672 0
DWIDTH 28 0
BBX 24 39 2 0
BITMAP
007E00
00FF00
00FF00
01FF80
03E7C0
07C3E0
000000
000000
000000
01FF00
07FFE0
1FFFF0
3FFFF8
3FFFFC
7F01FC
7E00FE
7C007E
7E007E
7E0000
7FC000
3FFC00
3FFF80
1FFFF0
07FFF8
01FFFC
001FFE
0001FE
00007F
3C003F
FC003F
FC003F
FE007F
FF007F
7F81FE
7FFFFE
3FFFFC
1FFFF8
07FFE0
01FF80
ENDCHAR
STARTCHAR 015D
ENCODING 349
SWIDTH 552 0
DWIDTH 23 0
BBX 20 31 1 0
BITMAP
00FC00
01FE00
01FE00
03FF00
07CF80
0F87C0
000000
000000
03FC00
0FFF80
3FFFC0
3FFFC0
7E0FE0
7C07E0
7C0380
7E0000
7F8000
7FF000
3FFF00
1FFFC0
07FFE0
00FFF0
000FF0
0003F0
1C01F0
FC03F0
7F07F0
7FFFE0
3FFFC0
0FFF80
03FE00
ENDCHAR
STARTCHAR 015E
ENCODING 350
SWIDTH 672 0
DWIDTH 28 0
BBX 24 38 2 -8
BITMAP
01FF00
07FFE0
1FFFF0
3FFFF8
3FFFFC
7F01FC
7E00FE
7C007E
7E007E
7E0000
7FC000
3FFC00
3FFF80
1FFFF0
07FFF8
01FFFC
001FFE
0001FE
00007F
3C003F
FC003F
FC003F
FE007F
FF007F
7F81FE
7FFFFE
3FFFFC
1FFFF8
07FFE0
01FF80
007F00
007F80
0007C0
0003C0
0003C0
000780
01FF80
01FC00
ENDCHAR
STARTCHAR 015F
ENCODING 351
SWIDTH 552 0
DWIDTH 23 0
BBX 20 31 1 -8
BITMAP
03FC00
0FFF80
3FFFC0
3FFFC0
7E0FE0
7C07E0
7C0380
7E0000
7F8000
7FF000
3FFF00
1FFFC0
07FFE0
00FFF0
000FF0
0003F0
1C01F0
FC03F0
7F07F0
7FFFE0
3FFFC0
0FFF80
03FE00
00FE00
00FF00
000F80
000780
000780
000F00
03FF00
03F800
ENDCHAR
STARTCHAR 0160
ENCODING 352
SWIDTH 672 0
DWIDTH 28 0
BBX 24 39 2 0
BITMAP
07C3E0
03E7C0
01FF80
00FF00
00FF00
007E00
000000
000000
000000
01FF00
07FFE0
1FFFF0
3FFFF8
3FFFFC
7F01FC
7E00FE
7C007E
7E007E
7E0000
7FC000
3FFC00
3FFF80
1FFFF0
07FFF8
01FFFC
001FFE
0001FE
00007F
3C003F
FC003F
FC003F
FE007F
FF007F
7F81FE
7FFFFE
3FFFFC
1FFFF8
07FFE0
01FF80
ENDCHAR
STARTCHAR 0161
ENCODING 353
SWIDTH 552 0
DWIDTH 23 0
BBX 20 31 1 0
BITMAP
1F0F80
0F9F00
07FE00
03FC00
03FC00
01F800
000000
000000
03FC00
0FFF80
3FFFC0
3FFFC0
7E0FE0
7C07E0
7C0380
7E0000
7F8000
7FF000
3FFF00
1FFFC0
07FFE0
00FFF0
000FF0
0003F0
1C01F0
FC03F0
7F07F0
7FFFE0
3FFFC0
0FFF80
03FE00
ENDCHAR
STARTCHAR 0162
ENCODING 354
SWIDTH 624 0
DWIDTH 26 0
BBX 24 38 1 -8
BITMAP
FFFFFF
FFFFFF
FFFFFF
FFFFFF
FFFFFF
007E00
007E00
007E00
007E00
007E00
007E00
007E00
007E00
007E00
007E00
007E00
007E00
007E00
007E00
007E00
007E00
007E00
007E00
007E00
007E00
007E00
007E00
007E00
007E00
007E00
00FE00
00FF00
000F80
000780
000780
000F00
03FF00
03F800
ENDCHAR
STARTCHAR 0163
ENCODING 355
SWIDTH 336 0
DWIDTH 14 0
BBX 13 37 1 -8
BITMAP
0100
0700
1F00
3F00
3F00
3F00
3F00
FFF0
FFF0
FFF0
FFF0
3F00
3F00
3F00
3F00
3F00
3F00
3F00
3F00
3F00
3F00
3F00
3F00
3F00
3F80
1FF0
1FF0
0FF0
07F0
0FE0
0FF0
00F8
0078
0078
00F0
3FF0
3F80
ENDCHAR
STARTCHAR 0164
ENCODING 356
SWIDTH 624 0
DWIDTH 26 0
BBX 24 39 1 0
BITMAP
07C3E0
03E7C0
01FF80
00FF00
00FF00
007E00
000000
000000
000000
FFFFFF
FFFFFF
FFFFFF
FFFFFF
FFFFFF
007E00
007E00
007E00
007E00
007E00
007E00
007E00
007E00
007E00
007E00
007E00
007E00
007E00
007E00
007E00
007E00
007E00
007E00
007E00
007E00
007E00
007E00
007E00
007E00
007E00
ENDCHAR
STARTCHAR 0165
ENCODING 357
SWIDTH 480 0
DWIDTH 20 0
BBX 19 30 1 0
BITMAP
0003E0
0103E0
0703E0
1F03E0
3F03E0
3F00E0
3F00E0
3F00E0
FFF1C0
FFF380
FFF300
FFF000
3F0000
3F0000
3F0000
3F0000
3F0000
3F0000
3F0000
3F0000
3F0000
3F0000
3F0000
3F0000
3F0000
3F0000
1FF000
1FF000
0FF000
07F000
ENDCHAR
STARTCHAR 0166
ENCODING 358
SWIDTH 624 0
DWIDTH 26 0
BBX 24 30 1 0
BITMAP
FFFFFF
FFFFFF
FFFFFF
FFFFFF
FFFFFF
007E00
007E00
007E00
007E00
007E00
007E00
007E00
007E00
007E00
007E00
3FFFF8
3FFFF8
3FFFF8
3FFFF8
007E00
007E00
007E00
007E00
007E00
007E00
007E00
007E00
007E00
007E00
007E00
ENDCHAR
STARTCHAR 0167
ENCODING 359
SWIDTH 336 0
DWIDTH 14 0
BBX 13 29 0 0
BITMAP
0080
0380
0F80
1F80
1F80
1F80
1F80
FFF8
FFF8
FFF8
FFF8
1F80
1F80
1F80
1F80
1F80
FFF0
FFF0
FFF0
FFF0
1F80
1F80
1F80
1F80
1F88
1FF8
0FF8
0FF8
03F0
ENDCHAR
STARTCHAR 0168
ENCODING 360
SWIDTH 720 0
DWIDTH 30 0
BBX 24 38 3 0
BITMAP
01E0E0
07F8E0
07FFE0
071FC0
060780
000000
000000
000000
FC003F
FC003F
FC003F
FC003F
FC003F
FC003F
FC003F
FC003F
FC003F
FC003F
FC003F
FC003F
FC003F
FC003F
FC003F
FC003F
FC003F
FC003F
FC003F
FC003F
FC003F
FC003F
FE007F
7F007E
7F81FE
3FFFFE
3FFFFC
1FFFF8
07FFE0
01FF80
ENDCHAR
STARTCHAR 0169
ENCODING 361
SWIDTH 624 0
DWIDTH 26 0
BBX 20 30 3 0
BITMAP
078380
1FE380
1FFF80
1C7F00
181E00
000000
000000
000000
FC03F0
FC03F0
FC03F0
FC03F0
FC03F0
FC03F0
FC03F0
FC03F0
FC03F0
FC03F0
FC03F0
FC03F0
FC03F0
FC03F0
FC03F0
FC07F0
FC07F0
FE1FF0
7FFFF0
7FFFF0
3FFBF0
0FC3F0
ENDCHAR
STARTCHAR 016A
ENCODING 362
SWIDTH 720 0
DWIDTH 30 0
BBX 24 37 3 0
BITMAP
07FFE0
07FFE0
07FFE0
07FFE0
000000
000000
000000
FC003F
FC003F
FC003F
FC003F
FC003F
FC003F
FC003F
FC003F
FC003F
FC003F
FC003F
FC003F
FC003F
FC003F
FC003F
FC003F
FC003F
FC003F
FC003F
FC003F
FC003F
FC003F
FE007F
7F007E
7F81FE
3FFFFE
3FFFFC
1FFFF8
07FFE0
01FF80
ENDCHAR
STARTCHAR 016B
ENCODING 363
SWIDTH 624 0
DWIDTH 26 0
BBX 20 29 3 0
BITMAP
1FFF80
1FFF80
1FFF80
1FFF80
000000
000000
000000
FC03F0
FC03F0
FC03F0
FC03F0
FC03F0
FC03F0
FC03F0
FC03F0
FC03F0
FC03F0
FC03F0
FC03F0
FC03F0
FC03F0
FC03F0
FC07F0
FC07F0
FE1FF0
7FFFF0
7FFFF0
3FFBF0
0FC3F0
ENDCHAR
STARTCHAR 016C
ENCODING 364
SWIDTH 720 0
DWIDTH 30 0
BBX 24 39 3 0
BITMAP
0301C0
0381C0
03C3C0
01FF80
00FF00
007E00
000000
000000
000000
FC003F
FC003F
FC003F
FC003F
FC003F
FC003F
FC003F
FC003F
FC003F
FC003F
FC003F
FC003F
FC003F
FC003F
FC003F
FC003F
FC003F
FC003F
FC003F
FC003F
FC003F
FC003F
FE007F
7F007E
7F81FE
3FFFFE
3FFFFC
1FFFF8
07FFE0
01FF80
ENDCHAR
STARTCHAR 016D
ENCODING 365
SWIDTH 624 0
DWIDTH 26 0
BBX 20 31 3 0
BITMAP
0C0700
0E0700
0F0F00
07FE00
03FC00
01F800
000000
000000
000000
FC03F0
FC03F0
FC03F0
FC03F0
FC03F0
FC03F0
FC03F0
FC03F0
FC03F0
FC03F0
FC03F0
FC03F0
FC03F0
FC03F0
FC03F0
FC07F0
FC07F0
FE1FF0
7FFFF0
7FFFF0
3FFBF0
0FC3F0
ENDCHAR
STARTCHAR 016E
ENCODING 366
SWIDTH 720 0
DWIDTH 30 0
BBX 24 38 3 0
BITMAP
003C00
007E00
00E700
00C300
00C300
00E700
007E00
003C00
FC003F
FC003F
FC003F
FC003F
FC003F
FC003F
FC003F
FC003F
FC003F
FC003F
FC003F
FC003F
FC003F
FC003F
FC003F
FC003F
FC003F
FC003F
FC003F
FC003F
FC003F
FC003F
FE007F
7F007E
7F81FE
3FFFFE
3FFFFC
1FFFF8
07FFE0
01FF80
ENDCHAR
STARTCHAR 016F
ENCODING 367
SWIDTH 624 0
DWIDTH 26 0
BBX 20 33 3 0
BITMAP
00F000
01F800
039C00
030C00
030C00
039C00
01F800
00F000
000000
000000
000000
FC03F0
FC03F0
FC03F0
FC03F0
FC03F0
FC03F0
FC03F0
FC03F0
FC03F0
FC03F0
FC03F0
FC03F0
FC03F0
FC03F0
FC03F0
FC07F0
FC07F0
FE1FF0
7FFFF0
7FFFF0
3FFBF0
0FC3F0
ENDCHAR
STARTCHAR 0170
ENCODING 368
SWIDTH 720 0
DWIDTH 30 0
BBX 24 39 3 0
BITMAP
007CFC
00FCF8
00F9F0
01F1E0
01E3E0
03C3C0
000000
000000
000000
FC003F
FC003F
FC003F
FC003F
FC003F
FC003F
FC003F
FC003F
FC003F
FC003F
FC003F
FC003F
FC003F
FC003F
FC003F
FC003F
FC003F
FC003F
FC003F
FC003F
FC003F
FC003F
FE007F
7F007E
7F81FE
3FFFFE
3FFFFC
1FFFF8
07FFE0
01FF80
ENDCHAR
STARTCHAR 0171
ENCODING 369
SWIDTH 624 0
DWIDTH 26 0
BBX 20 31 3 0
BITMAP
01F3F0
03F3E0
03E7C0
07C780
078F80
0F0F00
000000
000000
000000
FC03F0
FC03F0
FC03F0
FC03F0
FC03F0
FC03F0
FC03F0
FC03F0
FC03F0
FC03F0
FC03F0
FC03F0
FC03F0
FC03F0
FC03F0
FC07F0
FC07F0
FE1FF0
7FFFF0
7FFFF0
3FFBF0
0FC3F0
ENDCHAR
STARTCHAR 0172
ENCODING 370
SWIDTH 720 0
DWIDTH 30 0
BBX 24 38 3 -8
BITMAP
FC003F
FC003F
FC003F
FC003F
FC003F
FC003F
FC003F
FC003F
FC003F
FC003F
FC003F
FC003F
FC003F
FC003F
FC003F
FC003F
FC003F
FC003F
FC003F
FC003F
FC003F
FC003F
FE007F
7F007E
7F81FE
3FFFFE
3FFFFC
1FFFF8
07FFE0
01FF80
000F00
001E00
001E00
003E00
003E00
003FC0
001FC0
000F80
ENDCHAR
STARTCHAR 0173
ENCODING 371
SWIDTH 624 0
DWIDTH 26 0
BBX 20 30 3 -8
BITMAP
FC03F0
FC03F0
FC03F0
FC03F0
FC03F0
FC03F0
FC03F0
FC03F0
FC03F0
FC03F0
FC03F0
FC03F0
FC03F0
FC03F0
FC03F0
FC07F0
FC07F0
FE1FF0
7FFFF0
7FFFF0
3FFBF0
0FC3F0
0003C0
000780
000780
000F80
000F80
000FF0
0007F0
0003E0
ENDCHAR
STARTCHAR 0174
ENCODING 372
SWIDTH 960 0
DWIDTH 40 0
BBX 39 39 0 0
BITMAP
00007E0000
0000FF0000
0000FF0000
0001FF8000
0003E7C000
0007C3E000
0000000000
0000000000
0000000000
FC00FF007E
FE00FF007E
7E00FF007E
7E01FF007E
7E01FF80FE
7F01FF80FC
3F01FF80FC
3F03FF80FC
3F03FFC0FC
3F03EFC1F8
1F83E7C1F8
1F87E7C1F8
1F87E7E1F8
1F87C7E3F0
0FC7C3E3F0
0FCFC3F3F0
0FCFC3F3F0
0FCF81F3E0
07DF81F7E0
07FF81FFE0
07FF01FFE0
07FF00FFC0
03FF00FFC0
03FF00FFC0
03FE00FFC0
03FE007F80
03FE007F80
01FE007F80
01FC007F80
01FC003F00
ENDCHAR
STARTCHAR 0175
ENCODING 373
SWIDTH 792 0
DWIDTH 33 0
BBX 33 31 0 0
BITMAP
0007E00000
000FF00000
000FF00000
001FF80000
003E7C0000
007C3E0000
0000000000
0000000000
0000000000
FC07E01F80
7C07F01F00
7C07F03F00
7E07F03F00
3E0FF03E00
3E0FF87E00
3F0FF87E00
1F0FF87C00
1F1F787C00
1F1F7CFC00
1F9F7CF800
0F9E7CF800
0FBE3DF800
0FFE3FF000
07FE3FF000
07FC3FF000
07FC1FE000
03FC1FE000
03FC1FE000
03F81FC000
01F80FC000
01F80FC000
ENDCHAR
STARTCHAR 0176
ENCODING 374
SWIDTH 672 0
DWIDTH 28 0
BBX 28 39 0 0
BITMAP
001F8000
003FC000
003FC000
007FE000
00F9F000
01F0F800
00000000
00000000
00000000
FE0007F0
7F000FE0
3F800FC0
3F801FC0
1FC03F80
1FC03F80
0FE07F00
07E07E00
07F0FE00
03F8FC00
01F9F800
01FFF800
00FFF000
00FFF000
007FE000
003FC000
003FC000
001F8000
001F8000
001F8000
001F8000
001F8000
001F8000
001F8000
001F8000
001F8000
001F8000
001F8000
001F8000
001F8000
ENDCHAR
STARTCHAR 0177
ENCODING 375
SWIDTH 552 0
DWIDTH 23 0
BBX 23 39 0 -8
BITMAP
007E00
00FF00
00FF00
01FF80
03E7C0
07C3E0
000000
000000
000000
FE007E
7E00FC
7E00FC
3F00F8
3F01F8
3F01F8
1F81F0
1F83F0
1F83F0
0FC3E0
0FC7E0
07C7E0
07E7C0
07EFC0
03EF80
03FF80
01FF80
01FF00
01FF00
00FF00
00FE00
00FE00
00FC00
00FC00
01FC00
03F800
3FF800
3FF000
3FE000
3F8000
ENDCHAR
STARTCHAR 0178
ENCODING 376
SWIDTH 672 0
DWIDTH 28 0
BBX 28 37 0 0
BITMAP
01F0F800
01F0F800
01F0F800
01F0F800
00000000
00000000
00000000
FE0007F0
7F000FE0
3F800FC0
3F801FC0
1FC03F80
1FC03F80
0FE07F00
07E07E00
07F0FE00
03F8FC00
01F9F800
01FFF800
00FFF000
00FFF000
007FE000
003FC000
003FC000
001F8000
001F8000
001F8000
001F8000
001F8000
001F8000
001F8000
001F8000
001F8000
001F8000
001F8000
001F8000
001F8000
ENDCHAR
STARTCHAR 0179
ENCODING 377
SWIDTH 624 0
DWIDTH 26 0
BBX 25 39 0 0
BITMAP
001FC000
001F8000
003F0000
003E0000
003C0000
00780000
00000000
00000000
00000000
3FFFFF00
3FFFFF00
3FFFFF00
3FFFFF00
3FFFFF00
0000FE00
0001FC00
0003FC00
0007F800
000FF000
000FE000
001FC000
003FC000
007F8000
00FF0000
00FE0000
01FC0000
03FC0000
07F80000
0FF00000
1FE00000
1FE00000
3FC00000
7F800000
FF000000
FFFFFF80
FFFFFF80
FFFFFF80
FFFFFF80
FFFFFF80
ENDCHAR
STARTCHAR 017A
ENCODING 378
SWIDTH 504 0
DWIDTH 21 0
BBX 19 31 1 0
BITMAP
00FE00
00FC00
01F800
01F000
01E000
03C000
000000
000000
000000
FFFFE0
FFFFE0
FFFFE0
FFFFE0
003FC0
003F80
007F80
00FF00
01FE00
03FC00
03F800
07F800
0FF000
1FE000
3FC000
3F8000
7F8000
FF0000
FFFFE0
FFFFE0
FFFFE0
FFFFE0
ENDCHAR
STARTCHAR 017B
ENCODING 379
SWIDTH 624 0
DWIDTH 26 0
BBX 25 39 0 0
BITMAP
003F0000
003F0000
003F0000
003F0000
003F0000
003F0000
00000000
00000000
00000000
3FFFFF00
3FFFFF00
3FFFFF00
3FFFFF00
3FFFFF00
0000FE00
0001FC00
0003FC00
0007F800
000FF000
000FE000
001FC000
003FC000
007F8000
00FF0000
00FE0000
01FC0000
03FC0000
07F80000
0FF00000
1FE00000
1FE00000
3FC00000
7F800000
FF000000
FFFFFF80
FFFFFF80
FFFFFF80
FFFFFF80
FFFFFF80
ENDCHAR
STARTCHAR 017C
ENCODING 380
SWIDTH 504 0
DWIDTH 21 0
BBX 19 31 1 0
BITMAP
03F000
03F000
03F000
03F000
03F000
03F000
000000
000000
000000
FFFFE0
FFFFE0
FFFFE0
FFFFE0
003FC0
003F80
007F80
00FF00
01FE00
03FC00
03F800
07F800
0FF000
1FE000
3FC000
3F8000
7F8000
FF0000
FFFFE0
FFFFE0
FFFFE0
FFFFE0
ENDCHAR
STARTCHAR 017D
ENCODING 381
SWIDTH 624 0
DWIDTH 26 0
BBX 25 39 0 0
BITMAP
03E1F000
01F3E000
00FFC000
007F8000
007F8000
003F0000
00000000
00000000
00000000
3FFFFF00
3FFFFF00
3FFFFF00
3FFFFF00
3FFFFF00
0000FE00
0001FC00
0003FC00
0007F800
000FF000
000FE000
001FC000
003FC000
007F8000
00FF0000
00FE0000
01FC0000
03FC0000
07F80000
0FF00000
1FE00000
1FE00000
3FC00000
7F800000
FF000000
FFFFFF80
FFFFFF80
FFFFFF80
FFFFFF80
FFFFFF80
ENDCHAR
STARTCHAR 017E
ENCODING 382
SWIDTH 504 0
DWIDTH 21 0
BBX 19 31 1 0
BITMAP
3E1F00
1F3E00
0FFC00
07F800
07F800
03F000
000000
000000
000000
FFFFE0
FFFFE0
FFFFE0
FFFFE0
003FC0
003F80
007F80
00FF00
01FE00
03FC00
03F800
07F800
0FF000
1FE000
3FC000
3F8000
7F8000
FF0000
FFFFE0
FFFFE0
FFFFE0
FFFFE0
ENDCHAR
STARTCHAR 017F
ENCODING 383
SWIDTH 288 0
DWIDTH 12 0
BBX 11 30 3 0
BITMAP
1FC0
3FE0
7FE0
FFE0
FC00
FC00
FC00
FC00
FC00
FC00
FC00
FC00
FC00
FC00
FC00
FC00
FC00
FC00
FC00
FC00
FC00
FC00
FC00
FC00
FC00
FC00
FC00
FC00
FC00
FC00
ENDCHAR
STARTCHAR 0180
ENCODING 384
SWIDTH 624 0
DWIDTH 26 0
BBX 23 30 1 0
BITMAP
3F0000
FFFC00
FFFC00
FFFC00
FFFC00
3F0000
3F0000
3F1F80
3F7FE0
3FFFF0
3FFFF8
3FC3F8
3F80FC
3F00FC
3F007E
3F007E
3F007E
3F007E
3E007E
3F007E
3F007E
3F007E
3F007E
3F00FC
3F80FC
3FC3F8
3FFFF8
3EFFF0
3E7FE0
3E1F80
ENDCHAR
STARTCHAR 0181
ENCODING 385
SWIDTH 840 0
DWIDTH 35 0
BBX 32 30 1 0
BITMAP
1FFFFF80
7FFFFFE0
7FFFFFF0
FFFFFFF8
FFFFFFFC
F9F801FC
F1F800FC
F1F8007E
F1F8007E
F1F8007C
E1F800FC
01F801F8
01FFFFF8
01FFFFE0
01FFFFE0
01FFFFF8
01FFFFFC
01F801FE
01F8007F
01F8007F
01F8003F
01F8003F
01F8003F
01F8007F
01F800FF
01FFFFFE
01FFFFFC
01FFFFFC
01FFFFF0
01FFFFC0
ENDCHAR
STARTCHAR 0182
ENCODING 386
SWIDTH 720 0
DWIDTH 30 0
BBX 25 30 3 0
BITMAP
FFFFFE00
FFFFFE00
FFFFFE00
FFFFFE00
FFFFFE00
FC000000
FC000000
FC000000
FC000000
FC000000
FC000000
FC000000
FFFFE000
FFFFF800
FFFFFE00
FFFFFE00
FFFFFF00
FC00FF80
FC003F80
FC001F80
FC001F80
FC001F80
FC001F80
FC003F80
FC007F80
FFFFFF00
FFFFFF00
FFFFFE00
FFFFF800
FFFFE000
ENDCHAR
STARTCHAR 0183
ENCODING 387
SWIDTH 624 0
DWIDTH 26 0
BBX 21 30 3 0
BITMAP
FFFE00
FFFE00
FFFE00
FFFE00
FC0000
FC0000
FC0000
FC7E00
FDFF80
FFFFC0
FFFFE0
FF0FE0
FE03F0
FC03F0
FC01F8
FC01F8
FC01F8
FC01F8
F801F8
FC01F8
FC01F8
FC01F8
FC01F8
FC03F0
FE03F0
FF0FE0
FFFFE0
FBFFC0
F9FF80
F87E00
ENDCHAR
STARTCHAR 0184
ENCODING 388
SWIDTH 720 0
DWIDTH 30 0
BBX 28 30 0 0
BITMAP
01800000
03800000
07800000
1F800000
3F800000
FF800000
FF800000
7F800000
3F800000
1F800000
1F800000
1F800000
1FFFFC00
1FFFFF00
1FFFFF80
1FFFFFC0
1FFFFFE0
1F801FF0
1F8007F0
1F8003F0
1F8003F0
1F8003F0
1F8003F0
1F8007F0
1F800FF0
1FFFFFE0
1FFFFFE0
1FFFFFC0
1FFFFF80
1FFFFC00
ENDCHAR
STARTCHAR 0185
ENCODING 389
SWIDTH 624 0
DWIDTH 26 0
BBX 24 30 0 0
BITMAP
038000
078000
1F8000
7F8000
FF8000
7F8000
3F8000
1F8FC0
1FBFF0
1FFFF8
1FFFFC
1FE1FC
1FC07E
1F807E
1F803F
1F803F
1F803F
1F803F
1F003F
1F803F
1F803F
1F803F
1F803F
1F807E
1FC07E
1FE1FC
1FFFFC
1F7FF8
1F3FF0
1F0FC0
ENDCHAR
STARTCHAR 0186
ENCODING 390
SWIDTH 720 0
DWIDTH 30 0
BBX 26 30 2 0
BITMAP
00FF0000
03FFE000
0FFFF800
1FFFFC00
3FFFFE00
3FC1FF00
7F007F00
7E003F80
FE001F80
0C001FC0
00000FC0
00000FC0
00000FC0
00000FC0
00000FC0
00000FC0
00000FC0
00000FC0
00000FC0
0C000FC0
7C001FC0
FE001F80
7F003F80
7F007F00
3FC0FF00
3FFFFE00
1FFFFC00
0FFFF800
03FFE000
00FF8000
ENDCHAR
STARTCHAR 0187
ENCODING 391
SWIDTH 720 0
DWIDTH 30 0
BBX 32 34 2 0
BITMAP
000000FE
000003FF
000007FE
000007FE
003FCFE0
01FFFFC0
03FFFFC0
0FFFFFC0
1FFFFFC0
1FE0FFC0
3F803FC0
7F001FC0
7E000FC0
7E000C00
FE000000
FE000000
FC000000
FC000000
FC000000
FC000000
FC000000
FC000000
FE000000
FE000C00
7E000F80
7E001FC0
7F001FC0
3F803F80
1FE0FF80
1FFFFF00
0FFFFE00
07FFFC00
01FFF000
003FC000
ENDCHAR
STARTCHAR 0188
ENCODING 392
SWIDTH 552 0
DWIDTH 23 0
BBX 26 27 2 0
BITMAP
00003F80
0000FFC0
0001FF80
0001FF80
01FFF800
0FFFF000
1FFFF000
3FFFF000
7F07F000
7E03F000
7C038000
FC000000
FC000000
FC000000
FC000000
FC000000
FC000000
FC000000
FC000000
FC03C000
7E03F000
7E03F000
7F0FE000
3FFFE000
1FFFC000
0FFF0000
01FC0000
ENDCHAR
STARTCHAR 0189
ENCODING 393
SWIDTH 720 0
DWIDTH 30 0
BBX 28 30 0 0
BITMAP
1FFFE000
1FFFFC00
1FFFFE00
1FFFFF80
1FFFFF80
1F803FC0
1F801FE0
1F800FE0
1F8007E0
1F8007F0
1F8003F0
1F8003F0
1F8003F0
FFFF03F0
FFFF03F0
FFFF03F0
FFFF03F0
1F8003F0
1F8003F0
1F8003F0
1F8007F0
1F8007E0
1F8007E0
1F800FE0
1F803FC0
1FFFFF80
1FFFFF80
1FFFFF00
1FFFFC00
1FFFE000
ENDCHAR
STARTCHAR 018A
ENCODING 394
SWIDTH 840 0
DWIDTH 35 0
BBX 32 30 1 0
BITMAP
1FFFFE00
7FFFFFC0
7FFFFFE0
FFFFFFF0
FFFFFFF8
F9F807FC
F1F801FC
F1F800FE
F1F8007E
F1F8007E
E1F8007F
01F8003F
01F8003F
01F8003F
01F8003F
01F8003F
01F8003F
01F8003F
01F8003F
01F8007F
01F8007E
01F8007E
01F800FE
01F800FC
01F803FC
01FFFFF8
01FFFFF0
01FFFFE0
01FFFFC0
01FFFE00
ENDCHAR
STARTCHAR 018B
ENCODING 395
SWIDTH 720 0
DWIDTH 30 0
BBX 25 30 2 0
BITMAP
1FFFFF80
1FFFFF80
1FFFFF80
1FFFFF80
1FFFFF80
00001F80
00001F80
00001F80
00001F80
00001F80
00001F80
00001F80
03FFFF80
0FFFFF80
1FFFFF80
3FFFFF80
7FFFFF80
7F801F80
FE001F80
FC001F80
FC001F80
FC001F80
FC001F80
FE001F80
FF801F80
7FFFFF80
3FFFFF80
1FFFFF80
0FFFFF80
03FFFF80
ENDCHAR
STARTCHAR 018C
ENCODING 396
SWIDTH 624 0
DWIDTH 26 0
BBX 21 30 2 0
BITMAP
03FFF8
03FFF8
03FFF8
03FFF8
0001F8
0001F8
0001F8
03F1F8
0FFDF8
1FFFF8
3FFFF8
7F07F8
7E03F8
FE03F8
FC01F8
FC01F8
FC01F8
FC01F8
FC01F8
FC01F8
FC01F8
FC01F8
FC01F8
7E03F8
7E03F8
7F0FF8
3FFFF8
1FFEF8
0FFCF8
03F0F8
ENDCHAR
STARTCHAR 018D
ENCODING 397
SWIDTH 600 0
DWIDTH 25 0
BBX 22 31 2 -8
BITMAP
01FC00
07FF80
1FFFC0
3FFFE0
3F87F0
7E03F0
7C01F8
FC00F8
FC00F8
F800FC
F800FC
F800FC
F800FC
F800FC
FC00FC
FC00F8
FC01F8
7E03F8
3F07F0
3FFFE0
1FFFE0
07FF80
03FF00
01FC00
007F00
003F80
001FC0
7FFFF0
7FFFF0
7FFFF0
7FFFF0
ENDCHAR
STARTCHAR 018E
ENCODING 398
SWIDTH 672 0
DWIDTH 28 0
BBX 23 30 2 0
BITMAP
7FFFFE
7FFFFE
7FFFFE
7FFFFE
7FFFFE
00007E
00007E
00007E
00007E
00007E
00007E
00007E
3FFFFE
3FFFFE
3FFFFE
3FFFFE
3FFFFE
00007E
00007E
00007E
00007E
00007E
00007E
00007E
00007E
FFFFFE
FFFFFE
FFFFFE
FFFFFE
FFFFFE
ENDCHAR
STARTCHAR 018F
ENCODING 399
SWIDTH 744 0
DWIDTH 31 0
BBX 27 30 2 0
BITMAP
007F8000
03FFF000
0FFFF800
1FFFFC00
3FFFFE00
3FC0FF00
7F807F80
7F003F80
7E001FC0
0E000FC0
00000FC0
00000FC0
00000FE0
FFFFFFE0
FFFFFFE0
FFFFFFE0
FFFFFFE0
FFFFFFE0
FC000FE0
FE000FC0
FE000FC0
7E001FC0
7F001F80
3F803F80
3FE0FF00
1FFFFF00
0FFFFE00
07FFF800
01FFF000
007F8000
ENDCHAR
STARTCHAR 0190
ENCODING 400
SWIDTH 624 0
DWIDTH 26 0
BBX 23 30 2 0
BITMAP
00FF00
07FFE0
0FFFF0
1FFFF8
3FFFFC
3FC3FC
7F00FE
7F00FE
7E0060
3F0000
3F0000
1F8000
0FC000
07FC00
07FC00
1FFC00
3FFC00
7F8000
7F0000
FE0000
FE0000
FE0020
FE007E
FE00FE
7F81FE
7FFFFC
3FFFFC
1FFFF8
07FFE0
01FF80
ENDCHAR
STARTCHAR 0191
ENCODING 401
SWIDTH 624 0
DWIDTH 26 0
BBX 26 38 -2 -8
BITMAP
07FFFFC0
07FFFFC0
07FFFFC0
07FFFFC0
07FFFFC0
07E00000
07E00000
07E00000
07E00000
07E00000
07E00000
07E00000
07FFFF00
07FFFF00
07FFFF00
07FFFF00
07FFFF00
07E00000
07E00000
07E00000
07E00000
07E00000
07E00000
07E00000
07E00000
07E00000
07E00000
07E00000
07E00000
07E00000
07E00000
07E00000
0FE00000
7FE00000
7FC00000
7FC00000
FF800000
7E000000
ENDCHAR
STARTCHAR 0192
ENCODING 402
SWIDTH 552 0
DWIDTH 23 0
BBX 23 38 0 -8
BITMAP
0003FC
0007FE
000FFE
000FFE
001FFE
001F84
001F80
001F80
03FFF8
03FFF0
03FFF0
03FFF0
03FFF0
003E00
007E00
007E00
007E00
007E00
007E00
007C00
00FC00
00FC00
00FC00
00FC00
00F800
01F800
01F800
01F800
01F800
01F800
01F000
03F000
43F000
FFF000
FFE000
FFE000
FFC000
7F8000
ENDCHAR
STARTCHAR 0193
ENCODING 403
SWIDTH 792 0
DWIDTH 33 0
BBX 33 34 2 0
BITMAP
0000007F80
000000FF80
000001FF80
000003FF80
001FE3F000
00FFFFF000
03FFFFF000
07FFFFF000
0FFFFFF000
1FF03FF000
3FC00FF000
3F8007F000
7F0007F000
7E00030000
7E00000000
FE00000000
FC00000000
FC00000000
FC01FFF000
FC01FFF000
FC01FFF000
FC01FFF000
FE01FFF000
7E0003F000
7E0003F000
7F0003F000
3F8003F000
3FC007F000
1FF03FF000
0FFFFFF000
07FFFFE000
03FFFF8000
00FFFE0000
001FF00000
ENDCHAR
STARTCHAR 0194
ENCODING 404
SWIDTH 648 0
DWIDTH 27 0
BBX 26 38 0 -8
BITMAP
FE000FC0
7E000FC0
7F001FC0
3F001F80
3F803F80
1F803F00
1FC07F00
0FC07E00
0FC07E00
0FE0FC00
07E0FC00
07F1F800
03F1F800
03F3F800
01FBF000
01FBF000
00FFE000
00FFE000
007FC000
007FC000
003F8000
003F8000
003F0000
003F8000
003F8000
007FC000
007FC000
007FC000
00FFE000
00FBE000
01FBE000
01FBF000
01FBF000
01FFF000
01FFF000
00FFE000
007FC000
003F8000
ENDCHAR
STARTCHAR 0195
ENCODING 405
SWIDTH 936 0
DWIDTH 39 0
BBX 34 30 3 0
BITMAP
FC00000000
FC00000000
FC00000000
FC00000000
FC00000000
FC00000000
FC00000000
FC3E000000
FCFF800FC0
FFFFC00FC0
FFFFE00FC0
FF0FE00FC0
FE07E00FC0
FE03F00FC0
FC03F00FC0
FC03F00FC0
FC03F00FC0
FC03F00FC0
FC03F00FC0
FC03F00FC0
FC03F00FC0
FC03F00F80
FC03F00F80
FC01F01F80
FC01F81F80
FC00FC3F00
FC00FFFF00
FC007FFE00
FC003FFC00
FC000FE000
ENDCHAR
STARTCHAR 0196
ENCODING 406
SWIDTH 288 0
DWIDTH 12 0
BBX 6 30 3 0
BITMAP
FC
FC
FC
FC
FC
FC
FC
FC
FC
FC
FC
FC
FC
FC
FC
FC
FC
FC
FC
FC
FC
FC
FC
FC
FC
FC
FC
FC
FC
FC
ENDCHAR
STARTCHAR 0197
ENCODING 407
SWIDTH 288 0
DWIDTH 12 0
BBX 12 30 0 0
BITMAP
1F80
1F80
1F80
1F80
1F80
1F80
1F80
1F80
1F80
1F80
1F80
1F80
1F80
FFF0
FFF0
FFF0
FFF0
1F80
1F80
1F80
1F80
1F80
1F80
1F80
1F80
1F80
1F80
1F80
1F80
1F80
ENDCHAR
STARTCHAR 0198
ENCODING 408
SWIDTH 720 0
DWIDTH 30 0
BBX 27 30 3 0
BITMAP
0FE03FC0
3FF07F80
7FF0FF00
7FE1FE00
FE03FC00
FC07F800
FC0FF000
FC0FE000
FC1FC000
FC3F8000
FC7F0000
FCFE0000
FDFF0000
FFFF8000
FFFF8000
FFFFC000
FFFFC000
FFCFE000
FF87F000
FF07F000
FE03F800
FC03FC00
FC01FC00
FC00FE00
FC00FF00
FC007F00
FC007F80
FC003FC0
FC001FC0
FC001FE0
ENDCHAR
STARTCHAR 0199
ENCODING 409
SWIDTH 552 0
DWIDTH 23 0
BBX 20 30 3 0
BITMAP
1FE000
3FE000
7FE000
FFE000
FC0000
FC0000
FC0000
FC0000
FC0FE0
FC1FC0
FC3F80
FC7F00
FCFE00
FCFC00
FDF800
FFF000
FFF000
FFF800
FFF800
FFFC00
FFFE00
FE7E00
FC3F00
FC3F00
FC1F80
FC1F80
FC0FC0
FC0FE0
FC07E0
FC07F0
ENDCHAR
STARTCHAR 019A
ENCODING 410
SWIDTH 288 0
DWIDTH 12 0
BBX 10 30 1 0
BITMAP
3F00
3F00
3F00
3F00
3F00
3F00
3F00
3F00
3F00
3F00
3F00
3F00
3F00
FFC0
FFC0
FFC0
FFC0
3F00
3F00
3F00
3F00
3F00
3F00
3F00
3F00
3F00
3F00
3F00
3F00
3F00
ENDCHAR
STARTCHAR 019B
ENCODING 411
SWIDTH 552 0
DWIDTH 23 0
BBX 23 30 0 0
BITMAP
03E300
03FF00
03FF00
01FF80
07FE00
1FF800
7FFC00
7FFC00
3C7E00
20FE00
00FE00
01FF00
01FF00
01FF00
03FF80
03EF80
07EFC0
07EFC0
07C7C0
0FC7E0
0FC7E0
0F83F0
1F83F0
1F81F0
3F01F8
3F01F8
3F00FC
7E00FC
7E00FC
FC007E
ENDCHAR
STARTCHAR 019C
ENCODING 412
SWIDTH 1008 0
DWIDTH 42 0
BBX 36 30 3 0
BITMAP
FC01F803F0
FC01F803F0
FC01F803F0
FC01F803F0
FC01F803F0
FC01F803F0
FC01F803F0
FC01F803F0
FC01F803F0
FC01F803F0
FC01F803F0
FC01F803F0
FC01F803F0
FC01F803F0
FC01F803F0
FC01F803F0
FC01F803F0
FC01F803F0
FC01F803F0
FC01F807F0
FC01F807F0
FC03F807F0
FC03F807F0
FC03F807F0
FE07FC0FF0
7F0FFE1FF0
7FFFFFFFF0
3FFEFFFFF0
1FFC7FF3F0
07F81FC3F0
ENDCHAR
STARTCHAR 019D
ENCODING 413
SWIDTH 720 0
DWIDTH 30 0
BBX 29 38 -2 -8
BITMAP
07E001F8
07F001F8
07F001F8
07F801F8
07FC01F8
07FC01F8
07FE01F8
07FE01F8
07FF01F8
07FF01F8
07EF81F8
07EFC1F8
07E7C1F8
07E7E1F8
07E3E1F8
07E1F1F8
07E1F1F8
07E0F9F8
07E0FDF8
07E07DF8
07E07FF8
07E03FF8
07E01FF8
07E01FF8
07E00FF8
07E00FF8
07E007F8
07E007F8
07E003F8
07E001F8
07E00000
07E00000
07E00000
0FC00000
7FC00000
7FC00000
7F800000
FE000000
ENDCHAR
STARTCHAR 019E
ENCODING 414
SWIDTH 624 0
DWIDTH 26 0
BBX 20 31 3 -8
BITMAP
007E00
F9FF80
FBFFC0
FFFFE0
FF0FE0
FE07F0
FC03F0
FC03F0
FC03F0
FC03F0
FC03F0
FC03F0
FC03F0
FC03F0
FC03F0
FC03F0
FC03F0
FC03F0
FC03F0
FC03F0
FC03F0
FC03F0
FC03F0
0003F0
0003F0
0003F0
0003F0
0003F0
0003F0
0003F0
0003F0
ENDCHAR
STARTCHAR 019F
ENCODING 415
SWIDTH 792 0
DWIDTH 33 0
BBX 29 30 2 0
BITMAP
003FE000
01FFF800
07FFFE00
0FFFFF00
1FFFFF80
3FE03FC0
3F800FE0
7F0007E0
7E0007F0
7E0003F0
FE0003F0
FC0003F8
FFFFFFF8
FFFFFFF8
FFFFFFF8
FFFFFFF8
FFFFFFF8
FC0003F8
FC0003F8
FE0003F0
7E0007F0
7F0007F0
7F800FE0
3FC01FE0
3FF07FC0
1FFFFF80
0FFFFF80
07FFFE00
01FFFC00
003FE000
ENDCHAR
STARTCHAR 01A0
ENCODING 416
SWIDTH 864 0
DWIDTH 36 0
BBX 34 30 2 0
BITMAP
003FE00FC0
01FFF80FC0
07FFFE0FC0
0FFFFF0FC0
1FFFFF8FC0
1FE07FCFC0
3F801FE1C0
7F0007E1C0
7F0007F380
7E0003F780
FE0003FF00
FC0003FE00
FC0001FC00
FC0001F800
FC0001F800
FC0001F800
FC0001F800
FC0003F800
FC0003F800
FE0003F800
7E0003F000
7F0007F000
7F000FF000
3FC01FE000
3FE07FC000
1FFFFFC000
0FFFFF8000
07FFFE0000
01FFFC0000
003FE00000
ENDCHAR
STARTCHAR 01A1
ENCODING 417
SWIDTH 720 0
DWIDTH 30 0
BBX 28 23 2 0
BITMAP
01FC0000
07FF83F0
0FFFC3F0
1FFFE3F0
3F87F3F0
7E03FBF0
7E01FBF0
FC00F870
FC00FC70
FC00FCE0
FC00FDE0
FC00FFC0
FC00FF80
FC00FE00
FC00FC00
FC00FC00
7E01F800
7E03F800
3F87F000
3FFFE000
1FFFC000
07FF8000
01FE0000
ENDCHAR
STARTCHAR 01A2
ENCODING 418
SWIDTH 888 0
DWIDTH 37 0
BBX 32 38 2 -8
BITMAP
003FC007
01FFFC7F
07FFFFFF
0FFFFFFF
1FFFFFFF
3FE07E3F
3F807E3F
7F007E3F
7F007E3F
7E007E3F
FE007E3F
FC007E3F
FC007E3F
FC007E3F
FC007E3F
FC007E3F
FC007E3F
FC007E3F
FC007E3F
FE007E3F
7E007E3F
7F007E3F
7F007E3F
3F807E3F
3FE07E3F
1FFFFE3F
0FFFFE3F
07FFFE3F
01FFFC3F
003FE03F
0000003F
0000003F
0000003F
0000003F
0000003F
0000003F
0000003F
0000003F
ENDCHAR
STARTCHAR 01A3
ENCODING 419
SWIDTH 744 0
DWIDTH 31 0
BBX 26 31 2 -8
BITMAP
01FF0000
0FFFFFC0
1FFFFFC0
3FFFFFC0
7F0FC7C0
7E0FC7C0
7C0FC7C0
FC0FC7C0
FC0FC7C0
FC0FC7C0
FC0FC7C0
FC0FC7C0
FC0FC7C0
FC0FC7C0
FC0FC7C0
FC0FC7C0
7E0FC7C0
7E0FC7C0
7F0FC7C0
3FFFC7C0
1FFFC7C0
0FFFC7C0
01FE07C0
000007C0
000007C0
000007C0
000007C0
000007C0
000007C0
000007C0
000007C0
ENDCHAR
STARTCHAR 01A4
ENCODING 420
SWIDTH 792 0
DWIDTH 33 0
BBX 30 30 1 0
BITMAP
1FFFFF00
7FFFFFC0
7FFFFFE0
FFFFFFF0
FFFFFFF8
F9F807F8
F1F801FC
F1F801FC
F1F800FC
F1F800FC
E1F800FC
01F801FC
01F801FC
01F807F8
01FFFFF8
01FFFFF0
01FFFFE0
01FFFFC0
01FFFE00
01F80000
01F80000
01F80000
01F80000
01F80000
01F80000
01F80000
01F80000
01F80000
01F80000
01F80000
ENDCHAR
STARTCHAR 01A5
ENCODING 421
SWIDTH 624 0
DWIDTH 26 0
BBX 21 38 3 -8
BITMAP
1FE000
3FE000
7FE000
FFE000
FC0000
FC0000
FC0000
FC7E00
FDFF80
FFFFC0
FFFFE0
FF0FE0
FE03F0
FC03F0
FC01F8
FC01F8
FC01F8
FC01F8
FC01F8
FC01F8
FC01F8
FC01F8
FC01F8
FE03F0
FE03F0
FF07E0
FFFFE0
FFFFC0
FDFF80
FC7E00
FC0000
FC0000
FC0000
FC0000
FC0000
FC0000
FC0000
FC0000
ENDCHAR
STARTCHAR 01A6
ENCODING 422
SWIDTH 672 0
DWIDTH 28 0
BBX 25 37 3 -7
BITMAP
FC000000
FC000000
FC000000
FC000000
FFFF0000
FFFFE000
FFFFF800
FFFFFC00
FFFFFC00
FC01FE00
FC00FE00
FC007E00
FC007E00
FC007E00
FC007E00
FC00FE00
FC03FE00
FFFFFC00
FFFFF800
FFFFF000
FFFFE000
FFFF0000
FC7F0000
FC3F8000
FC3F8000
FC1FC000
FC0FE000
FC0FE000
FC07F000
FC07F800
0003F800
0003FC00
0001FC00
0001FE00
0000FF00
00007F00
00007F80
ENDCHAR
STARTCHAR 01A7
ENCODING 423
SWIDTH 672 0
DWIDTH 28 0
BBX 24 30 2 0
BITMAP
00FF80
07FFE0
0FFFF8
1FFFFC
3FFFFC
3F80FE
7F007E
7E003E
7E007E
00007E
0001FE
001FFE
00FFFC
07FFF8
1FFFF0
3FFFC0
7FFE00
7FE000
FF0000
FE003F
FC003F
FC003F
FC007F
FE00FF
7F81FE
7FFFFC
3FFFFC
1FFFF8
07FFE0
01FF00
ENDCHAR
STARTCHAR 01A8
ENCODING 424
SWIDTH 552 0
DWIDTH 23 0
BBX 20 23 2 0
BITMAP
03FC00
0FFF80
1FFFC0
3FFFE0
7F07E0
7E03E0
0C03F0
0003F0
000FE0
007FE0
07FFC0
1FFF80
7FFF00
7FF800
FF8000
FC03C0
FC03F0
FC07F0
FE0FE0
7FFFE0
3FFFC0
1FFF80
03FC00
ENDCHAR
STARTCHAR 01A9
ENCODING 425
SWIDTH 600 0
DWIDTH 25 0
BBX 22 30 2 0
BITMAP
FFFFF8
FFFFF8
FFFFF8
FFFFF8
FFFFF8
7F0000
7F8000
3FC000
1FE000
0FE000
07F000
03F800
03FC00
01FE00
00FF00
01FE00
03FC00
07F800
0FF000
0FE000
1FE000
3FC000
7F8000
FF0000
FE0000
FFFFFC
FFFFFC
FFFFFC
FFFFFC
FFFFFC
ENDCHAR
STARTCHAR 01AA
ENCODING 426
SWIDTH 360 0
DWIDTH 15 0
BBX 16 38 1 -8
BITMAP
3E00
7F80
C7C0
C7C0
C7E0
C7E0
FFE0
3FE0
07E0
07E0
07E0
07E0
07E0
07E0
07E0
07E0
07E0
07E0
07E0
07E0
07E0
07E0
07E0
07E0
07E0
07E0
07E0
07E0
07E0
07E0
07E0
07E0
03F0
03FE
03FE
03FF
01FF
007F
ENDCHAR
STARTCHAR 01AB
ENCODING 427
SWIDTH 336 0
DWIDTH 14 0
BBX 12 37 1 -8
BITMAP
0100
0700
1F00
3F00
3F00
3F00
3F00
FFF0
FFF0
FFF0
FFF0
3F00
3F00
3F00
3F00
3F00
3F00
3F00
3F00
3F00
3F00
3F00
3F00
3F00
3F80
1FF0
1FF0
0FF0
07F0
01F0
01F0
03F0
03F0
1FF0
3FF0
3FE0
3F80
ENDCHAR
STARTCHAR 01AC
ENCODING 428
SWIDTH 624 0
DWIDTH 26 0
BBX 24 30 1 0
BITMAP
1FFFFF
7FFFFF
FFFFFF
FFFFFF
FFFFFF
F87E00
F07E00
F07E00
F07E00
F07E00
E07E00
007E00
007E00
007E00
007E00
007E00
007E00
007E00
007E00
007E00
007E00
007E00
007E00
007E00
007E00
007E00
007E00
007E00
007E00
007E00
ENDCHAR
STARTCHAR 01AD
ENCODING 429
SWIDTH 336 0
DWIDTH 14 0
BBX 14 30 1 0
BITMAP
03F8
0FFC
1FF8
1FF8
3F80
3F00
3F00
3F00
FFF0
FFF0
FFF0
FFF0
3F00
3F00
3F00
3F00
3F00
3F00
3F00
3F00
3F00
3F00
3F00
3F00
3F00
3F80
1FF0
1FF0
0FF0
07F0
ENDCHAR
STARTCHAR 01AE
ENCODING 430
SWIDTH 624 0
DWIDTH 26 0
BBX 24 39 1 -9
BITMAP
FFFFFF
FFFFFF
FFFFFF
FFFFFF
FFFFFF
007E00
007E00
007E00
007E00
007E00
007E00
007E00
007E00
007E00
007E00
007E00
007E00
007E00
007E00
007E00
007E00
007E00
007E00
007E00
007E00
007E00
007E00
007E00
007E00
007E00
007E00
007E00
007E00
007F00
007FE0
007FE0
003FE0
001FF0
000FE0
ENDCHAR
STARTCHAR 01AF
ENCODING 431
SWIDTH 840 0
DWIDTH 35 0
BBX 32 30 3 0
BITMAP
FC003F3F
FC003F3F
FC003F3F
FC003F3F
FC003F3F
FC003F3F
FC003F07
FC003F07
FC003F0E
FC003F1E
FC003F3E
FC003FFC
FC003FF0
FC003FC0
FC003F00
FC003F00
FC003F00
FC003F00
FC003F00
FC003F00
FC003F00
FC003F00
FE007F00
7F007E00
7F81FE00
3FFFFE00
3FFFFC00
1FFFF800
07FFF000
00FF8000
ENDCHAR
STARTCHAR 01B0
ENCODING 432
SWIDTH 720 0
DWIDTH 30 0
BBX 27 22 3 0
BITMAP
FC03F3E0
FC03F3E0
FC03F3E0
FC03F3E0
FC03F3E0
FC03F3E0
FC03F0E0
FC03F0E0
FC03F0E0
FC03F1E0
FC03F7C0
FC03FF80
FC03FF00
FC03FC00
FC03F000
FC07F000
FC07F000
FE1FF000
7FFFF000
7FFFF000
3FF3F000
0FC3F000
ENDCHAR
STARTCHAR 01B1
ENCODING 433
SWIDTH 816 0
DWIDTH 34 0
BBX 30 30 2 0
BITMAP
FFFCFFFC
FFFCFFFC
FFFCFFFC
FFFCFFFC
FFFCFFFC
07F07F00
0FE01F80
0FC00FC0
1F8007E0
3F0003E0
3F0003F0
7E0003F0
7E0001F0
7E0001F8
7E0001F8
7E0001F8
FE0001F8
FE0001F8
7E0001F8
7E0003F8
7F0003F8
7F0007F0
3F8007F0
3FC00FF0
1FF03FE0
0FFFFFC0
07FFFF80
03FFFF00
00FFFC00
003FE000
ENDCHAR
STARTCHAR 01B2
ENCODING 434
SWIDTH 720 0
DWIDTH 30 0
BBX 24 30 3 0
BITMAP
FC07F0
FC0FFC
FC07FE
FC07FE
FC007F
FC003F
FC003F
FC003F
FC003F
FC003F
FC003F
FC003F
FC003F
FC003F
FC003F
FC007E
FC007E
FC007E
FC007E
FC007E
FC00FC
FC00FC
7E01FC
7E01F8
7F87F8
3FFFF0
3FFFE0
1FFFC0
07FF80
01FE00
ENDCHAR
STARTCHAR 01B3
ENCODING 435
SWIDTH 768 0
DWIDTH 32 0
BBX 32 30 0 0
BITMAP
FE0003E0
7F0007F8
3F000FFC
3F801FFF
1FC03FFF
1FC03F9E
0FE07F04
07E07F00
07F0FE00
03F9FC00
01F9FC00
01FFF800
00FFF000
00FFF000
007FE000
003FC000
003FC000
001F8000
001F8000
001F8000
001F8000
001F8000
001F8000
001F8000
001F8000
001F8000
001F8000
001F8000
001F8000
001F8000
ENDCHAR
STARTCHAR 01B4
ENCODING 436
SWIDTH 552 0
DWIDTH 23 0
BBX 30 38 0 -8
BITMAP
000007C0
00000FF0
00001FFC
00001FF8
00003FF8
00003FF0
00003F10
00007E00
FE007E00
7E007C00
7E00FC00
3F00FC00
3F00F800
3F01F800
1F81F000
1F83F000
1F83F000
0FC3E000
0FC7E000
07C7E000
07E7C000
07EFC000
03EF8000
03FF8000
03FF8000
01FF0000
01FF0000
00FE0000
00FE0000
00FE0000
00FC0000
00FC0000
01FC0000
03F80000
3FF80000
3FF00000
3FE00000
3F800000
ENDCHAR
STARTCHAR 01B5
ENCODING 437
SWIDTH 624 0
DWIDTH 26 0
BBX 25 30 0 0
BITMAP
3FFFFF00
3FFFFF00
3FFFFF00
3FFFFF00
3FFFFF00
0000FF00
0001FE00
0003FC00
0007F800
0007F000
000FF000
001FE000
003FC000
FFFFFF00
FFFFFF00
FFFFFF00
FFFFFF00
03FC0000
07F80000
07F00000
0FE00000
1FE00000
3FC00000
3F800000
7F000000
FFFFFF80
FFFFFF80
FFFFFF80
FFFFFF80
FFFFFF80
ENDCHAR
STARTCHAR 01B6
ENCODING 438
SWIDTH 504 0
DWIDTH 21 0
BBX 19 22 1 0
BITMAP
FFFFE0
FFFFE0
FFFFE0
FFFFC0
003FC0
003F80
007F00
00FE00
00FE00
FFFFE0
FFFFE0
FFFFE0
FFFFE0
1FE000
1FC000
3F8000
7F0000
7F0000
FFFFE0
FFFFE0
FFFFE0
FFFFE0
ENDCHAR
STARTCHAR 01B7
ENCODING 439
SWIDTH 624 0
DWIDTH 26 0
BBX 23 38 1 -8
BITMAP
FFFFFC
FFFFFC
FFFFFC
FFFFFC
FFFFFC
0001F8
0003F0
0007F0
000FE0
001FC0
003F80
007F00
00FE00
01FC00
03FE00
03FFC0
03FFE0
03FFF0
03FFF8
0007F8
0001FC
0000FC
0000FC
00007E
00007E
00007E
00007E
00007E
0000FE
1C00FC
FC00FC
7E01FC
7F87F8
3FFFF8
3FFFF0
0FFFE0
07FF80
00FE00
ENDCHAR
STARTCHAR 01B8
ENCODING 440
SWIDTH 624 0
DWIDTH 26 0
BBX 22 38 2 -8
BITMAP
FFFFFC
FFFFFC
FFFFFC
FFFFFC
FFFFFC
7F0000
3F8000
1FC000
0FE000
07F000
03F800
01FC00
00FE00
007F00
01FF00
07FF00
0FFF00
1FFF00
3FFF00
7F8000
7F0000
FE0000
FC0000
FC0000
FC0000
FC0000
FC0000
FC0000
FC0000
FC0070
7E00FC
7F01FC
7F83FC
3FFFF8
1FFFF0
0FFFE0
07FFC0
00FE00
ENDCHAR
STARTCHAR 01B9
ENCODING 441
SWIDTH 528 0
DWIDTH 22 0
BBX 20 30 1 -8
BITMAP
FFFFE0
FFFFE0
FFFFE0
7FFFE0
7F0000
3F8000
1FC000
0FC000
07E000
03F000
03F800
07F800
1FF800
3FF800
7F8000
7E0000
FC0000
FC0000
FC0000
FC0000
FC0000
FC0000
FC01C0
FC03F0
7E03F0
7F07E0
3FFFE0
1FFFC0
0FFF80
01FC00
ENDCHAR
STARTCHAR 01BA
ENCODING 442
SWIDTH 528 0
DWIDTH 22 0
BBX 20 30 1 -8
BITMAP
3FFFF0
3FFFF0
3FFFF0
3FFFE0
000FC0
001F80
003F00
007E00
01FC00
01FE00
01FF80
01FFC0
000FE0
0007E0
0007E0
0007E0
003FE0
03FFE0
1FFFC0
3FFF80
7FFE00
FFE000
FE0000
FC01C0
FC03F0
7F07F0
7FFFE0
3FFFC0
1FFF80
07FC00
ENDCHAR
STARTCHAR 01BB
ENCODING 443
SWIDTH 552 0
DWIDTH 23 0
BBX 20 30 1 0
BITMAP
01FC00
07FF80
0FFFC0
1FFFE0
3FFFE0
3F87F0
7E03F0
7E03F0
7E03F0
3E03F0
0003F0
0003F0
0007E0
000FE0
7FFFF0
7FFFF0
7FFFF0
7FFFF0
01FE00
03F800
07F000
0FE000
1FC000
3F8000
3FFFF0
7FFFF0
7FFFF0
7FFFF0
FFFFF0
FFFFF0
ENDCHAR
STARTCHAR 01BC
ENCODING 444
SWIDTH 552 0
DWIDTH 23 0
BBX 20 30 2 0
BITMAP
FFFFC0
FFFFC0
FFFFC0
FFFFC0
FFFFC0
1F8000
1F8000
1F8000
1F8000
1F8000
1FFC00
1FFF00
1FFF80
1FFFC0
1FFFE0
000FE0
0007F0
0003F0
0003F0
0003F0
0003F0
7C03F0
FC03F0
FE07E0
7F0FE0
7FFFC0
3FFFC0
1FFF80
0FFE00
03F800
ENDCHAR
STARTCHAR 01BD
ENCODING 445
SWIDTH 504 0
DWIDTH 21 0
BBX 18 22 1 0
BITMAP
FFFF80
FFFF80
FFFF80
FFFF80
1F0000
1F0000
1F0000
1F0000
1FFC00
1FFF00
1FFF80
1FFFC0
001FC0
000FC0
0007C0
3807C0
FC0FC0
FE1FC0
7FFF80
3FFF80
1FFE00
07F800
ENDCHAR
STARTCHAR 01BE
ENCODING 446
SWIDTH 576 0
DWIDTH 24 0
BBX 22 29 1 0
BITMAP
010000
070000
1F0000
3F0000
3F0000
3F0000
3F0000
FFF000
FFF000
FFF000
FFF000
3F0000
3F0000
3FC000
1FF800
1FFF80
1FFFE0
07FFF0
03FFF8
007FF8
0007FC
0000FC
0E00FC
3F00FC
3F81F8
1FFFF8
0FFFF0
07FFC0
00FF00
ENDCHAR
STARTCHAR 01BF
ENCODING 447
SWIDTH 624 0
DWIDTH 26 0
BBX 21 31 3 -8
BITMAP
007E00
F9FF80
FBFFC0
FFFFE0
FF07F0
FE03F0
FE01F8
FC01F8
FC01F8
FC01F8
FC01F8
FC01F8
FC01F8
FC01F8
FC03F0
FC03F0
FC07E0
FC0FE0
FC1FC0
FC3F80
FC7F00
FCFE00
FFF800
FFF000
FFC000
FF0000
FE0000
FC0000
FC0000
FC0000
FC0000
ENDCHAR
STARTCHAR 01C0
ENCODING 448
SWIDTH 288 0
DWIDTH 12 0
BBX 4 30 4 0
BITMAP
F0
F0
F0
F0
F0
F0
F0
F0
F0
F0
F0
F0
F0
F0
F0
F0
F0
F0
F0
F0
F0
F0
F0
F0
F0
F0
F0
F0
F0
F0
ENDCHAR
STARTCHAR 01C1
ENCODING 449
SWIDTH 504 0
DWIDTH 21 0
BBX 13 30 4 0
BITMAP
F078
F078
F078
F078
F078
F078
F078
F078
F078
F078
F078
F078
F078
F078
F078
F078
F078
F078
F078
F078
F078
F078
F078
F078
F078
F078
F078
F078
F078
F078
ENDCHAR
STARTCHAR 01C2
ENCODING 450
SWIDTH 600 0
DWIDTH 25 0
BBX 21 30 2 0
BITMAP
00F800
00F800
00F800
00F800
00F800
00F800
00F800
00F800
FFFFF8
FFFFF8
FFFFF8
FFFFF8
FFFFF8
00F800
00F800
00F800
00F800
FFFFF8
FFFFF8
FFFFF8
FFFFF8
FFFFF8
00F800
00F800
00F800
00F800
00F800
00F800
00F800
00F800
ENDCHAR
STARTCHAR 01C3
ENCODING 451
SWIDTH 336 0
DWIDTH 14 0
BBX 6 30 4 0
BITMAP
FC
FC
FC
FC
FC
FC
FC
FC
FC
FC
FC
FC
F8
F8
78
78
78
78
78
78
78
78
00
00
FC
FC
FC
FC
FC
FC
ENDCHAR
STARTCHAR 01C4
ENCODING 452
SWIDTH 1344 0
DWIDTH 56 0
BBX 52 39 3 0
BITMAP
000000007C3E00
000000003E7C00
000000001FF800
000000000FF000
000000000FF000
0000000007E000
00000000000000
00000000000000
00000000000000
FFFF0007FFFFE0
FFFFE007FFFFE0
FFFFF007FFFFE0
FFFFFC07FFFFE0
FFFFFC07FFFFE0
FC01FE00001FC0
FC00FF00003F80
FC007F00007F80
FC003F0000FF00
FC003F8001FE00
FC001F8001FC00
FC001F8003F800
FC001F8007F800
FC001F800FF000
FC001F801FE000
FC001F801FC000
FC001F803F8000
FC001F807F8000
FC001F80FF0000
FC001F81FE0000
FC003F83FC0000
FC003F03FC0000
FC003F07F80000
FC007F0FF00000
FC01FE1FE00000
FFFFFC1FFFFFF0
FFFFFC1FFFFFF0
FFFFF81FFFFFF0
FFFFE01FFFFFF0
FFFF001FFFFFF0
ENDCHAR
STARTCHAR 01C5
ENCODING 453
SWIDTH 1224 0
DWIDTH 51 0
BBX 47 31 3 0
BITMAP
00000001F0F8
FFFF0000F9F0
FFFFE0007FE0
FFFFF0003FC0
FFFFFC003FC0
FFFFFC001F80
FC01FE000000
FC00FF000000
FC007F000000
FC003F0FFFFE
FC003F8FFFFE
FC001F8FFFFE
FC001F8FFFFE
FC001F8003FC
FC001F8003F8
FC001F8007F8
FC001F800FF0
FC001F801FE0
FC001F803FC0
FC001F803F80
FC001F807F80
FC003F80FF00
FC003F01FE00
FC003F03FC00
FC007F03F800
FC01FE07F800
FFFFFC0FF000
FFFFFC0FFFFE
FFFFF80FFFFE
FFFFE00FFFFE
FFFF000FFFFE
ENDCHAR
STARTCHAR 01C6
ENCODING 454
SWIDTH 1128 0
DWIDTH 47 0
BBX 44 31 2 0
BITMAP
0000001F0F80
0001F80F9F00
0001F807FE00
0001F803FC00
0001F803FC00
0001F801F800
0001F8000000
0001F8000000
03F1F8000000
0FFDF87FFFF0
1FFFF87FFFF0
3FFFF87FFFF0
7F0FF87FFFF0
7E03F8001FE0
FE03F8001FC0
FC01F8003FC0
FC01F8007F80
FC01F800FF00
FC01F801FE00
FC01F801FC00
FC01F803FC00
FC01F807F800
FC01F80FF000
FC01F81FE000
FE03F81FC000
7E03F83FC000
7F0FF87F8000
3FFFF87FFFF0
1FFEF87FFFF0
0FFCF87FFFF0
03F0F87FFFF0
ENDCHAR
STARTCHAR 01C7
ENCODING 455
SWIDTH 1176 0
DWIDTH 49 0
BBX 43 30 3 0
BITMAP
FC00000007E0
FC00000007E0
FC00000007E0
FC00000007E0
FC00000007E0
FC00000007E0
FC00000007E0
FC00000007E0
FC00000007E0
FC00000007E0
FC00000007E0
FC00000007E0
FC00000007E0
FC00000007E0
FC00000007E0
FC00000007E0
FC00000007E0
FC00000007E0
FC00000007E0
FC00000007E0
FC00001807E0
FC0000FC07E0
FC0000FC07E0
FC0000FC0FE0
FC0000FE1FC0
FFFFF87FFFC0
FFFFF87FFF80
FFFFF83FFF00
FFFFF81FFE00
FFFFF807F800
ENDCHAR
STARTCHAR 01C8
ENCODING 456
SWIDTH 888 0
DWIDTH 37 0
BBX 32 38 3 -8
BITMAP
FC00003F
FC00003F
FC00003F
FC00003F
FC000000
FC000000
FC000000
FC000000
FC00003F
FC00003F
FC00003F
FC00003F
FC00003F
FC00003F
FC00003F
FC00003F
FC00003F
FC00003F
FC00003F
FC00003F
FC00003F
FC00003F
FC00003F
FC00003F
FC00003F
FFFFF83F
FFFFF83F
FFFFF83F
FFFFF83F
FFFFF83F
0000003F
0000003F
0000007E
000003FE
000003FE
000007FE
000007FC
000007F0
ENDCHAR
STARTCHAR 01C9
ENCODING 457
SWIDTH 552 0
DWIDTH 23 0
BBX 18 38 3 -8
BITMAP
FC0FC0
FC0FC0
FC0FC0
FC0FC0
FC0000
FC0000
FC0000
FC0000
FC0FC0
FC0FC0
FC0FC0
FC0FC0
FC0FC0
FC0FC0
FC0FC0
FC0FC0
FC0FC0
FC0FC0
FC0FC0
FC0FC0
FC0FC0
FC0FC0
FC0FC0
FC0FC0
FC0FC0
FC0FC0
FC0FC0
FC0FC0
FC0FC0
FC0FC0
000FC0
000FC0
001F80
00FF80
00FF80
01FF80
01FF00
01FC00
ENDCHAR
STARTCHAR 01CA
ENCODING 458
SWIDTH 1296 0
DWIDTH 54 0
BBX 47 30 3 0
BITMAP
FC003F00007E
FE003F00007E
FE003F00007E
FF003F00007E
FF803F00007E
FF803F00007E
FFC03F00007E
FFC03F00007E
FFE03F00007E
FFE03F00007E
FDF03F00007E
FDF83F00007E
FCF83F00007E
FCFC3F00007E
FC7C3F00007E
FC3E3F00007E
FC3E3F00007E
FC1F3F00007E
FC1FBF00007E
FC0FBF00007E
FC0FFF01807E
FC07FF0FC07E
FC03FF0FC07E
FC03FF0FC0FE
FC01FF0FE1FC
FC01FF07FFFC
FC00FF07FFF8
FC00FF03FFF0
FC007F01FFE0
FC003F007F80
ENDCHAR
STARTCHAR 01CB
ENCODING 459
SWIDTH 1008 0
DWIDTH 42 0
BBX 36 38 3 -8
BITMAP
FC003F03F0
FE003F03F0
FE003F03F0
FF003F03F0
FF803F0000
FF803F0000
FFC03F0000
FFC03F0000
FFE03F03F0
FFE03F03F0
FDF03F03F0
FDF83F03F0
FCF83F03F0
FCFC3F03F0
FC7C3F03F0
FC3E3F03F0
FC3E3F03F0
FC1F3F03F0
FC1FBF03F0
FC0FBF03F0
FC0FFF03F0
FC07FF03F0
FC03FF03F0
FC03FF03F0
FC01FF03F0
FC01FF03F0
FC00FF03F0
FC00FF03F0
FC007F03F0
FC003F03F0
00000003F0
00000003F0
00000007E0
0000003FE0
0000003FE0
0000007FE0
0000007FC0
0000007F00
ENDCHAR
STARTCHAR 01CC
ENCODING 460
SWIDTH 888 0
DWIDTH 37 0
BBX 32 38 3 -8
BITMAP
0000003F
0000003F
0000003F
0000003F
00000000
00000000
00000000
003E0000
F8FF803F
F9FFC03F
FBFFE03F
FF0FE03F
FE07F03F
FC03F03F
FC03F03F
FC03F03F
FC03F03F
FC03F03F
FC03F03F
FC03F03F
FC03F03F
FC03F03F
FC03F03F
FC03F03F
FC03F03F
FC03F03F
FC03F03F
FC03F03F
FC03F03F
FC03F03F
0000003F
0000003F
0000007E
000003FE
000003FE
000007FE
000007FC
000007F0
ENDCHAR
STARTCHAR 01CD
ENCODING 461
SWIDTH 720 0
DWIDTH 30 0
BBX 30 39 0 0
BITMAP
00F87C00
007CF800
003FF000
001FE000
001FE000
000FC000
00000000
00000000
00000000
001FC000
001FE000
001FE000
003FF000
003FF000
003FF000
007DF800
007CF800
00FCFC00
00F8FC00
00F87C00
01F87E00
01F87E00
03F03F00
03F03F00
03F03F00
07E01F80
07E01F80
0FFFFFC0
0FFFFFC0
0FFFFFC0
1FFFFFE0
1FFFFFE0
1F8007F0
3F0007F0
3F0003F0
7F0003F8
7E0001F8
7E0001FC
FE0001FC
ENDCHAR
STARTCHAR 01CE
ENCODING 462
SWIDTH 552 0
DWIDTH 23 0
BBX 20 31 2 0
BITMAP
1F0F80
0F9F00
07FE00
03FC00
03FC00
01F800
000000
000000
07FC00
1FFF00
3FFF80
7FFFC0
7E0FC0
FC07C0
1C07E0
0007E0
000FE0
01FFE0
0FFFE0
3FFFE0
7FE7E0
FE07E0
FC07E0
F807E0
F807E0
FC0FE0
FE1FE0
FFFFE0
7FFBE0
3FF3E0
0FC3F0
ENDCHAR
STARTCHAR 01CF
ENCODING 463
SWIDTH 288 0
DWIDTH 12 0
BBX 14 39 -1 0
BITMAP
F87C
7CF8
3FF0
1FE0
1FE0
0FC0
0000
0000
0000
0FC0
0FC0
0FC0
0FC0
0FC0
0FC0
0FC0
0FC0
0FC0
0FC0
0FC0
0FC0
0FC0
0FC0
0FC0
0FC0
0FC0
0FC0
0FC0
0FC0
0FC0
0FC0
0FC0
0FC0
0FC0
0FC0
0FC0
0FC0
0FC0
0FC0
ENDCHAR
STARTCHAR 01D0
ENCODING 464
SWIDTH 288 0
DWIDTH 12 0
BBX 14 31 -1 0
BITMAP
F87C
7CF8
3FF0
1FE0
1FE0
0FC0
0000
0000
0000
0FC0
0FC0
0FC0
0FC0
0FC0
0FC0
0FC0
0FC0
0FC0
0FC0
0FC0
0FC0
0FC0
0FC0
0FC0
0FC0
0FC0
0FC0
0FC0
0FC0
0FC0
0FC0
ENDCHAR
STARTCHAR 01D1
ENCODING 465
SWIDTH 792 0
DWIDTH 33 0
BBX 29 39 2 0
BITMAP
01F0F800
00F9F000
007FE000
003FC000
003FC000
001F8000
00000000
00000000
00000000
003FE000
01FFF800
07FFFE00
0FFFFF00
1FFFFF80
3FE07FC0
3F801FE0
7F000FE0
7F0007F0
7E0003F0
FE0003F0
FC0003F8
FC0001F8
FC0001F8
FC0001F8
FC0001F8
FC0001F8
FC0003F8
FC0003F8
FE0003F8
7E0003F0
7F0007F0
7F000FF0
3FC01FE0
3FF07FC0
1FFFFFC0
0FFFFF80
07FFFE00
01FFFC00
003FE000
ENDCHAR
STARTCHAR 01D2
ENCODING 466
SWIDTH 624 0
DWIDTH 26 0
BBX 22 31 2 0
BITMAP
0F87C0
07CF80
03FF00
01FE00
01FE00
00FC00
000000
000000
01FC00
07FF80
0FFFC0
1FFFE0
3F87F0
7F03F8
7E01F8
FC00FC
FC00FC
FC00FC
FC00FC
FC00FC
FC00FC
FC00FC
FC00FC
FC00FC
7E01F8
7E03F8
3F87F0
3FFFE0
1FFFC0
07FF80
01FC00
ENDCHAR
STARTCHAR 01D3
ENCODING 467
SWIDTH 720 0
DWIDTH 30 0
BBX 24 39 3 0
BITMAP
07C3E0
03E7C0
01FF80
00FF00
00FF00
007E00
000000
000000
000000
FC003F
FC003F
FC003F
FC003F
FC003F
FC003F
FC003F
FC003F
FC003F
FC003F
FC003F
FC003F
FC003F
FC003F
FC003F
FC003F
FC003F
FC003F
FC003F
FC003F
FC003F
FC003F
FE007F
7F007E
7F81FE
3FFFFE
3FFFFC
1FFFF8
07FFE0
01FF80
ENDCHAR
STARTCHAR 01D4
ENCODING 468
SWIDTH 624 0
DWIDTH 26 0
BBX 20 31 3 0
BITMAP
1F0F80
0F9F00
07FE00
03FC00
03FC00
01F800
000000
000000
000000
FC03F0
FC03F0
FC03F0
FC03F0
FC03F0
FC03F0
FC03F0
FC03F0
FC03F0
FC03F0
FC03F0
FC03F0
FC03F0
FC03F0
FC03F0
FC07F0
FC07F0
FE1FF0
7FFFF0
7FFFF0
3FFBF0
0FC3F0
ENDCHAR
STARTCHAR 01D5
ENCODING 469
SWIDTH 720 0
DWIDTH 30 0
BBX 24 39 3 0
BITMAP
01FF80
01FF80
01FF80
000000
000000
018180
018180
018180
000000
FC003F
FC003F
FC003F
FC003F
FC003F
FC003F
FC003F
FC003F
FC003F
FC003F
FC003F
FC003F
FC003F
FC003F
FC003F
FC003F
FC003F
FC003F
FC003F
FC003F
FC003F
FC003F
FE007F
7F007E
7F81FE
3FFFFE
3FFFFC
1FFFF8
07FFE0
01FF80
ENDCHAR
STARTCHAR 01D6
ENCODING 470
SWIDTH 624 0
DWIDTH 26 0
BBX 20 39 3 0
BITMAP
1FFF80
1FFF80
1FFF80
1FFF80
000000
000000
000000
000000
000000
000000
1F0F80
1F0F80
1F0F80
1F0F80
000000
000000
000000
FC03F0
FC03F0
FC03F0
FC03F0
FC03F0
FC03F0
FC03F0
FC03F0
FC03F0
FC03F0
FC03F0
FC03F0
FC03F0
FC03F0
FC03F0
FC07F0
FC07F0
FE1FF0
7FFFF0
7FFFF0
3FFBF0
0FC3F0
ENDCHAR
STARTCHAR 01D7
ENCODING 471
SWIDTH 720 0
DWIDTH 30 0
BBX 24 38 3 0
BITMAP
000F80
001F00
001E00
003800
018180
018180
018180
000000
FC003F
FC003F
FC003F
FC003F
FC003F
FC003F
FC003F
FC003F
FC003F
FC003F
FC003F
FC003F
FC003F
FC003F
FC003F
FC003F
FC003F
FC003F
FC003F
FC003F
FC003F
FC003F
FE007F
7F007E
7F81FE
3FFFFE
3FFFFC
1FFFF8
07FFE0
01FF80
ENDCHAR
STARTCHAR 01D8
ENCODING 472
SWIDTH 624 0
DWIDTH 26 0
BBX 20 37 3 0
BITMAP
007F00
007E00
00FC00
00F800
00F000
01E000
000000
000000
1F0F80
1F0F80
1F0F80
1F0F80
000000
000000
000000
FC03F0
FC03F0
FC03F0
FC03F0
FC03F0
FC03F0
FC03F0
FC03F0
FC03F0
FC03F0
FC03F0
FC03F0
FC03F0
FC03F0
FC03F0
FC07F0
FC07F0
FE1FF0
7FFFF0
7FFFF0
3FFBF0
0FC3F0
ENDCHAR
STARTCHAR 01D9
ENCODING 473
SWIDTH 720 0
DWIDTH 30 0
BBX 24 38 3 0
BITMAP
01E780
00F700
00FE00
007E00
018180
018180
018180
000000
FC003F
FC003F
FC003F
FC003F
FC003F
FC003F
FC003F
FC003F
FC003F
FC003F
FC003F
FC003F
FC003F
FC003F
FC003F
FC003F
FC003F
FC003F
FC003F
FC003F
FC003F
FC003F
FE007F
7F007E
7F81FE
3FFFFE
3FFFFC
1FFFF8
07FFE0
01FF80
ENDCHAR
STARTCHAR 01DA
ENCODING 474
SWIDTH 624 0
DWIDTH 26 0
BBX 20 37 3 0
BITMAP
1F0F80
0F9F00
07FE00
03FC00
03FC00
01F800
000000
000000
1F0F80
1F0F80
1F0F80
1F0F80
000000
000000
000000
FC03F0
FC03F0
FC03F0
FC03F0
FC03F0
FC03F0
FC03F0
FC03F0
FC03F0
FC03F0
FC03F0
FC03F0
FC03F0
FC03F0
FC03F0
FC07F0
FC07F0
FE1FF0
7FFFF0
7FFFF0
3FFBF0
0FC3F0
ENDCHAR
STARTCHAR 01DB
ENCODING 475
SWIDTH 720 0
DWIDTH 30 0
BBX 24 38 3 0
BITMAP
01F000
00F000
007800
001C00
018180
018180
018180
000000
FC003F
FC003F
FC003F
FC003F
FC003F
FC003F
FC003F
FC003F
FC003F
FC003F
FC003F
FC003F
FC003F
FC003F
FC003F
FC003F
FC003F
FC003F
FC003F
FC003F
FC003F
FC003F
FE007F
7F007E
7F81FE
3FFFFE
3FFFFC
1FFFF8
07FFE0
01FF80
ENDCHAR
STARTCHAR 01DC
ENCODING 476
SWIDTH 624 0
DWIDTH 26 0
BBX 20 37 3 0
BITMAP
0FE000
07E000
03F000
01F000
00F000
007800
000000
000000
1F0F80
1F0F80
1F0F80
1F0F80
000000
000000
000000
FC03F0
FC03F0
FC03F0
FC03F0
FC03F0
FC03F0
FC03F0
FC03F0
FC03F0
FC03F0
FC03F0
FC03F0
FC03F0
FC03F0
FC03F0
FC07F0
FC07F0
FE1FF0
7FFFF0
7FFFF0
3FFBF0
0FC3F0
ENDCHAR
STARTCHAR 01DD
ENCODING 477
SWIDTH 552 0
DWIDTH 23 0
BBX 20 23 2 0
BITMAP
03F800
1FFE00
3FFF80
7FFFC0
7E1FC0
FC07E0
1C07E0
0003F0
0003F0
0003F0
FFFFF0
FFFFF0
FFFFF0
FFFFF0
F803F0
FC03E0
7C07E0
7C07E0
7F0FC0
3FFFC0
1FFF80
0FFE00
03F800
ENDCHAR
STARTCHAR 01DE
ENCODING 478
SWIDTH 720 0
DWIDTH 30 0
BBX 30 39 0 0
BITMAP
003FF000
003FF000
003FF000
00000000
00000000
00303000
00303000
00303000
00000000
001FC000
001FE000
001FE000
003FF000
003FF000
003FF000
007DF800
007CF800
00FCFC00
00F8FC00
00F87C00
01F87E00
01F87E00
03F03F00
03F03F00
03F03F00
07E01F80
07E01F80
0FFFFFC0
0FFFFFC0
0FFFFFC0
1FFFFFE0
1FFFFFE0
1F8007F0
3F0007F0
3F0003F0
7F0003F8
7E0001F8
7E0001FC
FE0001FC
ENDCHAR
STARTCHAR 01DF
ENCODING 479
SWIDTH 552 0
DWIDTH 23 0
BBX 20 37 2 0
BITMAP
1FFF80
1FFF80
1FFF80
1FFF80
000000
000000
000000
1F0F80
1F0F80
1F0F80
1F0F80
000000
000000
000000
07FC00
1FFF00
3FFF80
7FFFC0
7E0FC0
FC07C0
1C07E0
0007E0
000FE0
01FFE0
0FFFE0
3FFFE0
7FE7E0
FE07E0
FC07E0
F807E0
F807E0
FC0FE0
FE1FE0
FFFFE0
7FFBE0
3FF3E0
0FC3F0
ENDCHAR
STARTCHAR 01E0
ENCODING 480
SWIDTH 720 0
DWIDTH 30 0
BBX 30 39 0 0
BITMAP
003FF000
003FF000
003FF000
00000000
00030000
00030000
00030000
00000000
00000000
001FC000
001FE000
001FE000
003FF000
003FF000
003FF000
007DF800
007CF800
00FCFC00
00F8FC00
00F87C00
01F87E00
01F87E00
03F03F00
03F03F00
03F03F00
07E01F80
07E01F80
0FFFFFC0
0FFFFFC0
0FFFFFC0
1FFFFFE0
1FFFFFE0
1F8007F0
3F0007F0
3F0003F0
7F0003F8
7E0001F8
7E0001FC
FE0001FC
ENDCHAR
STARTCHAR 01E1
ENCODING 481
SWIDTH 552 0
DWIDTH 23 0
BBX 20 37 2 0
BITMAP
1FFF80
1FFF80
1FFF80
1FFF80
000000
000000
01F800
01F800
01F800
01F800
01F800
01F800
000000
000000
07FC00
1FFF00
3FFF80
7FFFC0
7E0FC0
FC07C0
1C07E0
0007E0
000FE0
01FFE0
0FFFE0
3FFFE0
7FE7E0
FE07E0
FC07E0
F807E0
F807E0
FC0FE0
FE1FE0
FFFFE0
7FFBE0
3FF3E0
0FC3F0
ENDCHAR
STARTCHAR 01E2
ENCODING 482
SWIDTH 1008 0
DWIDTH 42 0
BBX 42 37 -2 0
BITMAP
000007FFE000
000007FFE000
000007FFE000
000007FFE000
000000000000
000000000000
000000000000
0003FFFFFF80
0003FFFFFF80
0007FFFFFF80
0007FFFFFF80
000FC7FFFF80
000FC7E00000
001F87E00000
001F87E00000
003F07E00000
003F07E00000
007E07E00000
007E07E00000
00FE07FFFF00
00FC07FFFF00
01FC07FFFF00
01F807FFFF00
01F807FFFF00
03F807E00000
03FFFFE00000
07FFFFE00000
07FFFFE00000
0FFFFFE00000
0FFFFFE00000
1FC00FE00000
1F800FE00000
3F800FFFFFC0
3F800FFFFFC0
7F000FFFFFC0
7F000FFFFFC0
FE000FFFFFC0
ENDCHAR
STARTCHAR 01E3
ENCODING 483
SWIDTH 888 0
DWIDTH 37 0
BBX 33 29 2 0
BITMAP
003FFF0000
003FFF0000
003FFF0000
003FFF0000
0000000000
0000000000
03FC0FC000
0FFFBFF800
3FFFFFFC00
3FFFFFFE00
7E0FF87F00
7C07F01F00
1C07F01F00
0007E01F80
000FE00F80
01FFFFFF80
0FFFFFFF80
3FFFFFFF80
7FE7FFFF80
FF07E00000
FC07E00000
FC07E00000
FC07F01C00
FC0FF01F80
FE1FFC7F00
7FFFFFFF00
7FFEFFFE00
3FFC7FFC00
0FE00FE000
ENDCHAR
STARTCHAR 01E4
ENCODING 484
SWIDTH 792 0
DWIDTH 33 0
BBX 30 30 2 0
BITMAP
001FE000
00FFFC00
03FFFF00
07FFFF80
0FFFFFC0
1FF03FC0
3FC00FE0
3F8007E0
7F0007F0
7E000300
7E000000
FE000000
FC000000
FC01FFF0
FC01FFF0
FC01FFF0
FC01FFF0
FC01FFF0
FE0003F0
7E0003F0
7E01FFFC
7F01FFFC
3F81FFFC
3FC007F0
1FF01FF0
0FFFFFF0
07FFFFE0
03FFFF80
00FFFE00
001FF000
ENDCHAR
STARTCHAR 01E5
ENCODING 485
SWIDTH 624 0
DWIDTH 26 0
BBX 24 31 1 -8
BITMAP
01F800
07FE7C
1FFF7C
1FFFFC
3F83FC
3F01FC
7E00FC
7E00FC
7E00FC
7E00FC
7E00FC
7E00FC
7E00FC
7E00FC
7E00FC
3F01FC
3F83FC
1FFFFC
1FFEFC
07FCFC
03F0FC
0000FC
FFFFFF
FFFFFF
0000FC
0001F8
7F03F8
3FFFF0
3FFFF0
0FFFE0
03FF00
ENDCHAR
STARTCHAR 01E6
ENCODING 486
SWIDTH 792 0
DWIDTH 33 0
BBX 28 39 2 0
BITMAP
00F87C00
007CF800
003FF000
001FE000
001FE000
000FC000
00000000
00000000
00000000
003FE000
00FFFC00
03FFFF00
07FFFF80
0FFFFFC0
1FF03FC0
3FC01FE0
3F800FE0
7F0007F0
7E000380
7E000000
FE000000
FC000000
FC000000
FC01FFF0
FC01FFF0
FC01FFF0
FC01FFF0
FE01FFF0
7E0003F0
7E0003F0
7F0003F0
3F8003F0
3FC007F0
1FF03FF0
0FFFFFF0
07FFFFE0
03FFFF80
00FFFE00
001FF000
ENDCHAR
STARTCHAR 01E7
ENCODING 487
SWIDTH 624 0
DWIDTH 26 0
BBX 21 39 2 -8
BITMAP
1F0F80
0F9F00
07FE00
03FC00
03FC00
01F800
000000
000000
03F000
0FFCF8
1FFEF8
3FFFF8
7F0FF8
7E03F8
FE03F8
FC01F8
FC01F8
FC01F8
FC01F8
FC01F8
FC01F8
FC01F8
FC01F8
FC01F8
FE03F8
7E03F8
7F0FF8
3FFFF8
1FFFF8
0FFDF8
03F1F8
0001F8
0001F8
F001F0
7E07F0
7FFFF0
3FFFE0
1FFFC0
07FE00
ENDCHAR
STARTCHAR 01E8
ENCODING 488
SWIDTH 720 0
DWIDTH 30 0
BBX 27 39 3 0
BITMAP
0F87C000
07CF8000
03FF0000
01FE0000
01FE0000
00FC0000
00000000
00000000
00000000
FC003FC0
FC007F80
FC00FF00
FC01FE00
FC03FC00
FC07F800
FC0FF000
FC1FE000
FC3FC000
FC7F8000
FCFF0000
FDFE0000
FFFF0000
FFFF8000
FFFF8000
FFFFC000
FFFFE000
FFCFE000
FF87F000
FF07F000
FE03F800
FC03FC00
FC01FC00
FC00FE00
FC00FF00
FC007F00
FC007F80
FC003FC0
FC001FC0
FC001FE0
ENDCHAR
STARTCHAR 01E9
ENCODING 489
SWIDTH 552 0
DWIDTH 23 0
BBX 20 39 3 0
BITMAP
F87C00
7CF800
3FF000
1FE000
1FE000
0FC000
000000
000000
000000
FC0000
FC0000
FC0000
FC0000
FC0000
FC0000
FC0000
FC0000
FC0FE0
FC1FC0
FC3F80
FC7F00
FCFE00
FCFC00
FDF800
FFF000
FFF000
FFF800
FFF800
FFFC00
FFFE00
FE7E00
FC3F00
FC3F00
FC1F80
FC1F80
FC0FC0
FC0FE0
FC07E0
FC07F0
ENDCHAR
STARTCHAR 01EA
ENCODING 490
SWIDTH 792 0
DWIDTH 33 0
BBX 29 38 2 -8
BITMAP
003FE000
01FFF800
07FFFE00
0FFFFF00
1FFFFF80
3FE07FC0
3F801FE0
7F000FE0
7F0007F0
7E0003F0
FE0003F0
FC0003F8
FC0001F8
FC0001F8
FC0001F8
FC0001F8
FC0001F8
FC0003F8
FC0003F8
FE0003F8
7E0003F0
7F0007F0
7F000FF0
3FC01FE0
3FF07FC0
1FFFFFC0
0FFFFF80
07FFFE00
01FFFC00
003FE000
0003C000
00078000
00078000
000F8000
000F8000
000FF000
0007F000
0003E000
ENDCHAR
STARTCHAR 01EB
ENCODING 491
SWIDTH 624 0
DWIDTH 26 0
BBX 22 31 2 -8
BITMAP
01FC00
07FF80
0FFFC0
1FFFE0
3F87F0
7F03F8
7E01F8
FC00FC
FC00FC
FC00FC
FC00FC
FC00FC
FC00FC
FC00FC
FC00FC
FC00FC
7E01F8
7E03F8
3F87F0
3FFFE0
1FFFC0
07FF80
01FC00
003C00
007800
007800
00F800
00F800
00FF00
007F00
003E00
ENDCHAR
STARTCHAR 01EC
ENCODING 492
SWIDTH 792 0
DWIDTH 33 0
BBX 29 45 2 -8
BITMAP
01FFF800
01FFF800
01FFF800
01FFF800
00000000
00000000
00000000
003FE000
01FFF800
07FFFE00
0FFFFF00
1FFFFF80
3FE07FC0
3F801FE0
7F000FE0
7F0007F0
7E0003F0
FE0003F0
FC0003F8
FC0001F8
FC0001F8
FC0001F8
FC0001F8
FC0001F8
FC0003F8
FC0003F8
FE0003F8
7E0003F0
7F0007F0
7F000FF0
3FC01FE0
3FF07FC0
1FFFFFC0
0FFFFF80
07FFFE00
01FFFC00
003FE000
0003C000
00078000
00078000
000F8000
000F8000
000FF000
0007F000
0003E000
ENDCHAR
STARTCHAR 01ED
ENCODING 493
SWIDTH 624 0
DWIDTH 26 0
BBX 22 37 2 -8
BITMAP
0FFFC0
0FFFC0
0FFFC0
0FFFC0
000000
000000
01FC00
07FF80
0FFFC0
1FFFE0
3F87F0
7F03F8
7E01F8
FC00FC
FC00FC
FC00FC
FC00FC
FC00FC
FC00FC
FC00FC
FC00FC
FC00FC
7E01F8
7E03F8
3F87F0
3FFFE0
1FFFC0
07FF80
01FC00
003C00
007800
007800
00F800
00F800
00FF00
007F00
003E00
ENDCHAR
STARTCHAR 01EE
ENCODING 494
SWIDTH 624 0
DWIDTH 26 0
BBX 23 47 1 -8
BITMAP
0F87C0
07CF80
03FF00
01FE00
01FE00
00FC00
000000
000000
000000
FFFFFC
FFFFFC
FFFFFC
FFFFFC
FFFFFC
0001F8
0003F0
0007F0
000FE0
001FC0
003F80
007F00
00FE00
01FC00
03FE00
03FFC0
03FFE0
03FFF0
03FFF8
0007F8
0001FC
0000FC
0000FC
00007E
00007E
00007E
00007E
00007E
0000FE
1C00FC
FC00FC
7E01FC
7F87F8
3FFFF8
3FFFF0
0FFFE0
07FF80
00FE00
ENDCHAR
STARTCHAR 01EF
ENCODING 495
SWIDTH 528 0
DWIDTH 22 0
BBX 20 39 1 -8
BITMAP
0F87C0
07CF80
03FF00
01FE00
01FE00
00FC00
000000
000000
000000
3FFFF0
3FFFF0
3FFFF0
3FFFF0
000FE0
001FC0
001F80
003F00
007E00
00FE00
01FC00
01FE00
01FF80
01FFC0
001FE0
0007E0
0003F0
0003F0
0003F0
0003F0
0003F0
0003F0
3803F0
FC03F0
FC07E0
7E0FE0
7FFFC0
3FFF80
0FFF00
03FC00
ENDCHAR
STARTCHAR 01F0
ENCODING 496
SWIDTH 288 0
DWIDTH 12 0
BBX 15 39 -2 -8
BITMAP
7C3E
3E7C
1FF8
0FF0
0FF0
07E0
0000
0000
0000
07E0
07E0
07E0
07E0
07E0
07E0
07E0
07E0
07E0
07E0
07E0
07E0
07E0
07E0
07E0
07E0
07E0
07E0
07E0
07E0
07E0
07E0
07E0
07E0
0FE0
7FC0
7FC0
FFC0
FF80
FE00
ENDCHAR
STARTCHAR 01F1
ENCODING 497
SWIDTH 1344 0
DWIDTH 56 0
BBX 52 30 3 0
BITMAP
FFFF0007FFFFE0
FFFFE007FFFFE0
FFFFF007FFFFE0
FFFFFC07FFFFE0
FFFFFC07FFFFE0
FC01FE00001FC0
FC00FF00003F80
FC007F00007F80
FC003F0000FF00
FC003F8001FE00
FC001F8001FC00
FC001F8003F800
FC001F8007F800
FC001F800FF000
FC001F801FE000
FC001F801FC000
FC001F803F8000
FC001F807F8000
FC001F80FF0000
FC001F81FE0000
FC003F83FC0000
FC003F03FC0000
FC003F07F80000
FC007F0FF00000
FC01FE1FE00000
FFFFFC1FFFFFF0
FFFFFC1FFFFFF0
FFFFF81FFFFFF0
FFFFE01FFFFFF0
FFFF001FFFFFF0
ENDCHAR
STARTCHAR 01F2
ENCODING 498
SWIDTH 1224 0
DWIDTH 51 0
BBX 47 30 3 0
BITMAP
FFFF00000000
FFFFE0000000
FFFFF0000000
FFFFFC000000
FFFFFC000000
FC01FE000000
FC00FF000000
FC007F000000
FC003F0FFFFE
FC003F8FFFFE
FC001F8FFFFE
FC001F8FFFFE
FC001F8003FC
FC001F8003F8
FC001F8007F8
FC001F800FF0
FC001F801FE0
FC001F803FC0
FC001F803F80
FC001F807F80
FC003F80FF00
FC003F01FE00
FC003F03FC00
FC007F03F800
FC01FE07F800
FFFFFC0FF000
FFFFFC0FFFFE
FFFFF80FFFFE
FFFFE00FFFFE
FFFF000FFFFE
ENDCHAR
STARTCHAR 01F3
ENCODING 499
SWIDTH 1128 0
DWIDTH 47 0
BBX 44 30 2 0
BITMAP
0001F8000000
0001F8000000
0001F8000000
0001F8000000
0001F8000000
0001F8000000
0001F8000000
03F1F8000000
0FFDF87FFFF0
1FFFF87FFFF0
3FFFF87FFFF0
7F0FF87FFFF0
7E03F8001FE0
FE03F8001FC0
FC01F8003FC0
FC01F8007F80
FC01F800FF00
FC01F801FE00
FC01F801FC00
FC01F803FC00
FC01F807F800
FC01F80FF000
FC01F81FE000
FE03F81FC000
7E03F83FC000
7F0FF87F8000
3FFFF87FFFF0
1FFEF87FFFF0
0FFCF87FFFF0
03F0F87FFFF0
ENDCHAR
STARTCHAR 01F4
ENCODING 500
SWIDTH 792 0
DWIDTH 33 0
BBX 28 39 2 0
BITMAP
0003F800
0003F000
0007E000
0007C000
00078000
000F0000
00000000
00000000
00000000
003FE000
00FFFC00
03FFFF00
07FFFF80
0FFFFFC0
1FF03FC0
3FC01FE0
3F800FE0
7F0007F0
7E000380
7E000000
FE000000
FC000000
FC000000
FC01FFF0
FC01FFF0
FC01FFF0
FC01FFF0
FE01FFF0
7E0003F0
7E0003F0
7F0003F0
3F8003F0
3FC007F0
1FF03FF0
0FFFFFF0
07FFFFE0
03FFFF80
00FFFE00
001FF000
ENDCHAR
STARTCHAR 01F5
ENCODING 501
SWIDTH 624 0
DWIDTH 26 0
BBX 21 39 2 -8
BITMAP
007F00
007E00
00FC00
00F800
00F000
01E000
000000
000000
03F000
0FFCF8
1FFEF8
3FFFF8
7F0FF8
7E03F8
FE03F8
FC01F8
FC01F8
FC01F8
FC01F8
FC01F8
FC01F8
FC01F8
FC01F8
FC01F8
FE03F8
7E03F8
7F0FF8
3FFFF8
1FFFF8
0FFDF8
03F1F8
0001F8
0001F8
F001F0
7E07F0
7FFFF0
3FFFE0
1FFFC0
07FE00
ENDCHAR
STARTCHAR 01F6
ENCODING 502
SWIDTH 1032 0
DWIDTH 43 0
BBX 38 30 3 0
BITMAP
FC003F0000
FC003F0000
FC003F0000
FC003F0000
FC003F0000
FC003F0000
FC003F0000
FC003F0000
FC003F00FC
FC003F00FC
FC003F00FC
FC003F00FC
FFFFFF00FC
FFFFFF00FC
FFFFFF00FC
FFFFFF00FC
FFFFFF00FC
FC003F00FC
FC003F00FC
FC003F00FC
FC003F00FC
FC003F00FC
FC003F00FC
FC003F00F8
FC001F81F8
FC001FC3F8
FC000FFFF0
FC000FFFE0
FC0003FFC0
FC0000FF00
ENDCHAR
STARTCHAR 01F7
ENCODING 503
SWIDTH 672 0
DWIDTH 28 0
BBX 23 38 3 -8
BITMAP
FC3F00
FCFFC0
FDFFF0
FFFFF8
FFFFF8
FF83FC
FF01FC
FE00FE
FE00FE
FC00FE
FC007E
FC007E
FC007E
FC007E
FC00FE
FC00FC
FC00FC
FC00FC
FC01FC
FC01F8
FC03F8
FC03F0
FC07F0
FC07E0
FC0FC0
FC1FC0
FC3F80
FC7F00
FCFE00
FDFC00
FFF800
FFF000
FFC000
FF8000
FE0000
FC0000
FC0000
FC0000
ENDCHAR
STARTCHAR 01F8
ENCODING 504
SWIDTH 720 0
DWIDTH 30 0
BBX 24 39 3 0
BITMAP
03F800
01F800
00FC00
007C00
003C00
001E00
000000
000000
000000
FC003F
FE003F
FE003F
FF003F
FF803F
FF803F
FFC03F
FFC03F
FFE03F
FFE03F
FDF03F
FDF83F
FCF83F
FCFC3F
FC7C3F
FC3E3F
FC3E3F
FC1F3F
FC1FBF
FC0FBF
FC0FFF
FC07FF
FC03FF
FC03FF
FC01FF
FC01FF
FC00FF
FC00FF
FC007F
FC003F
ENDCHAR
STARTCHAR 01F9
ENCODING 505
SWIDTH 624 0
DWIDTH 26 0
BBX 20 31 3 0
BITMAP
1FC000
0FC000
07E000
03E000
01E000
00F000
000000
000000
003E00
F8FF80
F9FFC0
FBFFE0
FF0FE0
FE07F0
FC03F0
FC03F0
FC03F0
FC03F0
FC03F0
FC03F0
FC03F0
FC03F0
FC03F0
FC03F0
FC03F0
FC03F0
FC03F0
FC03F0
FC03F0
FC03F0
FC03F0
ENDCHAR
STARTCHAR 01FA
ENCODING 506
SWIDTH 720 0
DWIDTH 30 0
BBX 30 42 0 0
BITMAP
0003F800
0003F000
0007E000
0007C000
00078000
000F0000
00078000
000FC000
001CE000
00186000
00186000
001CE000
001FC000
001FE000
001FE000
003FF000
003FF000
003FF000
007DF800
007CF800
00FCFC00
00F8FC00
00F87C00
01F87E00
01F87E00
03F03F00
03F03F00
03F03F00
07E01F80
07E01F80
0FFFFFC0
0FFFFFC0
0FFFFFC0
1FFFFFE0
1FFFFFE0
1F8007F0
3F0007F0
3F0003F0
7F0003F8
7E0001F8
7E0001FC
FE0001FC
ENDCHAR
STARTCHAR 01FB
ENCODING 507
SWIDTH 552 0
DWIDTH 23 0
BBX 20 39 2 0
BITMAP
007F00
007E00
00FC00
00F800
00F000
01E000
000000
00F000
01F800
039C00
030C00
030C00
039C00
01F800
00F000
000000
07FC00
1FFF00
3FFF80
7FFFC0
7E0FC0
FC07C0
1C07E0
0007E0
000FE0
01FFE0
0FFFE0
3FFFE0
7FE7E0
FE07E0
FC07E0
F807E0
F807E0
FC0FE0
FE1FE0
FFFFE0
7FFBE0
3FF3E0
0FC3F0
ENDCHAR
STARTCHAR 01FC
ENCODING 508
SWIDTH 1008 0
DWIDTH 42 0
BBX 42 39 -2 0
BITMAP
000003F80000
000003F00000
000007E00000
000007C00000
000007800000
00000F000000
000000000000
000000000000
000000000000
0003FFFFFF80
0003FFFFFF80
0007FFFFFF80
0007FFFFFF80
000FC7FFFF80
000FC7E00000
001F87E00000
001F87E00000
003F07E00000
003F07E00000
007E07E00000
007E07E00000
00FE07FFFF00
00FC07FFFF00
01FC07FFFF00
01F807FFFF00
01F807FFFF00
03F807E00000
03FFFFE00000
07FFFFE00000
07FFFFE00000
0FFFFFE00000
0FFFFFE00000
1FC00FE00000
1F800FE00000
3F800FFFFFC0
3F800FFFFFC0
7F000FFFFFC0
7F000FFFFFC0
FE000FFFFFC0
ENDCHAR
STARTCHAR 01FD
ENCODING 509
SWIDTH 888 0
DWIDTH 37 0
BBX 33 31 2 0
BITMAP
0000FE0000
0000FC0000
0001F80000
0001F00000
0001E00000
0003C00000
0000000000
0000000000
03FC0FC000
0FFFBFF800
3FFFFFFC00
3FFFFFFE00
7E0FF87F00
7C07F01F00
1C07F01F00
0007E01F80
000FE00F80
01FFFFFF80
0FFFFFFF80
3FFFFFFF80
7FE7FFFF80
FF07E00000
FC07E00000
FC07E00000
FC07F01C00
FC0FF01F80
FE1FFC7F00
7FFFFFFF00
7FFEFFFE00
3FFC7FFC00
0FE00FE000
ENDCHAR
STARTCHAR 01FE
ENCODING 510
SWIDTH 792 0
DWIDTH 33 0
BBX 31 40 1 -1
BITMAP
0003F800
0003F000
0007E000
0007C000
00078000
000F0000
00000000
00000000
00000018
001FF03E
00FFFE7C
01FFFFF8
07FFFFF0
0FFFFFE0
0FF01FF0
1FC007F0
3F800FF8
3F801FF8
3F003FF8
7F007DFC
7E00F9FC
7E01F0FC
7E03E0FC
7E07C0FC
7E0F80FC
7E0F80FC
7E1F01FC
7E3E01FC
7F7C01F8
7FF801F8
3FF003F8
3FE007F0
1FC00FF0
1FF03FE0
0FFFFFC0
1FFFFF80
3FFFFF00
7CFFFE00
F81FF000
30000000
ENDCHAR
STARTCHAR 01FF
ENCODING 511
SWIDTH 624 0
DWIDTH 26 0
BBX 22 31 2 0
BITMAP
003F80
003F00
007E00
007C00
007800
00F000
000000
000000
01FC18
07FF3C
0FFFF8
1FFFF0
3F87F0
7E03F0
7E07F8
FC0FF8
FC0FFC
FC1EFC
FC3CFC
FC787C
FCF07C
FDE0FC
FDE0FC
FFC0FC
7F81F8
7F01F8
3F87F0
3FFFE0
7FFFC0
FFFF80
61FE00
ENDCHAR
STARTCHAR 0200
ENCODING 512
SWIDTH 720 0
DWIDTH 30 0
BBX 30 39 0 0
BITMAP
07E7E000
03E3E000
01F1F000
00F1F000
0078F800
00787800
00000000
00000000
00000000
001FC000
001FE000
001FE000
003FF000
003FF000
003FF000
007DF800
007CF800
00FCFC00
00F8FC00
00F87C00
01F87E00
01F87E00
03F03F00
03F03F00
03F03F00
07E01F80
07E01F80
0FFFFFC0
0FFFFFC0
0FFFFFC0
1FFFFFE0
1FFFFFE0
1F8007F0
3F0007F0
3F0003F0
7F0003F8
7E0001F8
7E0001FC
FE0001FC
ENDCHAR
STARTCHAR 0201
ENCODING 513
SWIDTH 552 0
DWIDTH 23 0
BBX 20 31 2 0
BITMAP
FCFC00
7C7C00
3E3E00
1E3E00
0F1F00
0F0F00
000000
000000
07FC00
1FFF00
3FFF80
7FFFC0
7E0FC0
FC07C0
1C07E0
0007E0
000FE0
01FFE0
0FFFE0
3FFFE0
7FE7E0
FE07E0
FC07E0
F807E0
F807E0
FC0FE0
FE1FE0
FFFFE0
7FFBE0
3FF3E0
0FC3F0
ENDCHAR
STARTCHAR 0202
ENCODING 514
SWIDTH 720 0
DWIDTH 30 0
BBX 30 39 0 0
BITMAP
000FC000
001FE000
003FF000
00787800
00703800
00603800
00000000
00000000
00000000
001FC000
001FE000
001FE000
003FF000
003FF000
003FF000
007DF800
007CF800
00FCFC00
00F8FC00
00F87C00
01F87E00
01F87E00
03F03F00
03F03F00
03F03F00
07E01F80
07E01F80
0FFFFFC0
0FFFFFC0
0FFFFFC0
1FFFFFE0
1FFFFFE0
1F8007F0
3F0007F0
3F0003F0
7F0003F8
7E0001F8
7E0001FC
FE0001FC
ENDCHAR
STARTCHAR 0203
ENCODING 515
SWIDTH 552 0
DWIDTH 23 0
BBX 20 31 2 0
BITMAP
01F800
03FC00
07FE00
0F0F00
0E0700
0C0700
000000
000000
07FC00
1FFF00
3FFF80
7FFFC0
7E0FC0
FC07C0
1C07E0
0007E0
000FE0
01FFE0
0FFFE0
3FFFE0
7FE7E0
FE07E0
FC07E0
F807E0
F807E0
FC0FE0
FE1FE0
FFFFE0
7FFBE0
3FF3E0
0FC3F0
ENDCHAR
STARTCHAR 0204
ENCODING 516
SWIDTH 672 0
DWIDTH 28 0
BBX 23 39 3 0
BITMAP
7E7E00
3E3E00
1F1F00
0F1F00
078F80
078780
000000
000000
000000
FFFFFC
FFFFFC
FFFFFC
FFFFFC
FFFFFC
FC0000
FC0000
FC0000
FC0000
FC0000
FC0000
FC0000
FFFFF8
FFFFF8
FFFFF8
FFFFF8
FFFFF8
FC0000
FC0000
FC0000
FC0000
FC0000
FC0000
FC0000
FC0000
FFFFFE
FFFFFE
FFFFFE
FFFFFE
FFFFFE
ENDCHAR
STARTCHAR 0205
ENCODING 517
SWIDTH 552 0
DWIDTH 23 0
BBX 21 31 1 0
BITMAP
7E7E00
3E3E00
1F1F00
0F1F00
078F80
078780
000000
000000
01FC00
07FF00
0FFF80
1FFFC0
3F87E0
3E03E0
7E03F0
7C01F0
7C01F0
FFFFF0
FFFFF8
FFFFF8
FFFFF8
FC0000
7C0000
7E0000
7E03C0
7F03F0
3F87F0
1FFFE0
0FFFC0
07FF80
01FE00
ENDCHAR
STARTCHAR 0206
ENCODING 518
SWIDTH 672 0
DWIDTH 28 0
BBX 23 39 3 0
BITMAP
00FC00
01FE00
03FF00
078780
070380
060380
000000
000000
000000
FFFFFC
FFFFFC
FFFFFC
FFFFFC
FFFFFC
FC0000
FC0000
FC0000
FC0000
FC0000
FC0000
FC0000
FFFFF8
FFFFF8
FFFFF8
FFFFF8
FFFFF8
FC0000
FC0000
FC0000
FC0000
FC0000
FC0000
FC0000
FC0000
FFFFFE
FFFFFE
FFFFFE
FFFFFE
FFFFFE
ENDCHAR
STARTCHAR 0207
ENCODING 519
SWIDTH 552 0
DWIDTH 23 0
BBX 21 31 1 0
BITMAP
00FC00
01FE00
03FF00
078780
070380
060380
000000
000000
01FC00
07FF00
0FFF80
1FFFC0
3F87E0
3E03E0
7E03F0
7C01F0
7C01F0
FFFFF0
FFFFF8
FFFFF8
FFFFF8
FC0000
7C0000
7E0000
7E03C0
7F03F0
3F87F0
1FFFE0
0FFFC0
07FF80
01FE00
ENDCHAR
STARTCHAR 0208
ENCODING 520
SWIDTH 288 0
DWIDTH 12 0
BBX 16 39 -4 0
BITMAP
FCFC
7C7C
3E3E
1E3E
0F1F
0F0F
0000
0000
0000
01F8
01F8
01F8
01F8
01F8
01F8
01F8
01F8
01F8
01F8
01F8
01F8
01F8
01F8
01F8
01F8
01F8
01F8
01F8
01F8
01F8
01F8
01F8
01F8
01F8
01F8
01F8
01F8
01F8
01F8
ENDCHAR
STARTCHAR 0209
ENCODING 521
SWIDTH 288 0
DWIDTH 12 0
BBX 16 31 -4 0
BITMAP
FCFC
7C7C
3E3E
1E3E
0F1F
0F0F
0000
0000
0000
01F8
01F8
01F8
01F8
01F8
01F8
01F8
01F8
01F8
01F8
01F8
01F8
01F8
01F8
01F8
01F8
01F8
01F8
01F8
01F8
01F8
01F8
ENDCHAR
STARTCHAR 020A
ENCODING 522
SWIDTH 288 0
DWIDTH 12 0
BBX 12 39 0 0
BITMAP
1F80
3FC0
7FE0
F0F0
E070
C070
0000
0000
0000
1F80
1F80
1F80
1F80
1F80
1F80
1F80
1F80
1F80
1F80
1F80
1F80
1F80
1F80
1F80
1F80
1F80
1F80
1F80
1F80
1F80
1F80
1F80
1F80
1F80
1F80
1F80
1F80
1F80
1F80
ENDCHAR
STARTCHAR 020B
ENCODING 523
SWIDTH 288 0
DWIDTH 12 0
BBX 12 31 0 0
BITMAP
1F80
3FC0
7FE0
F0F0
E070
C070
0000
0000
0000
1F80
1F80
1F80
1F80
1F80
1F80
1F80
1F80
1F80
1F80
1F80
1F80
1F80
1F80
1F80
1F80
1F80
1F80
1F80
1F80
1F80
1F80
ENDCHAR
STARTCHAR 020C
ENCODING 524
SWIDTH 792 0
DWIDTH 33 0
BBX 29 39 2 0
BITMAP
0FCFC000
07C7C000
03E3E000
01E3E000
00F1F000
00F0F000
00000000
00000000
00000000
003FE000
01FFF800
07FFFE00
0FFFFF00
1FFFFF80
3FE07FC0
3F801FE0
7F000FE0
7F0007F0
7E0003F0
FE0003F0
FC0003F8
FC0001F8
FC0001F8
FC0001F8
FC0001F8
FC0001F8
FC0003F8
FC0003F8
FE0003F8
7E0003F0
7F0007F0
7F000FF0
3FC01FE0
3FF07FC0
1FFFFFC0
0FFFFF80
07FFFE00
01FFFC00
003FE000
ENDCHAR
STARTCHAR 020D
ENCODING 525
SWIDTH 624 0
DWIDTH 26 0
BBX 22 31 2 0
BITMAP
7E7E00
3E3E00
1F1F00
0F1F00
078F80
078780
000000
000000
01FC00
07FF80
0FFFC0
1FFFE0
3F87F0
7F03F8
7E01F8
FC00FC
FC00FC
FC00FC
FC00FC
FC00FC
FC00FC
FC00FC
FC00FC
FC00FC
7E01F8
7E03F8
3F87F0
3FFFE0
1FFFC0
07FF80
01FC00
ENDCHAR
STARTCHAR 020E
ENCODING 526
SWIDTH 792 0
DWIDTH 33 0
BBX 29 39 2 0
BITMAP
001F8000
003FC000
007FE000
00F0F000
00E07000
00C07000
00000000
00000000
00000000
003FE000
01FFF800
07FFFE00
0FFFFF00
1FFFFF80
3FE07FC0
3F801FE0
7F000FE0
7F0007F0
7E0003F0
FE0003F0
FC0003F8
FC0001F8
FC0001F8
FC0001F8
FC0001F8
FC0001F8
FC0003F8
FC0003F8
FE0003F8
7E0003F0
7F0007F0
7F000FF0
3FC01FE0
3FF07FC0
1FFFFFC0
0FFFFF80
07FFFE00
01FFFC00
003FE000
ENDCHAR
STARTCHAR 020F
ENCODING 527
SWIDTH 624 0
DWIDTH 26 0
BBX 22 31 2 0
BITMAP
00FC00
01FE00
03FF00
078780
070380
060380
000000
000000
01FC00
07FF80
0FFFC0
1FFFE0
3F87F0
7F03F8
7E01F8
FC00FC
FC00FC
FC00FC
FC00FC
FC00FC
FC00FC
FC00FC
FC00FC
FC00FC
7E01F8
7E03F8
3F87F0
3FFFE0
1FFFC0
07FF80
01FC00
ENDCHAR
STARTCHAR 0210
ENCODING 528
SWIDTH 720 0
DWIDTH 30 0
BBX 27 39 3 0
BITMAP
7E7E0000
3E3E0000
1F1F0000
0F1F0000
078F8000
07878000
00000000
00000000
00000000
FFFFE000
FFFFF800
FFFFFC00
FFFFFE00
FFFFFF00
FC007F00
FC003F00
FC003F80
FC003F80
FC003F80
FC003F00
FC00FF00
FFFFFF00
FFFFFE00
FFFFFC00
FFFFF000
FFFF8000
FC1FE000
FC0FF000
FC07F000
FC03F800
FC03FC00
FC01FE00
FC00FE00
FC00FF00
FC007F00
FC003F80
FC003FC0
FC001FC0
FC000FE0
ENDCHAR
STARTCHAR 0211
ENCODING 529
SWIDTH 384 0
DWIDTH 16 0
BBX 18 31 -1 0
BITMAP
FCFC00
7C7C00
3E3E00
1E3E00
0F1F00
0F0F00
000000
000000
000F80
0F9FC0
0FBF80
0FFF80
0FFF80
0FF100
0FE000
0FC000
0FC000
0FC000
0FC000
0FC000
0FC000
0FC000
0FC000
0FC000
0FC000
0FC000
0FC000
0FC000
0FC000
0FC000
0FC000
ENDCHAR
STARTCHAR 0212
ENCODING 530
SWIDTH 720 0
DWIDTH 30 0
BBX 27 39 3 0
BITMAP
00FC0000
01FE0000
03FF0000
07878000
07038000
06038000
00000000
00000000
00000000
FFFFE000
FFFFF800
FFFFFC00
FFFFFE00
FFFFFF00
FC007F00
FC003F00
FC003F80
FC003F80
FC003F80
FC003F00
FC00FF00
FFFFFF00
FFFFFE00
FFFFFC00
FFFFF000
FFFF8000
FC1FE000
FC0FF000
FC07F000
FC03F800
FC03FC00
FC01FE00
FC00FE00
FC00FF00
FC007F00
FC003F80
FC003FC0
FC001FC0
FC000FE0
ENDCHAR
STARTCHAR 0213
ENCODING 531
SWIDTH 384 0
DWIDTH 16 0
BBX 14 31 3 0
BITMAP
1F80
3FC0
7FE0
F0F0
E070
C070
0000
0000
00F8
F9FC
FBF8
FFF8
FFF8
FF10
FE00
FC00
FC00
FC00
FC00
FC00
FC00
FC00
FC00
FC00
FC00
FC00
FC00
FC00
FC00
FC00
FC00
ENDCHAR
STARTCHAR 0214
ENCODING 532
SWIDTH 720 0
DWIDTH 30 0
BBX 24 39 3 0
BITMAP
1F9F80
0F8F80
07C7C0
03C7C0
01E3E0
01E1E0
000000
000000
000000
FC003F
FC003F
FC003F
FC003F
FC003F
FC003F
FC003F
FC003F
FC003F
FC003F
FC003F
FC003F
FC003F
FC003F
FC003F
FC003F
FC003F
FC003F
FC003F
FC003F
FC003F
FC003F
FE007F
7F007E
7F81FE
3FFFFE
3FFFFC
1FFFF8
07FFE0
01FF80
ENDCHAR
STARTCHAR 0215
ENCODING 533
SWIDTH 624 0
DWIDTH 26 0
BBX 21 31 2 0
BITMAP
FCFC00
7C7C00
3E3E00
1E3E00
0F1F00
0F0F00
000000
000000
000000
7E01F8
7E01F8
7E01F8
7E01F8
7E01F8
7E01F8
7E01F8
7E01F8
7E01F8
7E01F8
7E01F8
7E01F8
7E01F8
7E01F8
7E01F8
7E03F8
7E03F8
7F0FF8
3FFFF8
3FFFF8
1FFDF8
07E1F8
ENDCHAR
STARTCHAR 0216
ENCODING 534
SWIDTH 720 0
DWIDTH 30 0
BBX 24 39 3 0
BITMAP
007E00
00FF00
01FF80
03C3C0
0381C0
0301C0
000000
000000
000000
FC003F
FC003F
FC003F
FC003F
FC003F
FC003F
FC003F
FC003F
FC003F
FC003F
FC003F
FC003F
FC003F
FC003F
FC003F
FC003F
FC003F
FC003F
FC003F
FC003F
FC003F
FC003F
FE007F
7F007E
7F81FE
3FFFFE
3FFFFC
1FFFF8
07FFE0
01FF80
ENDCHAR
STARTCHAR 0217
ENCODING 535
SWIDTH 624 0
DWIDTH 26 0
BBX 20 31 3 0
BITMAP
01F800
03FC00
07FE00
0F0F00
0E0700
0C0700
000000
000000
000000
FC03F0
FC03F0
FC03F0
FC03F0
FC03F0
FC03F0
FC03F0
FC03F0
FC03F0
FC03F0
FC03F0
FC03F0
FC03F0
FC03F0
FC03F0
FC07F0
FC07F0
FE1FF0
7FFFF0
7FFFF0
3FFBF0
0FC3F0
ENDCHAR
STARTCHAR 0218
ENCODING 536
SWIDTH 672 0
DWIDTH 28 0
BBX 24 41 2 -11
BITMAP
01FF00
07FFE0
1FFFF0
3FFFF8
3FFFFC
7F01FC
7E00FE
7C007E
7E007E
7E0000
7FC000
3FFC00
3FFF80
1FFFF0
07FFF8
01FFFC
001FFE
0001FE
00007F
3C003F
FC003F
FC003F
FE007F
FF007F
7F81FE
7FFFFE
3FFFFC
1FFFF8
07FFE0
01FF80
000000
000000
007E00
007E00
007E00
007E00
000E00
003E00
007C00
007800
006000
ENDCHAR
STARTCHAR 0219
ENCODING 537
SWIDTH 552 0
DWIDTH 23 0
BBX 20 34 1 -11
BITMAP
03FC00
0FFF80
3FFFC0
3FFFC0
7E0FE0
7C07E0
7C0380
7E0000
7F8000
7FF000
3FFF00
1FFFC0
07FFE0
00FFF0
000FF0
0003F0
1C01F0
FC03F0
7F07F0
7FFFE0
3FFFC0
0FFF80
03FE00
000000
000000
01F800
01F800
01F800
01F800
003800
00F800
01F000
01E000
018000
ENDCHAR
STARTCHAR 021A
ENCODING 538
SWIDTH 624 0
DWIDTH 26 0
BBX 24 41 1 -11
BITMAP
FFFFFF
FFFFFF
FFFFFF
FFFFFF
FFFFFF
007E00
007E00
007E00
007E00
007E00
007E00
007E00
007E00
007E00
007E00
007E00
007E00
007E00
007E00
007E00
007E00
007E00
007E00
007E00
007E00
007E00
007E00
007E00
007E00
007E00
000000
000000
007E00
007E00
007E00
007E00
000E00
003E00
007C00
007800
006000
ENDCHAR
STARTCHAR 021B
ENCODING 539
SWIDTH 336 0
DWIDTH 14 0
BBX 12 40 1 -11
BITMAP
0100
0700
1F00
3F00
3F00
3F00
3F00
FFF0
FFF0
FFF0
FFF0
3F00
3F00
3F00
3F00
3F00
3F00
3F00
3F00
3F00
3F00
3F00
3F00
3F00
3F80
1FF0
1FF0
0FF0
07F0
0000
0000
0FC0
0FC0
0FC0
0FC0
01C0
07C0
0F80
0F00
0C00
ENDCHAR
STARTCHAR 021C
ENCODING 540
SWIDTH 576 0
DWIDTH 24 0
BBX 21 38 1 -8
BITMAP
03FC00
1FFF80
3FFFC0
7FFFE0
FFFFF0
7E07F8
3C03F8
1001F8
0001F8
0001F8
0001F8
0001F8
0003F8
0007F0
000FF0
001FE0
007FE0
03FFF0
1FFFF0
7FFFF8
7FF3F8
7F81F8
7C01F8
6001F8
0001F8
0003F8
0003F8
0007F0
000FF0
003FE0
00FFC0
03FF80
3FFF00
7FFC00
7FF000
7F8000
7C0000
600000
ENDCHAR
STARTCHAR 021D
ENCODING 541
SWIDTH 528 0
DWIDTH 22 0
BBX 18 31 2 -8
BITMAP
03F800
1FFE00
3FFF00
7FFF80
FE1FC0
780FC0
300FC0
000FC0
000FC0
000FC0
001FC0
003F80
007F80
03FF00
3FFF00
FFFF80
FFDFC0
FE0FC0
C00FC0
000FC0
000FC0
000FC0
001FC0
003F80
007F80
03FF00
3FFC00
FFF800
FFC000
FE0000
C00000
ENDCHAR
STARTCHAR 021E
ENCODING 542
SWIDTH 720 0
DWIDTH 30 0
BBX 24 39 3 0
BITMAP
07C3E0
03E7C0
01FF80
00FF00
00FF00
007E00
000000
000000
000000
FC003F
FC003F
FC003F
FC003F
FC003F
FC003F
FC003F
FC003F
FC003F
FC003F
FC003F
FC003F
FFFFFF
FFFFFF
FFFFFF
FFFFFF
FFFFFF
FC003F
FC003F
FC003F
FC003F
FC003F
FC003F
FC003F
FC003F
FC003F
FC003F
FC003F
FC003F
FC003F
ENDCHAR
STARTCHAR 021F
ENCODING 543
SWIDTH 624 0
DWIDTH 26 0
BBX 20 39 3 0
BITMAP
7C3E00
3E7C00
1FF800
0FF000
0FF000
07E000
000000
000000
000000
FC0000
FC0000
FC0000
FC0000
FC0000
FC0000
FC0000
FC7E00
FDFF80
FFFFC0
FFFFE0
FF0FE0
FE07F0
FC03F0
FC03F0
FC03F0
FC03F0
FC03F0
FC03F0
FC03F0
FC03F0
FC03F0
FC03F0
FC03F0
FC03F0
FC03F0
FC03F0
FC03F0
FC03F0
FC03F0
ENDCHAR
STARTCHAR 0220
ENCODING 544
SWIDTH 720 0
DWIDTH 30 0
BBX 24 38 3 -8
BITMAP
FC7F80
FFFFF0
FFFFF8
FFFFFC
FFFFFE
FF81FE
FE00FF
FC007F
FC007F
FC003F
FC003F
FC003F
FC003F
FC003F
FC003F
FC003F
FC003F
FC003F
FC003F
FC003F
FC003F
FC003F
FC003F
FC003F
FC003F
FC003F
FC003F
FC003F
FC003F
FC003F
00003F
00003F
00003F
00003F
00003F
00003F
00003F
00003F
ENDCHAR
STARTCHAR 0221
ENCODING 545
SWIDTH 840 0
DWIDTH 35 0
BBX 33 38 2 -8
BITMAP
0001F80000
0001F80000
0001F80000
0001F80000
0001F80000
0001F80000
0001F80000
03F1F80000
0FFDF80000
1FFFF80000
3FFFF80000
7F07F80000
7E03F80000
FE03F80000
FC01F80000
FC01F80000
FC01F80000
FC01F80000
FC01F80000
FC01F80000
FC01F80000
FC01F80000
FC01F80000
7E03F80000
7E03F80000
7F0FF80000
3FFFF80000
1FFFF8F800
0FFDFBFE00
03F1FFFF00
0001FFFF80
0000FF8F80
0000FF0F80
0000FF0F80
0001FFFF80
0003FFFF00
0001EFFE00
000063F800
ENDCHAR
STARTCHAR 0222
ENCODING 546
SWIDTH 648 0
DWIDTH 27 0
BBX 23 30 2 0
BITMAP
000F80
03CFE0
0FCFF0
3FCFF8
7FCFFC
7FC3FC
7F01FC
7E00FC
7E00FC
7E01F8
7F03F8
3FFFF0
0FFFE0
07FFC0
3FFFF0
7FFFF8
7F03FC
FE00FC
FC00FE
FC00FE
FC007E
FC00FE
FC00FE
FE00FC
FF03FC
7FFFFC
3FFFF8
1FFFF0
0FFFC0
01FF00
ENDCHAR
STARTCHAR 0223
ENCODING 547
SWIDTH 648 0
DWIDTH 27 0
BBX 23 30 2 0
BITMAP
020180
0F03C0
1F83F0
3F03F8
7F01F8
7E01FC
FE00FC
7E00FC
7E00FC
7E01F8
3F83F8
3FFFF0
0FFFE0
07FFC0
3FFFF0
7FFFF8
7F03FC
FE00FC
FC00FE
FC00FE
FC007E
FC00FE
FC00FE
FE00FC
FF03FC
7FFFFC
3FFFF8
1FFFF0
0FFFC0
01FF00
ENDCHAR
STARTCHAR 0224
ENCODING 548
SWIDTH 624 0
DWIDTH 26 0
BBX 25 36 0 -6
BITMAP
3FFFFF00
3FFFFF00
3FFFFF00
3FFFFF00
3FFFFF00
0000FF00
0001FE00
0003FC00
0007F800
0007F800
000FF000
001FE000
003FC000
003F8000
007F0000
00FF0000
01FE0000
03FC0000
03F80000
07F00000
0FE00000
1FE00000
3FC00000
3F800000
7F000000
FFFFF800
FFFFFE00
FFFFFF00
FFFFFF00
FFFFFF80
00000F80
00000F80
00000F80
00000F80
00000F80
00000300
ENDCHAR
STARTCHAR 0225
ENCODING 549
SWIDTH 504 0
DWIDTH 21 0
BBX 19 28 1 -6
BITMAP
FFFFE0
FFFFE0
FFFFE0
FFFFC0
003FC0
003F80
007F00
00FE00
01FE00
01FC00
03F800
07F000
0FF000
0FE000
1FC000
3F8000
7F0000
7F0000
FFFF00
FFFFC0
FFFFE0
FFFFE0
0003E0
0001E0
0001E0
0001E0
0001E0
0000E0
ENDCHAR
STARTCHAR 0226
ENCODING 550
SWIDTH 720 0
DWIDTH 30 0
BBX 30 39 0 0
BITMAP
000FC000
000FC000
000FC000
000FC000
000FC000
000FC000
00000000
00000000
00000000
001FC000
001FE000
001FE000
003FF000
003FF000
003FF000
007DF800
007CF800
00FCFC00
00F8FC00
00F87C00
01F87E00
01F87E00
03F03F00
03F03F00
03F03F00
07E01F80
07E01F80
0FFFFFC0
0FFFFFC0
0FFFFFC0
1FFFFFE0
1FFFFFE0
1F8007F0
3F0007F0
3F0003F0
7F0003F8
7E0001F8
7E0001FC
FE0001FC
ENDCHAR
STARTCHAR 0227
ENCODING 551
SWIDTH 552 0
DWIDTH 23 0
BBX 20 31 2 0
BITMAP
01F800
01F800
01F800
01F800
01F800
01F800
000000
000000
07FC00
1FFF00
3FFF80
7FFFC0
7E0FC0
FC07C0
1C07E0
0007E0
000FE0
01FFE0
0FFFE0
3FFFE0
7FE7E0
FE07E0
FC07E0
F807E0
F807E0
FC0FE0
FE1FE0
FFFFE0
7FFBE0
3FF3E0
0FC3F0
ENDCHAR
STARTCHAR 0228
ENCODING 552
SWIDTH 672 0
DWIDTH 28 0
BBX 23 38 3 -8
BITMAP
FFFFFC
FFFFFC
FFFFFC
FFFFFC
FFFFFC
FC0000
FC0000
FC0000
FC0000
FC0000
FC0000
FC0000
FFFFF8
FFFFF8
FFFFF8
FFFFF8
FFFFF8
FC0000
FC0000
FC0000
FC0000
FC0000
FC0000
FC0000
FC0000
FFFFFE
FFFFFE
FFFFFE
FFFFFE
FFFFFE
00FE00
00FF00
000F80
000780
000780
000F00
03FF00
03F800
ENDCHAR
STARTCHAR 0229
ENCODING 553
SWIDTH 552 0
DWIDTH 23 0
BBX 21 31 1 -8
BITMAP
01FC00
07FF00
0FFF80
1FFFC0
3F87E0
3E03E0
7E03F0
7C01F0
7C01F0
FFFFF0
FFFFF8
FFFFF8
FFFFF8
FC0000
7C0000
7E0000
7E03C0
7F03F0
3F87F0
1FFFE0
0FFFC0
07FF80
01FE00
01FC00
01FE00
001F00
000F00
000F00
001E00
07FE00
07F000
ENDCHAR
STARTCHAR 022A
ENCODING 554
SWIDTH 792 0
DWIDTH 33 0
BBX 29 39 2 0
BITMAP
007FE000
007FE000
007FE000
00000000
00000000
00606000
00606000
00606000
00000000
003FE000
01FFF800
07FFFE00
0FFFFF00
1FFFFF80
3FE07FC0
3F801FE0
7F000FE0
7F0007F0
7E0003F0
FE0003F0
FC0003F8
FC0001F8
FC0001F8
FC0001F8
FC0001F8
FC0001F8
FC0003F8
FC0003F8
FE0003F8
7E0003F0
7F0007F0
7F000FF0
3FC01FE0
3FF07FC0
1FFFFFC0
0FFFFF80
07FFFE00
01FFFC00
003FE000
ENDCHAR
STARTCHAR 022B
ENCODING 555
SWIDTH 624 0
DWIDTH 26 0
BBX 22 37 2 0
BITMAP
0FFFC0
0FFFC0
0FFFC0
0FFFC0
000000
000000
000000
0F87C0
0F87C0
0F87C0
0F87C0
000000
000000
000000
01FC00
07FF80
0FFFC0
1FFFE0
3F87F0
7F03F8
7E01F8
FC00FC
FC00FC
FC00FC
FC00FC
FC00FC
FC00FC
FC00FC
FC00FC
FC00FC
7E01F8
7E03F8
3F87F0
3FFFE0
1FFFC0
07FF80
01FC00
ENDCHAR
STARTCHAR 022C
ENCODING 556
SWIDTH 792 0
DWIDTH 33 0
BBX 29 39 2 0
BITMAP
003FF000
003FF000
003FF000
00000000
001E3000
003FF000
0031E000
00000000
00000000
003FE000
01FFF800
07FFFE00
0FFFFF00
1FFFFF80
3FE07FC0
3F801FE0
7F000FE0
7F0007F0
7E0003F0
FE0003F0
FC0003F8
FC0001F8
FC0001F8
FC0001F8
FC0001F8
FC0001F8
FC0003F8
FC0003F8
FE0003F8
7E0003F0
7F0007F0
7F000FF0
3FC01FE0
3FF07FC0
1FFFFFC0
0FFFFF80
07FFFE00
01FFFC00
003FE000
ENDCHAR
STARTCHAR 022D
ENCODING 557
SWIDTH 624 0
DWIDTH 26 0
BBX 22 37 2 0
BITMAP
0FFFC0
0FFFC0
0FFFC0
0FFFC0
000000
000000
000000
03C1C0
0FF1C0
0FFFC0
0E3F80
0C0F00
000000
000000
01FC00
07FF80
0FFFC0
1FFFE0
3F87F0
7F03F8
7E01F8
FC00FC
FC00FC
FC00FC
FC00FC
FC00FC
FC00FC
FC00FC
FC00FC
FC00FC
7E01F8
7E03F8
3F87F0
3FFFE0
1FFFC0
07FF80
01FC00
ENDCHAR
STARTCHAR 022E
ENCODING 558
SWIDTH 792 0
DWIDTH 33 0
BBX 29 39 2 0
BITMAP
001F8000
001F8000
001F8000
001F8000
001F8000
001F8000
00000000
00000000
00000000
003FE000
01FFF800
07FFFE00
0FFFFF00
1FFFFF80
3FE07FC0
3F801FE0
7F000FE0
7F0007F0
7E0003F0
FE0003F0
FC0003F8
FC0001F8
FC0001F8
FC0001F8
FC0001F8
FC0001F8
FC0003F8
FC0003F8
FE0003F8
7E0003F0
7F0007F0
7F000FF0
3FC01FE0
3FF07FC0
1FFFFFC0
0FFFFF80
07FFFE00
01FFFC00
003FE000
ENDCHAR
STARTCHAR 022F
ENCODING 559
SWIDTH 624 0
DWIDTH 26 0
BBX 22 31 2 0
BITMAP
00FC00
00FC00
00FC00
00FC00
00FC00
00FC00
000000
000000
01FC00
07FF80
0FFFC0
1FFFE0
3F87F0
7F03F8
7E01F8
FC00FC
FC00FC
FC00FC
FC00FC
FC00FC
FC00FC
FC00FC
FC00FC
FC00FC
7E01F8
7E03F8
3F87F0
3FFFE0
1FFFC0
07FF80
01FC00
ENDCHAR
STARTCHAR 0230
ENCODING 560
SWIDTH 792 0
DWIDTH 33 0
BBX 29 39 2 0
BITMAP
007FE000
007FE000
007FE000
00000000
00060000
00060000
00060000
00000000
00000000
003FE000
01FFF800
07FFFE00
0FFFFF00
1FFFFF80
3FE07FC0
3F801FE0
7F000FE0
7F0007F0
7E0003F0
FE0003F0
FC0003F8
FC0001F8
FC0001F8
FC0001F8
FC0001F8
FC0001F8
FC0003F8
FC0003F8
FE0003F8
7E0003F0
7F0007F0
7F000FF0
3FC01FE0
3FF07FC0
1FFFFFC0
0FFFFF80
07FFFE00
01FFFC00
003FE000
ENDCHAR
STARTCHAR 0231
ENCODING 561
SWIDTH 624 0
DWIDTH 26 0
BBX 22 37 2 0
BITMAP
0FFFC0
0FFFC0
0FFFC0
0FFFC0
000000
000000
00FC00
00FC00
00FC00
00FC00
00FC00
00FC00
000000
000000
01FC00
07FF80
0FFFC0
1FFFE0
3F87F0
7F03F8
7E01F8
FC00FC
FC00FC
FC00FC
FC00FC
FC00FC
FC00FC
FC00FC
FC00FC
FC00FC
7E01F8
7E03F8
3F87F0
3FFFE0
1FFFC0
07FF80
01FC00
ENDCHAR
STARTCHAR 0232
ENCODING 562
SWIDTH 672 0
DWIDTH 28 0
BBX 28 37 0 0
BITMAP
01FFF800
01FFF800
01FFF800
01FFF800
00000000
00000000
00000000
FE0007F0
7F000FE0
3F800FC0
3F801FC0
1FC03F80
1FC03F80
0FE07F00
07E07E00
07F0FE00
03F8FC00
01F9F800
01FFF800
00FFF000
00FFF000
007FE000
003FC000
003FC000
001F8000
001F8000
001F8000
001F8000
001F8000
001F8000
001F8000
001F8000
001F8000
001F8000
001F8000
001F8000
001F8000
ENDCHAR
STARTCHAR 0233
ENCODING 563
SWIDTH 552 0
DWIDTH 23 0
BBX 23 37 0 -8
BITMAP
07FFE0
07FFE0
07FFE0
07FFE0
000000
000000
000000
FE007E
7E00FC
7E00FC
3F00F8
3F01F8
3F01F8
1F81F0
1F83F0
1F83F0
0FC3E0
0FC7E0
07C7E0
07E7C0
07EFC0
03EF80
03FF80
01FF80
01FF00
01FF00
00FF00
00FE00
00FE00
00FC00
00FC00
01FC00
03F800
3FF800
3FF000
3FE000
3F8000
ENDCHAR
STARTCHAR 0234
ENCODING 564
SWIDTH 504 0
DWIDTH 21 0
BBX 19 38 2 -8
BITMAP
7E0000
7E0000
7E0000
7E0000
7E0000
7E0000
7E0000
7E0000
7E0000
7E0000
7E0000
7E0000
7E0000
7E0000
7E0000
7E0000
7E0000
7E0000
7E0000
7E0000
7E0000
7E0000
7E0000
7E0000
7E0000
7E0000
7E0000
7E3E00
7EFF80
7FFFC0
7FFFC0
7FE7E0
3F83E0
3FC7E0
7FFFC0
FFFFC0
7FFF80
10FE00
ENDCHAR
STARTCHAR 0235
ENCODING 565
SWIDTH 840 0
DWIDTH 35 0
BBX 32 31 3 -8
BITMAP
007E0000
F9FF8000
FBFFC000
FFFFE000
FF0FE000
FE07E000
FC03F000
FC03F000
FC03F000
FC03F000
FC03F000
FC03F000
FC03F000
FC03F000
FC03F000
FC03F000
FC03F000
FC03F000
FC03F000
FC03F000
FC03F1F0
FC03F7FC
FC03FFFE
0003FFFE
0001FF3F
0001FC1F
0001FE3F
0003FFFE
0007FFFE
0003DFFC
000087F0
ENDCHAR
STARTCHAR 0236
ENCODING 566
SWIDTH 504 0
DWIDTH 21 0
BBX 20 29 1 0
BITMAP
010000
070000
1F0000
3F0000
3F0000
3F0000
3F0000
FFF000
FFF000
FFF000
FFF000
3F0000
3F0000
3F0000
3F0000
3F0000
3F0000
3F0000
3F1F00
3F7FC0
3FFFE0
1FFFF0
1FF1F0
1FE1F0
1FE1F0
3FFFF0
7FFFE0
3DFFC0
0C7F00
ENDCHAR
STARTCHAR 0237
ENCODING 567
SWIDTH 288 0
DWIDTH 12 0
BBX 11 30 -2 -8
BITMAP
07E0
07E0
07E0
07E0
07E0
07E0
07E0
07E0
07E0
07E0
07E0
07E0
07E0
07E0
07E0
07E0
07E0
07E0
07E0
07E0
07E0
07E0
07E0
07E0
0FE0
7FC0
7FC0
FFC0
FF80
FE00
ENDCHAR
STARTCHAR 0238
ENCODING 568
SWIDTH 960 0
DWIDTH 40 0
BBX 37 30 2 0
BITMAP
0001F80000
0001F80000
0001F80000
0001F80000
0001F80000
0001F80000
0001F80000
03F1F8FC00
0FFDFBFF00
1FFFFFFFC0
3FFFFFFFC0
7F07FF0FE0
7E03FC07E0
FE03FC03F0
FC01F803F0
FC01F803F0
FC01F803F0
FC01F801F0
FC01F801F8
FC01F801F0
FC01F803F0
FC01F803F0
FC01F803F0
7E03FC03F0
7E03FE07E0
7F0FFF0FE0
3FFFFFFFC0
1FFEFFFF80
0FFCFBFF00
03F0F8FC00
ENDCHAR
STARTCHAR 0239
ENCODING 569
SWIDTH 960 0
DWIDTH 40 0
BBX 37 31 2 -8
BITMAP
03F000FC00
0FFCFBFF00
1FFEFFFF80
3FFFFFFFC0
7F87FF0FE0
7E03FC07E0
7E01FC03F0
FC01F803F0
FC01F803F0
FC01F803F0
FC01F801F0
FC01F801F8
FC01F801F0
FC01F803F0
FC01F803F0
FC01FC03F0
7E03FC03F0
7E03FE07E0
7F0FFF0FE0
3FFFFFFFC0
1FFFFFFF80
0FFDFBFF00
03F1F8FC00
0001F80000
0001F80000
0001F80000
0001F80000
0001F80000
0001F80000
0001F80000
0001F80000
ENDCHAR
STARTCHAR 023A
ENCODING 570
SWIDTH 720 0
DWIDTH 30 0
BBX 30 31 0 -1
BITMAP
001FC1E0
001FE1C0
001FE380
003FF780
003FF700
003FFF00
007DFE00
007CFE00
00FCFC00
00F8FC00
00F87C00
01F87E00
01F8FE00
03F0FF00
03F1FF00
03F1FF00
07E39F80
07E79F80
0FFFFFC0
0FFFFFC0
0FFFFFC0
1FFFFFE0
1FFFFFE0
1FB807F0
3F7807F0
3F7003F0
7FF003F8
7EE001F8
7FC001FC
FFC001FC
03800000
ENDCHAR
STARTCHAR 023B
ENCODING 571
SWIDTH 720 0
DWIDTH 30 0
BBX 26 31 2 -1
BITMAP
003FC700
01FFFF00
03FFFE00
0FFFFE00
1FFFFF00
1FE0FF80
3F807F80
7F007FC0
7E00FFC0
7E00EC00
FE01C000
FE03C000
FC038000
FC078000
FC070000
FC0E0000
FC0E0000
FC1C0000
FC3C0000
FE380C00
7E700F80
7E701FC0
7FE01FC0
3FE03F80
3FE0FF80
1FFFFF00
0FFFFE00
07FFFC00
07FFF000
0E3FC000
0E000000
ENDCHAR
STARTCHAR 023C
ENCODING 572
SWIDTH 552 0
DWIDTH 23 0
BBX 22 38 1 -8
BITMAP
00003C
000038
000078
000070
0000E0
0000E0
0001C0
00FFC0
07FF80
0FFFE0
1FFFF0
3F8FF0
3F0FF8
7E1DE0
7E1C00
7E3C00
7E3800
7E3800
7E7000
7E7000
7EE000
7EE000
7FC1E0
7FC1F8
3FC1F8
3F87F0
1FFFF0
0FFFE0
0FFF80
0EFE00
1C0000
1C0000
380000
380000
700000
700000
E00000
E00000
ENDCHAR
STARTCHAR 023D
ENCODING 573
SWIDTH 624 0
DWIDTH 26 0
BBX 24 30 0 0
BITMAP
1F8000
1F8000
1F8000
1F8000
1F8000
1F8000
1F8000
1F8000
1F8000
1F8000
1F8000
1F8000
1F8000
FFFF00
FFFF00
FFFF00
FFFF00
1F8000
1F8000
1F8000
1F8000
1F8000
1F8000
1F8000
1F8000
1FFFFF
1FFFFF
1FFFFF
1FFFFF
1FFFFF
ENDCHAR
STARTCHAR 023E
ENCODING 574
SWIDTH 624 0
DWIDTH 26 0
BBX 24 32 1 -1
BITMAP
00000E
FFFFFF
FFFFFF
FFFFFF
FFFFFF
FFFFFF
007EF0
007EE0
007FC0
007FC0
007F80
007F00
007F00
007E00
007E00
007E00
007E00
007E00
007E00
00FE00
01FE00
01FE00
03FE00
07FE00
077E00
0E7E00
1E7E00
1C7E00
387E00
387E00
707E00
E00000
ENDCHAR
STARTCHAR 023F
ENCODING 575
SWIDTH 552 0
DWIDTH 23 0
BBX 20 31 1 -8
BITMAP
03FC00
0FFF80
3FFFC0
3FFFC0
7E0FE0
7C07E0
7C0380
7E0000
7FC000
7FFC00
3FFF80
1FFFE0
07FFE0
00FFF0
000FF0
0003F0
1001F0
3803F0
7E07F0
FFFFE0
7FFFC0
1FFF80
0FFC00
07E000
03E000
01F040
00F8C0
00FFC0
007FE0
003FC0
000F80
ENDCHAR
STARTCHAR 0240
ENCODING 576
SWIDTH 504 0
DWIDTH 21 0
BBX 20 30 1 -8
BITMAP
FFFFE0
FFFFE0
FFFFE0
FFFFC0
003FC0
003F80
007F00
00FE00
01FC00
01FC00
03F800
07F000
0FE000
1FC000
1FC000
3F8000
7F0000
FE0000
FF0000
FF8000
FFC000
FFE000
07F000
03F800
01FC00
00FE60
007FE0
003FF0
001FE0
0007C0
ENDCHAR
STARTCHAR 0241
ENCODING 577
SWIDTH 648 0
DWIDTH 27 0
BBX 23 30 2 0
BITMAP
01FE00
0FFFC0
3FFFE0
7FFFF0
FF07F8
FC01FC
7800FC
1800FE
00007E
00007E
00007E
00007E
00007E
00007E
00007E
0000FE
0000FC
0001FC
0007F8
00FFF0
00FFE0
00FFC0
00FF00
00FC00
00FC00
00FC00
00FC00
00FC00
00FC00
00FC00
ENDCHAR
STARTCHAR 0242
ENCODING 578
SWIDTH 480 0
DWIDTH 20 0
BBX 18 23 1 0
BITMAP
03F800
1FFE00
3FFF00
7FFF80
7E1F80
FC0FC0
180FC0
000FC0
000FC0
000FC0
000F80
001F80
007F00
01FE00
01FC00
01F800
01F800
01F800
01F800
01F800
01F800
01F800
01F800
ENDCHAR
STARTCHAR 0243
ENCODING 579
SWIDTH 720 0
DWIDTH 30 0
BBX 28 30 0 0
BITMAP
1FFFF800
1FFFFE00
1FFFFF80
1FFFFFC0
1FFFFFC0
1F801FC0
1F800FE0
1F8007E0
1F8007E0
1F8007E0
1F800FC0
1F801FC0
1FFFFF80
1FFFFF00
1FFFFF00
1FFFFF80
1FFFFFC0
1F800FE0
1F8007F0
FFFF03F0
FFFF03F0
FFFF03F0
FFFF03F0
1F8007F0
1F800FF0
1FFFFFE0
1FFFFFE0
1FFFFFC0
1FFFFF80
1FFFFC00
ENDCHAR
STARTCHAR 0244
ENCODING 580
SWIDTH 720 0
DWIDTH 30 0
BBX 29 30 0 0
BITMAP
1F8007E0
1F8007E0
1F8007E0
1F8007E0
1F8007E0
1F8007E0
1F8007E0
1F8007E0
1F8007E0
1F8007E0
1F8007E0
FFFFFFF8
FFFFFFF8
FFFFFFF8
FFFFFFF8
1F8007E0
1F8007E0
1F8007E0
1F8007E0
1F8007E0
1F8007E0
1F8007E0
1FC00FE0
0FE00FC0
0FF03FC0
07FFFF80
07FFFF80
03FFFF00
00FFFC00
001FF000
ENDCHAR
STARTCHAR 0245
ENCODING 581
SWIDTH 672 0
DWIDTH 28 0
BBX 28 30 0 0
BITMAP
001F8000
003FC000
003FC000
007FC000
007FE000
007FE000
00FFF000
00FFF000
00FFF000
01FBF800
01F9F800
01F9F800
03F1FC00
03F0FC00
03F0FC00
07E0FE00
07E07E00
0FE07F00
0FC07F00
0FC03F00
1FC03F80
1F803F80
1F801F80
3F801FC0
3F000FC0
3F000FC0
7F000FE0
7E0007E0
7E0007E0
FE0007F0
ENDCHAR
STARTCHAR 0246
ENCODING 582
SWIDTH 672 0
DWIDTH 28 0
BBX 23 34 3 -2
BITMAP
00001C
00001C
FFFFFC
FFFFFC
FFFFFC
FFFFFC
FFFFFC
FC00E0
FC01C0
FC01C0
FC0380
FC0380
FC0780
FC0700
FFFFF8
FFFFF8
FFFFF8
FFFFF8
FFFFF8
FC3800
FC7800
FC7000
FCF000
FCE000
FDE000
FDC000
FDC000
FFFFFE
FFFFFE
FFFFFE
FFFFFE
FFFFFE
1E0000
1C0000
ENDCHAR
STARTCHAR 0247
ENCODING 583
SWIDTH 552 0
DWIDTH 23 0
BBX 21 39 1 -8
BITMAP
000078
000070
0000F0
0000E0
0001E0
0001C0
0001C0
000380
01FF80
07FF80
0FFF80
1FFFC0
3F8FE0
3E1FE0
7E1FF0
7C3DF0
7C39F0
FFFFF0
FFFFF8
FFFFF8
FFFFF8
FCE000
7CE000
7FE3C0
7FC3F0
7FC3F0
3F87E0
1FFFE0
0FFFC0
07FF80
0FFC00
0E0000
1E0000
1C0000
1C0000
380000
380000
780000
700000
ENDCHAR
STARTCHAR 0248
ENCODING 584
SWIDTH 552 0
DWIDTH 23 0
BBX 22 30 1 0
BITMAP
0007E0
0007E0
0007E0
0007E0
0007E0
0007E0
0007E0
0007E0
0007E0
0007E0
0007E0
0007E0
007FFC
007FFC
007FFC
007FFC
0007E0
0007E0
0007E0
0007E0
7807E0
FC07E0
FC07E0
FC0FE0
FE1FC0
7FFFC0
7FFF80
3FFF00
1FFE00
07F800
ENDCHAR
STARTCHAR 0249
ENCODING 585
SWIDTH 288 0
DWIDTH 12 0
BBX 13 38 -2 -8
BITMAP
07E0
07E0
07E0
07E0
0000
0000
0000
0000
07E0
07E0
07E0
07E0
07E0
07E0
07E0
07E0
1FF8
1FF8
1FF8
1FF8
07E0
07E0
07E0
07E0
07E0
07E0
07E0
07E0
07E0
07E0
07E0
07E0
0FE0
7FC0
7FC0
FFC0
FF80
7E00
ENDCHAR
STARTCHAR 024A
ENCODING 586
SWIDTH 792 0
DWIDTH 33 0
BBX 31 38 2 -8
BITMAP
003FF060
01FFFFE0
03FFFFE0
0FFFFFE0
1FFFFFE0
1FF01FE0
3FC007E0
7F8007E0
7F0007E0
7E0007E0
FE0007E0
FC0007E0
FC0007E0
FC0007E0
FC0007E0
FC0007E0
FC0007E0
FC0007E0
FC0007E0
FE0007E0
7E0007E0
7F0007E0
7F8007E0
3FC007E0
3FF00FE0
1FFFFFE0
0FFFFFE0
03FFFFE0
01FFFFE0
003FFFE0
000007E0
000007E0
000007F0
000007FE
000007FE
000003FE
000001FE
000000FE
ENDCHAR
STARTCHAR 024B
ENCODING 587
SWIDTH 624 0
DWIDTH 26 0
BBX 26 31 2 -8
BITMAP
03F00000
0FFCF800
1FFEF800
3FFFF800
7F87F800
7E03F800
7E01F800
FC01F800
FC01F800
FC01F800
FC01F800
FC01F800
FC01F800
FC01F800
FC01F800
FC01F800
7E03F800
7E03F800
7F0FF800
3FFFF800
1FFFF800
0FFDF800
03F1F800
0001F800
0001F800
0001F800
0000FC00
0000FF80
0000FF80
00007FC0
00001F80
ENDCHAR
STARTCHAR 024C
ENCODING 588
SWIDTH 720 0
DWIDTH 30 0
BBX 30 30 0 0
BITMAP
07FFFC00
07FFFF80
07FFFFC0
07FFFFE0
07FFFFE0
07E00FF0
07E007F0
07E003F0
07E003F0
07E003F0
07E007F0
07E00FF0
FFFFFFE0
FFFFFFC0
FFFFFF80
FFFFFE00
FFFFF000
07E3FC00
07E0FE00
07E0FF00
07E07F80
07E03F80
07E03FC0
07E01FE0
07E00FE0
07E00FF0
07E007F0
07E003F8
07E003FC
07E001FC
ENDCHAR
STARTCHAR 024D
ENCODING 589
SWIDTH 384 0
DWIDTH 16 0
BBX 16 23 1 0
BITMAP
003E
3E7F
3EFE
3FFE
3FFE
3FFE
3FC4
3F80
3F00
3F00
3F00
3F00
FFE0
FFE0
FFE0
FFE0
3F00
3F00
3F00
3F00
3F00
3F00
3F00
ENDCHAR
STARTCHAR 024E
ENCODING 590
SWIDTH 672 0
DWIDTH 28 0
BBX 28 30 0 0
BITMAP
FE0007F0
7F000FE0
7F000FC0
3F801FC0
FFFFFFF0
FFFFFFF0
FFFFFFF0
FFFFFFF0
07F07E00
03F0FC00
03F9FC00
01FDF800
01FFF800
00FFF000
007FE000
007FE000
003FC000
003FC000
001F8000
001F8000
001F8000
001F8000
001F8000
001F8000
001F8000
001F8000
001F8000
001F8000
001F8000
001F8000
ENDCHAR
STARTCHAR 024F
ENCODING 591
SWIDTH 552 0
DWIDTH 23 0
BBX 23 30 0 -8
BITMAP
FE007E
7E00FC
7E00FC
3F00F8
3F01F8
3F01F8
FFFFFE
FFFFFE
FFFFFE
FFFFFE
0FC7E0
07C7E0
07EFC0
07EFC0
03FF80
03FF80
03FF80
01FF00
01FF00
00FF00
00FE00
00FE00
00FE00
00FC00
01FC00
03F800
3FF800
3FF000
3FE000
3F8000
ENDCHAR
STARTCHAR 0250
ENCODING 592
SWIDTH 552 0
DWIDTH 23 0
BBX 20 23 2 0
BITMAP
003F00
F8FF80
FDFFE0
FFFFE0
FF87F0
7E03F0
7E03F0
7C03F0
7C03F0
7C0FE0
7CFFE0
7FFFC0
7FFF00
7FF000
7F0000
7C0000
7C0380
7E07E0
7F0FE0
7FFFC0
3FFF80
1FFF00
07FC00
ENDCHAR
STARTCHAR 0251
ENCODING 593
SWIDTH 624 0
DWIDTH 26 0
BBX 21 23 2 0
BITMAP
03E000
0FF9F8
1FFDF8
3FFFF8
7F07F8
7E03F8
FE03F8
FC01F8
FC01F8
FC01F8
FC01F8
FC01F8
FC01F8
FC01F8
FC01F8
FC01F8
7E03F8
7E03F8
7F0FF8
3FFFF8
1FFEF8
0FFCF8
03F0F8
ENDCHAR
STARTCHAR 0252
ENCODING 594
SWIDTH 624 0
DWIDTH 26 0
BBX 21 23 3 0
BITMAP
007E00
F9FF80
FBFFC0
FFFFE0
FF0FE0
FE07F0
FC03F0
FC03F0
FC01F8
FC01F8
F801F8
F801F8
F801F8
FC01F8
FC01F8
FC03F0
FC03F0
FE07F0
FF0FE0
FFFFE0
FBFFC0
F9FF80
F87E00
ENDCHAR
STARTCHAR 0253
ENCODING 595
SWIDTH 624 0
DWIDTH 26 0
BBX 21 30 3 0
BITMAP
1FE000
7FE000
7FE000
FFE000
FC0000
FC0000
FC0000
FC7E00
FDFF80
FFFFC0
FFFFE0
FF0FE0
FE03F0
FC03F0
FC01F8
FC01F8
FC01F8
FC01F8
F801F8
FC01F8
FC01F8
FC01F8
FC01F8
FC03F0
FE03F0
FF0FE0
FFFFE0
FBFFC0
F9FF80
F87E00
ENDCHAR
STARTCHAR 0254
ENCODING 596
SWIDTH 552 0
DWIDTH 23 0
BBX 21 23 1 0
BITMAP
03FC00
0FFF00
1FFF80
3FFFC0
7F0FE0
7E07E0
1C03F0
0003F0
0003F0
0001F0
0001F8
0001F8
0001F8
0001F8
0003F0
3C03F0
FC03F0
7E07E0
7F0FE0
3FFFC0
1FFF80
0FFF00
03FC00
ENDCHAR
STARTCHAR 0255
ENCODING 597
SWIDTH 552 0
DWIDTH 23 0
BBX 22 24 0 -1
BITMAP
007F00
03FFC0
07FFE0
0FFFF0
1FC3F8
1F81F8
3F00FC
3F00E0
3F0000
3F0000
3F0FC0
3F3FF0
3FFFF8
3FFFFC
3FF8FC
3FE07C
1FC07C
1FC0FC
3FE1FC
7FFFF8
FFFFF0
7DFFE0
387F80
100000
ENDCHAR
STARTCHAR 0256
ENCODING 598
SWIDTH 624 0
DWIDTH 26 0
BBX 26 38 2 -8
BITMAP
0001F800
0001F800
0001F800
0001F800
0001F800
0001F800
0001F800
03F1F800
0FFDF800
1FFFF800
3FFFF800
7F07F800
7E03F800
FE03F800
FC01F800
FC01F800
FC01F800
FC01F800
FC01F800
FC01F800
FC01F800
FC01F800
FC01F800
7E03F800
7E03F800
7F0FF800
3FFFF800
1FFFF800
0FFDF800
03F1F800
0001F800
0001F800
0001F800
0001FC00
0000FF80
0000FF80
00007FC0
00001FC0
ENDCHAR
STARTCHAR 0257
ENCODING 599
SWIDTH 624 0
DWIDTH 26 0
BBX 27 30 2 0
BITMAP
00001FC0
00007FE0
0000FFC0
0001FFC0
0001FC00
0001F800
0001F800
03F1F800
0FFDF800
1FFFF800
3FFFF800
7F07F800
7E03F800
FE03F800
FC01F800
FC01F800
FC01F800
FC01F800
FC01F800
FC01F800
FC01F800
FC01F800
FC01F800
7E03F800
7E03F800
7F0FF800
3FFFF800
1FFEF800
0FFCF800
03F0F800
ENDCHAR
STARTCHAR 0258
ENCODING 600
SWIDTH 552 0
DWIDTH 23 0
BBX 20 23 2 0
BITMAP
03F800
0FFE00
1FFF80
3FFFC0
7F0FC0
7C07E0
7C07E0
FC03E0
F803F0
FFFFF0
FFFFF0
FFFFF0
FFFFF0
0003F0
0003F0
0003F0
1C07E0
FC07E0
7E1FC0
7FFFC0
3FFF80
1FFE00
03F800
ENDCHAR
STARTCHAR 0259
ENCODING 601
SWIDTH 552 0
DWIDTH 23 0
BBX 20 23 2 0
BITMAP
03F800
1FFE00
3FFF80
7FFFC0
7E1FC0
FC07E0
1C07E0
0003F0
0003F0
0003F0
FFFFF0
FFFFF0
FFFFF0
FFFFF0
F803F0
FC03E0
7C07E0
7C07E0
7F0FC0
3FFFC0
1FFF80
0FFE00
03F800
ENDCHAR
STARTCHAR 025A
ENCODING 602
SWIDTH 792 0
DWIDTH 33 0
BBX 31 23 2 0
BITMAP
03F80000
0FFE0000
1FFF0000
3FFF8000
7F1FC000
7E0FE000
FC07E200
7C07FE00
001FFE00
07FFFE00
FFFFFF00
FFFFFF0C
FFE3FFFC
FC03F7FE
F803F7FE
FC03F1F8
FC07E000
7C07E000
7E0FC000
3FFFC000
1FFF8000
0FFF0000
03F80000
ENDCHAR
STARTCHAR 025B
ENCODING 603
SWIDTH 504 0
DWIDTH 21 0
BBX 18 23 2 0
BITMAP
07F000
1FFC00
3FFF00
7FFF00
7E1F80
7C0F80
7C0E00
7C0000
7E0000
3FC000
0FC000
1FC000
7FC000
FE0000
FC0000
F80000
F80700
FC0FC0
FE1FC0
FFFF80
7FFF00
1FFE00
07F800
ENDCHAR
STARTCHAR 025C
ENCODING 604
SWIDTH 504 0
DWIDTH 21 0
BBX 18 23 1 0
BITMAP
03F800
1FFE00
3FFF00
7FFF80
7E1F80
FC0F80
180F80
000F80
001F80
00FF00
00FC00
00FE00
00FF80
001F80
000FC0
000FC0
380FC0
FC0FC0
FE1FC0
7FFF80
7FFF80
1FFE00
07F800
ENDCHAR
STARTCHAR 025D
ENCODING 605
SWIDTH 696 0
DWIDTH 29 0
BBX 28 23 1 0
BITMAP
03F80000
1FFE0000
3FFF0000
7FFFF000
7E1FF000
FC0FF800
180FF800
000FFC20
001FFFF0
00FF3FF0
00FC1FF0
00FE0FC0
00FF8000
001F8000
000FC000
000FC000
380FC000
FC0FC000
FE1FC000
7FFF8000
7FFF8000
1FFE0000
07F80000
ENDCHAR
STARTCHAR 025E
ENCODING 606
SWIDTH 576 0
DWIDTH 24 0
BBX 20 23 2 0
BITMAP
01FC00
07FF80
0FFFC0
3FFFE0
3F87E0
7E03E0
7E03E0
FC03E0
FC07C0
FC3F80
FC3F00
FC3F80
FC3FE0
FC07E0
FC03F0
FC03F0
7E03F0
7E03F0
3F87F0
3FFFE0
1FFFC0
07FF80
01FE00
ENDCHAR
STARTCHAR 025F
ENCODING 607
SWIDTH 336 0
DWIDTH 14 0
BBX 15 30 -1 -8
BITMAP
03E0
03E0
03E0
03E0
03E0
03E0
03E0
03E0
03E0
03E0
03E0
03E0
03E0
03E0
03E0
03E0
03E0
03E0
7FFE
7FFE
7FFE
7FFE
03E0
03E0
07E0
07E0
FFE0
FFE0
FFC0
FF00
ENDCHAR
STARTCHAR 0260
ENCODING 608
SWIDTH 624 0
DWIDTH 26 0
BBX 27 38 2 -8
BITMAP
00001FC0
00007FE0
0000FFC0
0001FFC0
0001FC00
0001F800
0001F800
03F1F800
0FFDF800
1FFFF800
3FFFF800
7F0FF800
7E03F800
FE03F800
FC01F800
FC01F800
FC01F800
FC01F800
FC01F800
FC01F800
FC01F800
FC01F800
FC01F800
FE03F800
7E03F800
7F0FF800
3FFFF800
1FFFF800
0FFDF800
03F1F800
0001F800
F801F800
7E01F000
7F03F000
7FFFF000
3FFFE000
1FFFC000
03FE0000
ENDCHAR
STARTCHAR 0261
ENCODING 609
SWIDTH 624 0
DWIDTH 26 0
BBX 21 31 2 -8
BITMAP
03F000
0FFCF8
1FFEF8
3FFFF8
7F0FF8
7E03F8
FE03F8
FC01F8
FC01F8
FC01F8
FC01F8
FC01F8
FC01F8
FC01F8
FC01F8
FC01F8
FE03F8
7E03F8
7F0FF8
3FFFF8
1FFFF8
0FFDF8
03F1F8
0001F8
0001F8
F001F0
7E07F0
7FFFF0
3FFFE0
1FFFC0
07FE00
ENDCHAR
STARTCHAR 0262
ENCODING 610
SWIDTH 600 0
DWIDTH 25 0
BBX 21 23 2 0
BITMAP
01FE00
07FF80
0FFFE0
1FFFF0
3F87F0
7F01F8
7E01C0
FC0000
FC0000
FC0000
FC0000
FC1FF8
FC1FF8
FC1FF8
FC1FF8
FC01F8
7E01F8
7E01F8
3F83F8
3FFFF8
1FFFF0
07FFC0
01FF00
ENDCHAR
STARTCHAR 0263
ENCODING 611
SWIDTH 552 0
DWIDTH 23 0
BBX 22 30 1 -8
BITMAP
FC00FC
FC01F8
7E01F8
7E03F0
3F03F0
3F07E0
1F87E0
1F8FC0
0FCFC0
0FDF80
07FF80
07FF00
03FF00
03FE00
01FE00
01FC00
00FC00
01FC00
01FE00
03FE00
03FF00
07FF00
07DF80
07DF80
0FCF80
0FDF80
07FF80
07FF00
03FF00
01FC00
ENDCHAR
STARTCHAR 0264
ENCODING 612
SWIDTH 600 0
DWIDTH 25 0
BBX 25 23 0 0
BITMAP
0F80F800
3FE3FE00
FFF3FF80
7FF7FF80
7FFFFF00
61FFE300
00FFC000
00FF8000
007F0000
007F0000
007F0000
007F8000
00FF8000
00FFC000
01FFC000
01F7C000
03F7E000
03F7E000
03FFE000
03FFE000
01FFC000
00FFC000
007F0000
ENDCHAR
STARTCHAR 0265
ENCODING 613
SWIDTH 624 0
DWIDTH 26 0
BBX 20 30 3 -8
BITMAP
FC03F0
FC03F0
FC03F0
FC03F0
FC03F0
FC03F0
FC03F0
FC03F0
FC03F0
FC03F0
FC03F0
FC03F0
FC03F0
FC03F0
FC03F0
FC07F0
FC07F0
FE1FF0
7FFFF0
7FFFF0
3FF3F0
0FC3F0
0003F0
0003F0
0003F0
0003F0
0003F0
0003F0
0003F0
0003F0
ENDCHAR
STARTCHAR 0266
ENCODING 614
SWIDTH 624 0
DWIDTH 26 0
BBX 20 30 3 0
BITMAP
1FE000
3FE000
7FE000
FFE000
FC0000
FC0000
FC0000
FC7E00
FDFF80
FFFFC0
FFFFE0
FF0FE0
FE07E0
FC03F0
FC03F0
FC03F0
FC03F0
FC03F0
FC03F0
FC03F0
FC03F0
FC03F0
FC03F0
FC03F0
FC03F0
FC03F0
FC03F0
FC03F0
FC03F0
FC03F0
ENDCHAR
STARTCHAR 0267
ENCODING 615
SWIDTH 624 0
DWIDTH 26 0
BBX 20 38 3 -8
BITMAP
0FE000
3FE000
7FE000
FFE000
FC0000
FC0000
FC0000
FC7E00
FDFF80
FFFFC0
FFFFE0
FF0FE0
FE07E0
FC03F0
FC03F0
FC03F0
FC03F0
FC03F0
FC03F0
FC03F0
FC03F0
FC03F0
FC03F0
FC03F0
FC03F0
FC03F0
FC03F0
FC03F0
FC03F0
FC03F0
0003F0
0003F0
0003F0
0007F0
003FE0
003FE0
003FC0
007F00
ENDCHAR
STARTCHAR 0268
ENCODING 616
SWIDTH 288 0
DWIDTH 12 0
BBX 10 30 1 0
BITMAP
3F00
3F00
3F00
3F00
0000
0000
0000
0000
3F00
3F00
3F00
3F00
3F00
3F00
3F00
3F00
FFC0
FFC0
FFC0
FFC0
3F00
3F00
3F00
3F00
3F00
3F00
3F00
3F00
3F00
3F00
ENDCHAR
STARTCHAR 0269
ENCODING 617
SWIDTH 288 0
DWIDTH 12 0
BBX 10 22 2 0
BITMAP
FC00
FC00
FC00
FC00
FC00
FC00
FC00
FC00
FC00
FC00
FC00
FC00
FC00
FC00
FC00
FC00
FC00
7E00
7FC0
7FC0
3FC0
0FC0
ENDCHAR
STARTCHAR 026A
ENCODING 618
SWIDTH 408 0
DWIDTH 17 0
BBX 15 22 1 0
BITMAP
FFFE
FFFE
FFFE
FFFE
07C0
07C0
07C0
07C0
07C0
07C0
07C0
07C0
07C0
07C0
07C0
07C0
07C0
07C0
FFFE
FFFE
FFFE
FFFE
ENDCHAR
STARTCHAR 026B
ENCODING 619
SWIDTH 336 0
DWIDTH 14 0
BBX 14 30 0 0
BITMAP
0FC0
0FC0
0FC0
0FC0
0FC0
0FC0
0FC0
0FC0
0FC0
0FC0
0FC0
0FC0
3FDC
7FDC
FFFC
EFF8
EFF0
0FC0
0FC0
0FC0
0FC0
0FC0
0FC0
0FC0
0FC0
0FC0
0FC0
0FC0
0FC0
0FC0
ENDCHAR
STARTCHAR 026C
ENCODING 620
SWIDTH 360 0
DWIDTH 15 0
BBX 15 30 0 0
BITMAP
03F0
03F0
03F0
03F0
03F0
03F0
03F0
03F0
03F0
1FF0
3FF0
7FF0
7FF0
F3F0
F3F0
F3F0
7FFE
7FFE
3FFE
1FFE
03F0
03F0
03F0
03F0
03F0
03F0
03F0
03F0
03F0
03F0
ENDCHAR
STARTCHAR 026D
ENCODING 621
SWIDTH 288 0
DWIDTH 12 0
BBX 11 38 3 -8
BITMAP
FC00
FC00
FC00
FC00
FC00
FC00
FC00
FC00
FC00
FC00
FC00
FC00
FC00
FC00
FC00
FC00
FC00
FC00
FC00
FC00
FC00
FC00
FC00
FC00
FC00
FC00
FC00
FC00
FC00
FC00
FC00
FC00
FC00
FE00
7FC0
7FC0
3FC0
1FE0
ENDCHAR
STARTCHAR 026E
ENCODING 622
SWIDTH 600 0
DWIDTH 25 0
BBX 21 38 3 -8
BITMAP
FC0000
FC0000
FC0000
FC0000
FC0000
FC0000
FC0000
FC0000
FFFFF8
FFFFF8
FFFFF8
FFFFF8
FC07F0
FC07E0
FC0FC0
FC1F80
FC3F80
FC7F00
FCFE00
FCFF00
FCFFC0
FCFFE0
FC07F0
FC03F8
FC01F8
FC01F8
FC01F8
FC00F8
FC00F8
FC01F8
0001F8
0001F8
3C03F8
FE07F0
7FFFE0
3FFFC0
1FFF80
03FE00
ENDCHAR
STARTCHAR 026F
ENCODING 623
SWIDTH 888 0
DWIDTH 37 0
BBX 32 22 3 0
BITMAP
F807E03F
F807E03F
F807E03F
F807E03F
F807E03F
F807E03F
F807E03F
F807E03F
F807E03F
F807E03F
F807E03F
F807E03F
F807E03F
F807E03F
FC0FE03F
FC0FE07F
FC0FE07F
FE1FF0FF
FFFFFFFF
7FFBFFFF
3FF1FFBF
0FC07E3F
ENDCHAR
STARTCHAR 0270
ENCODING 624
SWIDTH 888 0
DWIDTH 37 0
BBX 32 30 3 -8
BITMAP
F807E03F
F807E03F
F807E03F
F807E03F
F807E03F
F807E03F
F807E03F
F807E03F
F807E03F
F807E03F
F807E03F
F807E03F
F807E03F
F807E03F
FC0FE03F
FC0FE07F
FC0FE07F
FE1FF0FF
FFFFFFFF
7FFBFFFF
3FF1FF3F
0FC07E3F
0000003F
0000003F
0000003F
0000003F
0000003F
0000003F
0000003F
0000003F
ENDCHAR
STARTCHAR 0271
ENCODING 625
SWIDTH 888 0
DWIDTH 37 0
BBX 32 32 3 -9
BITMAP
007E03E0
F9FF0FF8
FFFFBFFC
FFFFFFFE
FF0FF8FE
FE0FF07E
FC07E03F
FC07E03F
FC07E03F
F807E03F
F807E03F
F807E03F
F807E03F
F807E03F
F807E03F
F807E03F
F807E03F
F807E03F
F807E03F
F807E03F
F807E03F
F807E03F
F807E03F
0000003F
0000003F
0000003F
0000003E
0000007E
000003FE
000003FE
000007FC
000007F0
ENDCHAR
STARTCHAR 0272
ENCODING 626
SWIDTH 624 0
DWIDTH 26 0
BBX 25 31 -2 -8
BITMAP
0003F800
07CFFC00
07DFFE00
07FFFF00
07F87F00
07F03F80
07E01F80
07E01F80
07E01F80
07E01F80
07E01F80
07E01F80
07E01F80
07E01F80
07E01F80
07E01F80
07E01F80
07E01F80
07E01F80
07E01F80
07E01F80
07E01F80
07E01F80
07E00000
07E00000
07E00000
0FC00000
7FC00000
7FC00000
FF800000
FE000000
ENDCHAR
STARTCHAR 0273
ENCODING 627
SWIDTH 624 0
DWIDTH 26 0
BBX 24 31 3 -8
BITMAP
007F00
F9FF80
FBFFC0
FFFFE0
FF0FE0
FE07F0
FC03F0
FC03F0
FC03F0
FC03F0
FC03F0
FC03F0
FC03F0
FC03F0
FC03F0
FC03F0
FC03F0
FC03F0
FC03F0
FC03F0
FC03F0
FC03F0
FC03F0
0003F0
0003F0
0003F8
0003FF
0001FF
0001FF
0000FF
00003F
ENDCHAR
STARTCHAR 0274
ENCODING 628
SWIDTH 624 0
DWIDTH 26 0
BBX 20 22 3 0
BITMAP
FC03F0
FE03F0
FE03F0
FF03F0
FF03F0
FF83F0
FFC3F0
FFC3F0
FBE3F0
FBF3F0
F9F3F0
F8FBF0
F8FFF0
F87FF0
F83FF0
F83FF0
F81FF0
F80FF0
F80FF0
F807F0
F807F0
F803F0
ENDCHAR
STARTCHAR 0275
ENCODING 629
SWIDTH 624 0
DWIDTH 26 0
BBX 22 23 2 0
BITMAP
01FC00
07FF80
0FFFC0
1FFFE0
3F87F0
7E03F8
7E01F8
FC00FC
FC00FC
FFFFFC
FFFFFC
FFFFFC
FFFFFC
FC00FC
FC00FC
FC01FC
7E01F8
7F03F8
3F87F0
3FFFE0
1FFFC0
07FF80
01FC00
ENDCHAR
STARTCHAR 0276
ENCODING 630
SWIDTH 840 0
DWIDTH 35 0
BBX 32 23 2 0
BITMAP
01FC0000
07FEFFFE
0FFFFFFE
1FFFFFFE
3F87FFFE
7E03FC00
7E01FC00
FC00FC00
FC00FC00
FC00FC00
FC00FFFC
FC00FFFC
FC00FFFC
FC00FFFC
FC00FC00
FC00FC00
7E01FC00
7E03FC00
3F87FC00
3FFFFFFF
1FFFFFFF
07FFFFFF
01FCFFFF
ENDCHAR
STARTCHAR 0277
ENCODING 631
SWIDTH 840 0
DWIDTH 35 0
BBX 32 23 2 0
BITMAP
003FF800
01FFFF00
07FFFFC0
0FFFFFF0
1FF00FF8
3F8003FC
7F0000FC
7E00007E
FC00007E
FC00003F
FC07E03F
FC07E03F
FC07E03F
FC07E03F
FC07E03F
FC07E03F
FC0FE07E
FE0FE07E
7F1FF0FE
3FFFFFFC
3FFE7FF8
0FFC3FF0
03F00FC0
ENDCHAR
STARTCHAR 0278
ENCODING 632
SWIDTH 744 0
DWIDTH 31 0
BBX 28 38 2 -8
BITMAP
001F8000
001F8000
001F8000
001F8000
001F8000
001F8000
001F8000
01FFF000
07FFFE00
0FFFFF00
1FFFFF80
3F9F9FC0
7E1F8FC0
7E1F87E0
FC1F87E0
FC1F83E0
FC1F83F0
FC1F83F0
FC1F83F0
FC1F83F0
FC1F83F0
FC1F83E0
FC1F87E0
7E1F87E0
7E1F8FC0
3F9F9FC0
3FFFFF80
1FFFFF00
07FFFE00
01FFF000
001F8000
001F8000
001F8000
001F8000
001F8000
001F8000
001F8000
001F8000
ENDCHAR
STARTCHAR 0279
ENCODING 633
SWIDTH 384 0
DWIDTH 16 0
BBX 14 22 0 0
BITMAP
00FC
00FC
00FC
00FC
00FC
00FC
00FC
00FC
00FC
00FC
00FC
00FC
00FC
01FC
01FC
01FC
43FC
7FFC
FFFC
FFFC
FEFC
7CFC
ENDCHAR
STARTCHAR 027A
ENCODING 634
SWIDTH 384 0
DWIDTH 16 0
BBX 14 30 0 0
BITMAP
00FC
00FC
00FC
00FC
00FC
00FC
00FC
00FC
00FC
00FC
00FC
00FC
00FC
00FC
00FC
00FC
00FC
00FC
00FC
00FC
00FC
01FC
01FC
01FC
43FC
7FFC
FFFC
FFFC
FEFC
7CFC
ENDCHAR
STARTCHAR 027B
ENCODING 635
SWIDTH 384 0
DWIDTH 16 0
BBX 18 30 0 -8
BITMAP
00FC00
00FC00
00FC00
00FC00
00FC00
00FC00
00FC00
00FC00
00FC00
00FC00
00FC00
00FC00
00FC00
01FC00
01FC00
01FC00
43FC00
7FFC00
FFFC00
FEFC00
FEFC00
7CFC00
00FC00
00FC00
00FC00
00FC00
00FFC0
007FC0
003FC0
001FC0
ENDCHAR
STARTCHAR 027C
ENCODING 636
SWIDTH 384 0
DWIDTH 16 0
BBX 14 31 3 -8
BITMAP
00F8
F9FC
FBF8
FFF8
FFF8
FF10
FE00
FC00
FC00
FC00
FC00
FC00
FC00
FC00
FC00
FC00
FC00
FC00
FC00
FC00
FC00
FC00
FC00
FC00
FC00
FC00
FC00
FC00
FC00
FC00
FC00
ENDCHAR
STARTCHAR 027D
ENCODING 637
SWIDTH 384 0
DWIDTH 16 0
BBX 14 31 3 -8
BITMAP
00F8
F9FC
FBF8
FFF8
FFF8
FF10
FE00
FC00
FC00
FC00
FC00
FC00
FC00
FC00
FC00
FC00
FC00
FC00
FC00
FC00
FC00
FC00
FC00
FC00
FC00
FC00
FC00
FFC0
7FC0
3FC0
1FC0
ENDCHAR
STARTCHAR 027E
ENCODING 638
SWIDTH 384 0
DWIDTH 16 0
BBX 14 23 3 0
BITMAP
03F8
0FFC
3FF8
3FF8
7F10
7E00
FC00
FC00
FC00
FC00
FC00
FC00
FC00
FC00
FC00
FC00
FC00
FC00
FC00
FC00
FC00
FC00
FC00
ENDCHAR
STARTCHAR 027F
ENCODING 639
SWIDTH 384 0
DWIDTH 16 0
BBX 14 31 0 -8
BITMAP
FF00
FFC0
FFE0
7FF0
43F0
01F8
01F8
00F8
00F8
00F8
00FC
00FC
00FC
00FC
00FC
00FC
00FC
00FC
00FC
00FC
00FC
00FC
00FC
00FC
00FC
00FC
00FC
00FC
00FC
00FC
00FC
ENDCHAR
STARTCHAR 0280
ENCODING 640
SWIDTH 600 0
DWIDTH 25 0
BBX 21 22 3 0
BITMAP
FFFF00
FFFFC0
FFFFE0
FFFFE0
FC07F0
FC03F0
FC03F0
FC03F0
FC0FE0
FFFFE0
FFFFC0
FFFF80
FFFE00
FC7F00
FC3F80
FC1F80
FC1FC0
FC0FE0
FC07E0
FC07F0
FC03F8
FC01F8
ENDCHAR
STARTCHAR 0281
ENCODING 641
SWIDTH 600 0
DWIDTH 25 0
BBX 21 22 3 0
BITMAP
FC01F8
FC03F8
FC07F0
FC07E0
FC0FE0
FC1FC0
FC1F80
FC3F80
FC7F00
FFFE00
FFFF80
FFFFC0
FFFFE0
FC0FE0
FC03F0
FC03F0
FC03F0
FC07F0
FFFFE0
FFFFE0
FFFFC0
FFFF00
ENDCHAR
STARTCHAR 0282
ENCODING 642
SWIDTH 552 0
DWIDTH 23 0
BBX 20 31 1 -8
BITMAP
03FC00
0FFF80
3FFFC0
3FFFE0
7E0FE0
7C07E0
7C0380
7E0000
7F0000
7FE000
3FFE00
1FFFC0
07FFE0
00FFF0
000FF0
1C03F0
FC01F0
FE03F0
FF07F0
FFFFE0
FFFFC0
FFFF80
FFFC00
FC0000
FC0000
FC0000
FE0000
7FC000
7FC000
3FC000
1FE000
ENDCHAR
STARTCHAR 0283
ENCODING 643
SWIDTH 336 0
DWIDTH 14 0
BBX 17 38 -1 -8
BITMAP
007F00
01FF80
03FF80
03FF00
03F000
03E000
03E000
03E000
03E000
03E000
03E000
03E000
03E000
03E000
03E000
03E000
03E000
03E000
03E000
03E000
03E000
03E000
03E000
03E000
03E000
03E000
03E000
03E000
03E000
03E000
03E000
03E000
07E000
07E000
FFE000
FFC000
FFC000
FF0000
ENDCHAR
STARTCHAR 0284
ENCODING 644
SWIDTH 336 0
DWIDTH 14 0
BBX 17 38 -1 -8
BITMAP
007F00
01FF80
03FF80
03FF00
03F000
03E000
03E000
03E000
03E000
03E000
03E000
03E000
03E000
03E000
03E000
03E000
03E000
03E000
03E000
03E000
03E000
03E000
03E000
03E000
03E000
03E000
7FFE00
7FFE00
7FFE00
7FFE00
03E000
03E000
07E000
07E000
FFE000
FFE000
FFC000
FF0000
ENDCHAR
STARTCHAR 0285
ENCODING 645
SWIDTH 336 0
DWIDTH 14 0
BBX 17 31 -2 -8
BITMAP
7F0000
FFC000
FFE000
7FE000
07E000
03E000
03E000
03E000
03E000
03E000
03E000
03E000
03E000
03E000
03E000
03E000
03E000
03E000
03E000
03E000
03E000
03E000
03E000
03E000
03E000
03F000
03F000
03FF80
01FF80
01FF80
007F00
ENDCHAR
STARTCHAR 0286
ENCODING 646
SWIDTH 552 0
DWIDTH 23 0
BBX 24 38 1 -8
BITMAP
0000FE
0003FF
0007FE
0007FE
000FE0
000FC0
000FC0
000FC0
000FC0
000FC0
000FC0
000FC0
000FC0
000FC0
000FC0
000FC0
000FC0
000FC0
000FC0
000FC0
000FC0
000FC0
000FC0
000FC0
000FC0
0F8FC0
3FEFC0
7FFFC0
FFFFC0
FFFFC0
F8FFC0
F83F80
F87F80
FFFFC0
FFFFE0
7FFFE0
3FFB80
0FE100
ENDCHAR
STARTCHAR 0287
ENCODING 647
SWIDTH 336 0
DWIDTH 14 0
BBX 12 31 1 -1
BITMAP
FE00
FF00
FF80
FF80
1F80
0FC0
0FC0
0FC0
0FC0
0FC0
0FC0
0FC0
0FC0
0FC0
0FC0
0FC0
0FC0
0FC0
0FC0
0FC0
FFF0
FFF0
FFF0
FFF0
0FC0
0FC0
0FC0
0FC0
0F80
0E00
0800
ENDCHAR
STARTCHAR 0288
ENCODING 648
SWIDTH 336 0
DWIDTH 14 0
BBX 12 37 1 -8
BITMAP
0100
0700
1F00
3F00
3F00
3F00
3F00
FFF0
FFF0
FFF0
FFF0
3F00
3F00
3F00
3F00
3F00
3F00
3F00
3F00
3F00
3F00
3F00
3F00
3F00
3F00
3F00
3F00
3F00
3F00
3F00
3F00
3F00
3F80
1FF0
1FF0
0FF0
07F0
ENDCHAR
STARTCHAR 0289
ENCODING 649
SWIDTH 624 0
DWIDTH 26 0
BBX 24 22 1 0
BITMAP
3F00FC
3F00FC
3F00FC
3F00FC
3F00FC
3F00FC
3F00FC
3F00FC
FFFFFF
FFFFFF
FFFFFF
FFFFFF
3F00FC
3F00FC
3F00FC
3F01FC
3F01FC
3F87FC
1FFFFC
1FFFFC
0FFCFC
03F0FC
ENDCHAR
STARTCHAR 028A
ENCODING 650
SWIDTH 624 0
DWIDTH 26 0
BBX 23 22 2 0
BITMAP
F8007E
FE01FE
FE01FE
FF03FE
3F03F0
3F03F0
3E01F0
7E01F8
7C00F8
FC00FC
FC00FC
FC00FC
FC00FC
FC00FC
FC00FC
FE00FC
7E01F8
7F87F8
3FFFF0
1FFFE0
07FFC0
01FE00
ENDCHAR
STARTCHAR 028B
ENCODING 651
SWIDTH 576 0
DWIDTH 24 0
BBX 20 23 3 0
BITMAP
007F00
FCFFC0
FCFFC0
FC7FE0
FC07E0
FC03E0
FC03F0
FC03F0
FC03F0
FC03F0
FC03E0
FC03E0
FC03E0
FC07E0
FC07E0
FC07E0
FC0FC0
7C0FC0
7E1F80
3FFF80
3FFF00
1FFE00
03F000
ENDCHAR
STARTCHAR 028C
ENCODING 652
SWIDTH 552 0
DWIDTH 23 0
BBX 22 22 1 0
BITMAP
00FC00
00FC00
01FC00
01FE00
03FE00
03FE00
03FF00
07FF00
07DF80
0FDF80
0FCF80
0F8FC0
1F87C0
1F87E0
3F07E0
3F03E0
3E03F0
7E03F0
7E01F8
FC01F8
FC00F8
FC00FC
ENDCHAR
STARTCHAR 028D
ENCODING 653
SWIDTH 792 0
DWIDTH 33 0
BBX 33 22 0 0
BITMAP
01F80FC000
01F80FC000
03F81FC000
03FC1FE000
03FC1FE000
07FC1FE000
07FC3FF000
07FC3FF000
0FBE3DF000
0F9E3CF800
0F9E7CF800
1F9E7CF800
1F1F78FC00
1F0F787C00
1F0F787C00
3F0FF87E00
3E0FF07E00
3E07F03E00
7E07F03F00
7C07F03F00
7C07F01F00
FC07E01F80
ENDCHAR
STARTCHAR 028E
ENCODING 654
SWIDTH 552 0
DWIDTH 23 0
BBX 22 30 1 0
BITMAP
001F80
003F00
003F00
003E00
007E00
007E00
007C00
00FC00
00FC00
01FC00
01FC00
01FE00
03FE00
03FF00
07FF00
07FF00
07DF80
0FDF80
0FCF80
1F8FC0
1F8FC0
1F87E0
3F07E0
3F03E0
7E03F0
7E03F0
7E01F8
FC01F8
FC01F8
F800FC
ENDCHAR
STARTCHAR 028F
ENCODING 655
SWIDTH 576 0
DWIDTH 24 0
BBX 22 22 1 0
BITMAP
FE01FC
FE01FC
7F03F8
3F03F0
3F87F0
1FCFE0
0FCFC0
0FFF80
07FF80
03FF00
01FE00
01FE00
00FC00
00FC00
00FC00
00FC00
00FC00
00FC00
00FC00
00FC00
00FC00
00FC00
ENDCHAR
STARTCHAR 0290
ENCODING 656
SWIDTH 504 0
DWIDTH 21 0
BBX 24 30 1 -8
BITMAP
FFFFE0
FFFFE0
FFFFE0
FFFFC0
003FC0
003F80
007F00
00FE00
01FE00
01FC00
03F800
07F000
0FF000
0FE000
1FC000
3F8000
7F0000
7F0000
FFFFE0
FFFFE0
FFFFE0
FFFFE0
0007E0
0007E0
0007E0
0003F0
0003FE
0003FE
0001FF
00007F
ENDCHAR
STARTCHAR 0291
ENCODING 657
SWIDTH 696 0
DWIDTH 29 0
BBX 27 27 1 -5
BITMAP
FFFFE000
FFFFE000
FFFFE000
FFFFC000
003FC000
003F8000
007F0000
00FE0000
01FE0000
01FC0000
03F83E00
07F0FF80
0FF1FFC0
1FE3FFC0
1FC7FFE0
3F8FE7E0
7F1F83E0
FF3F07E0
FFFFFFC0
FFFFFFC0
FFFFFF80
FFFFFE00
01F80000
03F00000
01F00000
00600000
00200000
ENDCHAR
STARTCHAR 0292
ENCODING 658
SWIDTH 528 0
DWIDTH 22 0
BBX 20 30 1 -8
BITMAP
3FFFF0
3FFFF0
3FFFF0
3FFFF0
000FE0
001FC0
001F80
003F00
007E00
00FE00
01FC00
01FE00
01FF80
01FFC0
001FE0
0007E0
0003F0
0003F0
0003F0
0003F0
0003F0
0003F0
3803F0
FC03F0
FC07E0
7E0FE0
7FFFC0
3FFF80
0FFF00
03FC00
ENDCHAR
STARTCHAR 0293
ENCODING 659
SWIDTH 528 0
DWIDTH 22 0
BBX 21 30 1 -8
BITMAP
3FFFF0
3FFFF0
3FFFF0
3FFFF0
000FE0
001FC0
001F80
003F00
007E00
00FE00
01FC00
01FE00
01FF80
01FFC0
001FE0
0007F0
0003F0
0003F0
0003F0
0FC3F0
7FFBF0
FFFFF0
FFFFF0
F83FE0
F81FE0
FC1FF0
FFFFF8
7FFFF8
3FFEE0
07F840
ENDCHAR
STARTCHAR 0294
ENCODING 660
SWIDTH 552 0
DWIDTH 23 0
BBX 20 30 2 0
BITMAP
07F800
1FFE00
3FFF00
7FFF80
FE1FC0
FC0FC0
3807E0
0007E0
0003E0
0003F0
0003F0
0003F0
0003F0
0007E0
0007E0
0007E0
000FE0
001FC0
03FFC0
03FF80
03FF00
03FC00
03F000
03F000
03F000
03F000
03F000
03F000
03F000
03F000
ENDCHAR
STARTCHAR 0295
ENCODING 661
SWIDTH 552 0
DWIDTH 23 0
BBX 20 30 2 0
BITMAP
01FC00
0FFF80
1FFFC0
3FFFE0
7F07E0
7E03F0
FC0380
FC0000
FC0000
FC0000
FC0000
FC0000
FC0000
FC0000
FC0000
FC0000
7E0000
7F0000
3FF800
1FF800
0FF800
03F800
01F800
01F800
01F800
01F800
01F800
01F800
01F800
01F800
ENDCHAR
STARTCHAR 0296
ENCODING 662
SWIDTH 552 0
DWIDTH 23 0
BBX 20 30 2 0
BITMAP
03F000
03F000
03F000
03F000
03F000
03F000
03F000
03F000
03FC00
03FE00
03FF80
03FF80
001FC0
000FE0
0007E0
0007E0
0007E0
0003F0
0003F0
0003F0
0003F0
0007E0
0007E0
3807E0
FC0FC0
FE1FC0
7FFF80
7FFF00
1FFE00
07F800
ENDCHAR
STARTCHAR 0297
ENCODING 663
SWIDTH 552 0
DWIDTH 23 0
BBX 20 31 2 -8
BITMAP
01FC00
0FFF80
1FFFC0
3FFFE0
7F07E0
7E03F0
FC0380
FC0000
FC0000
FC0000
FC0000
FC0000
FC0000
FC0000
FC0000
FC0000
FC0000
FC0000
FC0000
FC0000
FC0000
FC0000
FC0000
FC03C0
FC03F0
7E03F0
7F0FE0
3FFFE0
1FFFC0
0FFF00
01FC00
ENDCHAR
STARTCHAR 0298
ENCODING 664
SWIDTH 792 0
DWIDTH 33 0
BBX 29 30 2 0
BITMAP
003FE000
01FFFC00
07FFFE00
0FFFFF00
1FFFFF80
3FE03FC0
3F801FE0
7F000FE0
7F0007F0
7E0003F0
FE0003F0
FC0003F8
FC1F81F8
FC1F81F8
FC1F81F8
FC1F81F8
FC1F81F8
FC1F83F8
FC0003F8
FE0003F8
7E0003F0
7F0007F0
7F000FE0
3F801FE0
3FE07FC0
1FFFFFC0
0FFFFF80
07FFFE00
01FFFC00
003FE000
ENDCHAR
STARTCHAR 0299
ENCODING 665
SWIDTH 624 0
DWIDTH 26 0
BBX 21 22 3 0
BITMAP
FFFF00
FFFFE0
FFFFE0
FFFFF0
FC07F0
FC03F0
FC01F0
FC03F0
FC07F0
FFFFE0
FFFFC0
FFFFC0
FFFFF0
FC03F0
FC01F8
FC01F8
FC01F8
FC03F8
FFFFF8
FFFFF0
FFFFE0
FFFF80
ENDCHAR
STARTCHAR 029A
ENCODING 666
SWIDTH 576 0
DWIDTH 24 0
BBX 20 23 2 0
BITMAP
07F000
1FFE00
3FFF00
7FFF80
7E1FC0
7C0FE0
7C07E0
7C03F0
7E03F0
3FC3F0
0FC3F0
1FC3F0
7FC3F0
FE03F0
FC03F0
F803F0
F807E0
FC0FE0
FE1FC0
FFFF80
7FFF00
1FFE00
07F800
ENDCHAR
STARTCHAR 029B
ENCODING 667
SWIDTH 600 0
DWIDTH 25 0
BBX 27 27 2 0
BITMAP
00001FC0
00007FE0
0000FFE0
0000FFC0
01FEFC00
07FFF800
0FFFF800
1FFFF800
3F87F800
7F01F800
7E01C000
FC000000
FC000000
FC000000
FC000000
FC1FF800
FC1FF800
FC1FF800
FC1FF800
FC01F800
7E01F800
7E01F800
3F83F800
3FFFF800
1FFFF000
07FFC000
01FF0000
ENDCHAR
STARTCHAR 029C
ENCODING 668
SWIDTH 600 0
DWIDTH 25 0
BBX 20 22 3 0
BITMAP
FC03F0
FC03F0
FC03F0
FC03F0
FC03F0
FC03F0
FC03F0
FC03F0
FFFFF0
FFFFF0
FFFFF0
FFFFF0
FC03F0
FC03F0
FC03F0
FC03F0
FC03F0
FC03F0
FC03F0
FC03F0
FC03F0
FC03F0
ENDCHAR
STARTCHAR 029D
ENCODING 669
SWIDTH 456 0
DWIDTH 19 0
BBX 18 38 1 -8
BITMAP
007E00
007E00
007E00
007E00
000000
000000
000000
000000
007E00
007E00
007E00
007E00
007E00
007E00
007E00
007E00
007E00
007E00
007E00
007E00
007E00
007E00
007E00
007E00
007E00
007E00
0FFFC0
3FFFC0
7FFFC0
FFFFC0
F87E00
F87E00
F87E00
F87E00
FFFC00
7FF800
3FF000
0FE000
ENDCHAR
STARTCHAR 029E
ENCODING 670
SWIDTH 552 0
DWIDTH 23 0
BBX 20 30 1 -8
BITMAP
FC03F0
FC03F0
7E03F0
7F03F0
3F03F0
1F83F0
1F83F0
0FC7F0
0FCFF0
07FFF0
07FFF0
03FFF0
01FFF0
01FFF0
01FFF0
03FBF0
07F3F0
0FE3F0
1FC3F0
3F83F0
7F03F0
FE03F0
0003F0
0003F0
0003F0
0003F0
0003F0
0003F0
0003F0
0003F0
ENDCHAR
STARTCHAR 029F
ENCODING 671
SWIDTH 456 0
DWIDTH 19 0
BBX 15 22 3 0
BITMAP
FC00
FC00
FC00
FC00
FC00
FC00
FC00
FC00
FC00
FC00
FC00
FC00
FC00
FC00
FC00
FC00
FC00
FC00
FFFE
FFFE
FFFE
FFFE
ENDCHAR
STARTCHAR 02A0
ENCODING 672
SWIDTH 624 0
DWIDTH 26 0
BBX 27 38 2 -8
BITMAP
00001FC0
00007FE0
0000FFC0
0001FFC0
0001FC00
0001F800
0001F800
03F1F800
0FFDF800
1FFFF800
3FFFF800
7F87F800
7E03F800
7E01F800
FC01F800
FC01F800
FC01F800
FC01F800
FC01F800
FC01F800
FC01F800
FC01F800
FC01F800
7E03F800
7E03F800
3F0FF800
3FFFF800
1FFFF800
0FFDF800
03F1F800
0001F800
0001F800
0001F800
0001F800
0001F800
0001F800
0001F800
0001F800
ENDCHAR
STARTCHAR 02A1
ENCODING 673
SWIDTH 552 0
DWIDTH 23 0
BBX 21 30 1 0
BITMAP
03FC00
0FFF00
1FFF80
3FFFC0
7F0FE0
7E07E0
1C03F0
0003F0
0001F0
0001F8
0001F8
0001F8
0001F8
0003F0
0003F0
0003F0
0007F0
000FE0
01FFE0
01FFC0
01FF80
01FE00
01F800
FFFFF0
FFFFF0
FFFFF0
FFFFF0
01F800
01F800
01F800
ENDCHAR
STARTCHAR 02A2
ENCODING 674
SWIDTH 552 0
DWIDTH 23 0
BBX 20 30 2 0
BITMAP
01FC00
0FFF80
1FFFC0
3FFFE0
7F07E0
7E03F0
FC0380
FC0000
FC0000
FC0000
FC0000
FC0000
FC0000
FC0000
FC0000
FC0000
7E0000
7F0000
3FF800
1FF800
0FF800
03F800
01F800
FFFFF0
FFFFF0
FFFFF0
FFFFF0
01F800
01F800
01F800
ENDCHAR
STARTCHAR 02A3
ENCODING 675
SWIDTH 1032 0
DWIDTH 43 0
BBX 40 30 2 0
BITMAP
0001F80000
0001F80000
0001F80000
0001F80000
0001F80000
0001F80000
0001F80000
03F1F80000
0FFDFFFFFF
1FFFFFFFFF
3FFFFFFFFF
7F07FFFFFF
7E03F800FE
FE03F801FC
FC01F803F8
FC01F807F8
FC01F807F0
FC01F80FE0
FC01F81FC0
FC01F83FC0
FC01F83F80
FC01F87F00
FC01F8FE00
7E03F8FE00
7E03F9FC00
7F0FFBF800
3FFFFFFFFF
1FFEFFFFFF
0FFCFFFFFF
03F0FFFFFF
ENDCHAR
STARTCHAR 02A4
ENCODING 676
SWIDTH 960 0
DWIDTH 40 0
BBX 37 38 2 -8
BITMAP
0001F80000
0001F80000
0001F80000
0001F80000
0001F80000
0001F80000
0001F80000
03F1F80000
0FFDFFFFF0
1FFFFFFFF0
3FFFFFFFF0
7F07FFFFF0
7E03F807E0
FE03F80FC0
FC01F81F80
FC01F83F80
FC01F87F00
FC01F8FE00
FC01F8FC00
FC01F9FF00
FC01F9FF80
FC01F9FFE0
FC01F80FE0
7E03F807F0
7E03F803F0
7F0FF803F0
3FFFF801F8
1FFEF801F8
0FFCF801F8
03F0F801F8
00000003F0
00000003F0
00003807F0
0000FE0FE0
0000FFFFE0
00007FFFC0
00003FFF00
000007FC00
ENDCHAR
STARTCHAR 02A5
ENCODING 677
SWIDTH 1224 0
DWIDTH 51 0
BBX 48 34 2 -5
BITMAP
0001F8000000
0001F8000000
0001F8000000
0001F8000000
0001F8000000
0001F8000000
0001F8000000
03F1F8000000
0FFDFFFFFF00
1FFFFFFFFF00
3FFFFFFFFF00
7F07FFFFFF00
7E03F800FE00
FE03F801FC00
FC01F803F800
FC01F807F800
FC01F807F000
FC01F80FE000
FC01F81FC1F8
FC01F83FC7FC
FC01F83F8FFE
FC01F87F1FFF
FC01F8FE3FFF
7E03F9FE7F1F
7E03FBFCFE1F
7F0FFBF8FC1F
3FFFFFFFFFFF
1FFEFFFFFFFE
0FFCFFFFFFFC
03F0FFFFFFF0
0000000FC000
0000000F8000
0000000F8000
000000030000
ENDCHAR
STARTCHAR 02A6
ENCODING 678
SWIDTH 816 0
DWIDTH 34 0
BBX 31 29 1 0
BITMAP
01000000
07000000
1F000000
3F000000
3F000000
3F000000
3F003F80
FFFFFFE0
FFFFFFF8
FFFFFFF8
FFFFC1FC
3F0F80FC
3F0F8070
3F0F8000
3F0FE000
3F0FFC00
3F07FF80
3F03FFF0
3F01FFFC
3F007FFC
3F0007FE
3F0000FE
3F00007E
3F00007E
3F80007E
1FFFFFFC
1FFFFFFC
0FFFFFF0
07FFFFC0
ENDCHAR
STARTCHAR 02A7
ENCODING 679
SWIDTH 528 0
DWIDTH 22 0
BBX 23 38 1 -8
BITMAP
0001FE
0103FE
0707FE
1F0FFE
3F0FC0
3F0FC0
3F0FC0
3F0FC0
FFFFC0
FFFFC0
FFFFC0
FFFFC0
3F0FC0
3F0FC0
3F0FC0
3F0FC0
3F0FC0
3F0FC0
3F0FC0
3F0FC0
3F0FC0
3F0FC0
3F0FC0
3F0FC0
3F0FC0
3F8FC0
1FFFC0
1FFFC0
0FFFC0
07EFC0
000FC0
000FC0
000FC0
001FC0
01FF80
01FF80
03FF00
01FC00
ENDCHAR
STARTCHAR 02A8
ENCODING 680
SWIDTH 840 0
DWIDTH 35 0
BBX 32 29 1 0
BITMAP
01000000
07000000
1F000000
3F000000
3F000000
3F000000
3F001FC0
FFF07FF0
FFF1FFFC
FFF3FFFE
FFF3F87E
3F07E03F
3F07E03F
3F0FC038
3F0FC000
3F0FC000
3F0FC3F0
3F0FCFFC
3F0FFFFE
3F0FFFFF
3F0FFE1F
3F07FC1F
3F0FF81F
3F0FF01F
3F9FF87F
1FFFFFFE
1FFEFFFE
0FF87FF8
07E01FE0
ENDCHAR
STARTCHAR 02A9
ENCODING 681
SWIDTH 888 0
DWIDTH 37 0
BBX 33 38 1 -8
BITMAP
03F8000000
0FFC000000
1FFC000000
1FFC000000
1F80000000
1F80000000
1F00000000
1F0003F000
FFFFCFFC00
FFFFDFFE00
FFFFFFFF00
FFFFF87F00
1F07F03F00
1F07E03F00
1F07E01F80
1F07E01F80
1F07E01F80
1F07E01F80
1F07E01F80
1F07E01F80
1F07E01F80
1F07E01F80
1F07E01F80
1F07E01F80
1F07E01F80
1F07E01F80
1F07E01F80
1F07E01F80
1F07E01F80
1F07E01F80
0000001F80
0000001F80
0000001F80
0000003F00
000001FF00
000001FF00
000003FE00
000003F800
ENDCHAR
STARTCHAR 02AA
ENCODING 682
SWIDTH 792 0
DWIDTH 33 0
BBX 28 30 3 0
BITMAP
FC000000
FC000000
FC000000
FC000000
FC000000
FC000000
FC000000
FC07F800
FC1FFF00
FC3FFF80
FC7FFFC0
FCFE0FC0
FCFC07E0
FCF80700
FCFC0000
FCFF0000
FC7FE000
FC7FFC00
FC3FFF80
FC0FFFC0
FC01FFE0
FC001FE0
FC0007F0
FC0003F0
FF0007E0
FFE00FE0
FFFFFFC0
FFFFFF80
FFFFFF00
FC3FF800
ENDCHAR
STARTCHAR 02AB
ENCODING 683
SWIDTH 696 0
DWIDTH 29 0
BBX 25 30 3 0
BITMAP
FC000000
FC000000
FC000000
FC000000
FC000000
FC000000
FC000000
FC000000
FFFFFF80
FFFFFF80
FFFFFF80
FFFFFF80
FC00FF00
FC00FE00
FC01FC00
FC03F800
FC07F800
FC07F000
FC0FE000
FC1FC000
FC1FC000
FC3F8000
FC7F0000
FCFE0000
FCFE0000
FDFC0000
FFFFFF80
FFFFFF80
FFFFFF80
FFFFFF80
ENDCHAR
STARTCHAR 02AC
ENCODING 684
SWIDTH 528 0
DWIDTH 22 0
BBX 21 30 1 0
BITMAP
E0F078
F0F070
F0F8F0
71F8F0
79F8E0
79F9E0
39DDE0
3BDDC0
3F9DC0
1F9FC0
1F8F80
1F0F80
0F0F80
0F0F00
000000
000000
E0F078
F0F070
F0F8F0
71F8F0
79F8E0
79F9E0
39DDE0
3BDDC0
3F9DC0
1F9FC0
1F8F80
1F0F80
0F0F80
0F0F00
ENDCHAR
STARTCHAR 02AD
ENCODING 685
SWIDTH 576 0
DWIDTH 24 0
BBX 18 30 3 0
BITMAP
FFFFC0
FFFFC0
FFFFC0
FFFFC0
FFFFC0
F807C0
F807C0
F807C0
F807C0
F807C0
000000
000000
000000
000000
000000
000000
000000
000000
000000
000000
FFFFC0
FFFFC0
FFFFC0
FFFFC0
FFFFC0
F807C0
F807C0
F807C0
F807C0
F807C0
ENDCHAR
STARTCHAR 02AE
ENCODING 686
SWIDTH 744 0
DWIDTH 31 0
BBX 28 31 0 -8
BITMAP
FF000000
FFC003F0
FFE003F0
7FF003F0
43F003F0
01F803F0
01F803F0
00F803F0
00F803F0
00F803F0
00FC03F0
00FC03F0
00FC03F0
00FC03F0
00FC03F0
00FC03F0
00FC07F0
00FC07F0
00FE1FF0
007FFFF0
007FFFF0
003FF3F0
000FC3F0
000003F0
000003F0
000003F0
000003F0
000003F0
000003F0
000003F0
000003F0
ENDCHAR
STARTCHAR 02AF
ENCODING 687
SWIDTH 744 0
DWIDTH 31 0
BBX 36 31 0 -8
BITMAP
FF00000000
FFC003F000
FFE003F000
7FF003F000
43F003F000
01F803F000
01F803F000
00F803F000
00F803F000
00F803F000
00FC03F000
00FC03F000
00FC03F000
00FC03F000
00FC03F000
00FC03F000
00FC07F000
00FC07F000
00FE1FF000
007FFFF000
007FFFF000
003FF3F000
000FC3F000
000003F000
000003F000
000003F000
000001F840
000001FFE0
000000FFE0
0000007FF0
0000001FE0
ENDCHAR
STARTCHAR 02B0
ENCODING 688
SWIDTH 360 0
DWIDTH 15 0
BBX 13 20 1 10
BITMAP
F000
F000
F000
F000
F000
F3E0
F7F0
FFF8
F878
F078
F078
F078
F038
F038
F038
F038
F038
F038
F038
F038
ENDCHAR
STARTCHAR 02B1
ENCODING 689
SWIDTH 360 0
DWIDTH 15 0
BBX 13 20 1 10
BITMAP
3F00
7F00
FE00
F000
F000
F3E0
F7F0
FFF8
F878
F078
F078
F078
F038
F038
F038
F038
F038
F038
F038
F038
ENDCHAR
STARTCHAR 02B2
ENCODING 690
SWIDTH 192 0
DWIDTH 8 0
BBX 8 26 -1 4
BITMAP
0F
0F
0F
0F
00
0F
0F
0F
0F
0F
0F
0F
0F
0F
0F
0F
0F
0F
0F
0F
0F
0E
1E
7E
7E
F8
ENDCHAR
STARTCHAR 02B3
ENCODING 691
SWIDTH 264 0
DWIDTH 11 0
BBX 9 15 1 10
BITMAP
F780
FF80
FF80
F800
F000
F000
F000
F000
F000
F000
F000
F000
F000
F000
F000
ENDCHAR
STARTCHAR 02B4
ENCODING 692
SWIDTH 264 0
DWIDTH 11 0
BBX 10 15 0 10
BITMAP
03C0
03C0
03C0
03C0
03C0
03C0
03C0
03C0
07C0
07C0
07C0
0FC0
7FC0
FBC0
F3C0
ENDCHAR
STARTCHAR 02B5
ENCODING 693
SWIDTH 264 0
DWIDTH 11 0
BBX 13 21 0 4
BITMAP
03C0
03C0
03C0
03C0
03C0
03C0
03C0
03C0
07C0
07C0
07C0
0FC0
7FC0
FBC0
F3C0
03C0
03C0
03C0
03F0
01F8
00F8
ENDCHAR
STARTCHAR 02B6
ENCODING 694
SWIDTH 384 0
DWIDTH 16 0
BBX 14 15 1 10
BITMAP
F03C
F07C
F078
F0F0
F1F0
F3E0
FFE0
FFF8
F078
F078
F078
F078
FFF8
FFF8
FFE0
ENDCHAR
STARTCHAR 02B7
ENCODING 695
SWIDTH 528 0
DWIDTH 22 0
BBX 22 15 0 10
BITMAP
F0783C
F0783C
70F878
78FC78
78FC78
38FC70
3DFCF0
3DCEF0
1DCEE0
1DCFE0
1FCFE0
0F87C0
0F87C0
0F87C0
078780
ENDCHAR
STARTCHAR 02B8
ENCODING 696
SWIDTH 360 0
DWIDTH 15 0
BBX 15 21 0 4
BITMAP
F01E
781E
783C
783C
3C3C
3C78
3C78
1E70
1EF0
0EF0
0FE0
0FE0
07E0
07C0
07C0
07C0
0780
0F80
7F00
7F00
7C00
ENDCHAR
STARTCHAR 02B9
ENCODING 697
SWIDTH 240 0
DWIDTH 10 0
BBX 6 11 2 19
BITMAP
FC
FC
FC
FC
FC
FC
FC
FC
7C
78
78
ENDCHAR
STARTCHAR 02BA
ENCODING 698
SWIDTH 480 0
DWIDTH 20 0
BBX 16 11 2 19
BITMAP
FE3F
FE3F
FE3F
FE3F
FE3F
FE3F
7C3F
7C3E
7C3E
7C3E
7C1E
ENDCHAR
STARTCHAR 02BB
ENCODING 699
SWIDTH 288 0
DWIDTH 12 0
BBX 6 13 3 17
BITMAP
08
1C
3C
78
70
E0
E0
FC
FC
FC
FC
FC
FC
ENDCHAR
STARTCHAR 02BC
ENCODING 700
SWIDTH 288 0
DWIDTH 12 0
BBX 6 13 3 17
BITMAP
FC
FC
FC
FC
FC
FC
1C
38
38
78
F0
E0
C0
ENDCHAR
STARTCHAR 02BD
ENCODING 701
SWIDTH 288 0
DWIDTH 12 0
BBX 6 13 3 17
BITMAP
FC
FC
FC
FC
FC
FC
E0
E0
70
78
3C
3C
08
ENDCHAR
STARTCHAR 02BE
ENCODING 702
SWIDTH 336 0
DWIDTH 14 0
BBX 4 8 5 25
BITMAP
C0
E0
70
30
30
70
E0
C0
ENDCHAR
STARTCHAR 02BF
ENCODING 703
SWIDTH 336 0
DWIDTH 14 0
BBX 4 8 5 25
BITMAP
30
70
E0
C0
C0
E0
70
30
ENDCHAR
ENDFONT
